Samaano-Bold.ufo
<glyph name=".notdef" format="2">
  <advance width="1000"/>
  <unicode hex="0000"/>
  <outline>
    <contour>
      <point x="808.634" y="1639.77" type="line"/>
      <point x="1000" y="1638" type="line"/>
      <point x="178.925" y="-24.8997" type="line"/>
      <point x="6.30832" y="5.56211" type="line"/>
    </contour>
    <contour>
      <point x="12.987" y="1574.98" type="line"/>
      <point x="170" y="1634" type="line"/>
      <point x="1015.55" y="-10.5494" type="line"/>
      <point x="831.745" y="-20.7607" type="line"/>
    </contour>
    <contour>
      <point x="-51" y="115" type="line"/>
      <point x="1051" y="115" type="line"/>
      <point x="1051" y="-51" type="line"/>
      <point x="-51" y="-51" type="line"/>
    </contour>
    <contour>
      <point x="0" y="1682" type="line"/>
      <point x="1026" y="1670" type="line"/>
      <point x="1022" y="1510" type="line"/>
      <point x="0" y="1494" type="line"/>
    </contour>
    <contour>
      <point x="874" y="1650" type="line"/>
      <point x="1042" y="1646" type="line"/>
      <point x="1051" y="-51" type="line"/>
      <point x="883" y="-51" type="line"/>
    </contour>
    <contour>
      <point x="-51" y="1683" type="line"/>
      <point x="125.125" y="1683" type="line"/>
      <point x="120.875" y="-51" type="line"/>
      <point x="-51" y="-51" type="line"/>
    </contour>
  </outline>
</glyph>
<glyph name="exclam" format="2">
  <advance width="1024"/>
  <unicode hex="0021"/>
  <outline>
    <contour>
      <point x="440.0" y="17.0" type="line"/>
      <point x="584.0" y="17.0" type="line"/>
      <point x="584.0" y="265.0" type="line"/>
      <point x="440.0" y="265.0" type="line"/>
    </contour>
    <contour>
      <point x="450.0" y="502.0" type="line"/>
      <point x="578.0" y="502.0" type="line"/>
      <point x="578.0" y="1520.0" type="line"/>
      <point x="450.0" y="1520.0" type="line"/>
    </contour>
  </outline>
</glyph>
<glyph name="quotedbl" format="2">
  <advance width="1000"/>
  <unicode hex="0022"/>
  <outline>
    <contour>
      <point x="773" y="1574" type="line"/>
      <point x="630" y="1574" type="line"/>
      <point x="630" y="1326" type="line"/>
      <point x="773" y="1326" type="line"/>
    </contour>
    <contour>
      <point x="373" y="1574" type="line"/>
      <point x="230" y="1574" type="line"/>
      <point x="230" y="1326" type="line"/>
      <point x="373" y="1326" type="line"/>
    </contour>
  </outline>
</glyph>
<glyph name="numbersign" format="2">
  <advance width="1024"/>
  <unicode hex="0023"/>
  <outline>
    <contour>
      <point x="228.0" y="1347.0" type="line"/>
      <point x="228.0" y="313.0" type="line"/>
      <point x="368.0" y="313.0" type="line"/>
      <point x="368.0" y="1347.0" type="line"/>
    </contour>
    <contour>
      <point x="638.0" y="1350.0" type="line"/>
      <point x="638.0" y="279.0" type="line"/>
      <point x="806.0" y="279.0" type="line"/>
      <point x="806.0" y="1350.0" type="line"/>
    </contour>
    <contour>
      <point x="98.0" y="1157.0" type="line"/>
      <point x="98.0" y="1010.0" type="line"/>
      <point x="916.0" y="1010.0" type="line"/>
      <point x="916.0" y="1157.0" type="line"/>
    </contour>
    <contour>
      <point x="98.0" y="767.0" type="line"/>
      <point x="98.0" y="592.0" type="line"/>
      <point x="926.0" y="592.0" type="line"/>
      <point x="926.0" y="767.0" type="line"/>
    </contour>
  </outline>
</glyph>
<glyph name="percent" format="2">
  <advance width="1024"/>
  <unicode hex="0025"/>
  <outline>
    <contour>
      <point x="78.5" y="522" type="line"/>
      <point x="121.5" y="377" type="line"/>
      <point x="945.5" y="716" type="line"/>
      <point x="901.5" y="860" type="line"/>
    </contour>
    <contour>
      <point x="218.5" y="1148" type="line"/>
      <point x="218.5" y="822" type="line"/>
      <point x="296.5" y="822" type="line"/>
      <point x="296.5" y="1148" type="line"/>
    </contour>
    <contour>
      <point x="218.5" y="1152" type="line"/>
      <point x="218.5" y="1057" type="line"/>
      <point x="565.5" y="1057" type="line"/>
      <point x="565.5" y="1152" type="line"/>
    </contour>
    <contour>
      <point x="218.5" y="871" type="line"/>
      <point x="218.5" y="789" type="line"/>
      <point x="562.5" y="789" type="line"/>
      <point x="562.5" y="871" type="line"/>
    </contour>
    <contour>
      <point x="473.5" y="1152" type="line"/>
      <point x="473.5" y="791" type="line"/>
      <point x="565.5" y="791" type="line"/>
      <point x="565.5" y="1152" type="line"/>
    </contour>
    <contour>
      <point x="545.5" y="436" type="line"/>
      <point x="545.5" y="110" type="line"/>
      <point x="623.5" y="110" type="line"/>
      <point x="623.5" y="436" type="line"/>
    </contour>
    <contour>
      <point x="545.5" y="440" type="line"/>
      <point x="545.5" y="345" type="line"/>
      <point x="892.5" y="345" type="line"/>
      <point x="892.5" y="440" type="line"/>
    </contour>
    <contour>
      <point x="545.5" y="159" type="line"/>
      <point x="545.5" y="77" type="line"/>
      <point x="889.5" y="77" type="line"/>
      <point x="889.5" y="159" type="line"/>
    </contour>
    <contour>
      <point x="800.5" y="440" type="line"/>
      <point x="800.5" y="79" type="line"/>
      <point x="892.5" y="79" type="line"/>
      <point x="892.5" y="440" type="line"/>
    </contour>
  </outline>
</glyph>
<glyph name="ampersand" format="2">
  <advance width="1024"/>
  <unicode hex="0026"/>
  <outline>
    <contour>
      <point x="277" y="1536" type="line"/>
      <point x="724" y="12" type="line"/>
      <point x="871" y="56" type="line"/>
      <point x="439" y="1534" type="line"/>
    </contour>
    <contour>
      <point x="820" y="1401" type="line"/>
      <point x="820" y="1536" type="line"/>
      <point x="355" y="1536" type="line"/>
      <point x="355" y="1401" type="line"/>
    </contour>
    <contour>
      <point x="660" y="1446" type="line"/>
      <point x="660" y="917" type="line"/>
      <point x="820" y="917" type="line"/>
      <point x="820" y="1446" type="line"/>
    </contour>
    <contour>
      <point x="124" y="1045" type="line"/>
      <point x="124" y="843" type="line"/>
      <point x="820" y="843" type="line"/>
      <point x="820" y="1045" type="line"/>
    </contour>
    <contour>
      <point x="124" y="1045" type="line"/>
      <point x="124" y="24" type="line"/>
      <point x="334" y="24" type="line"/>
      <point x="334" y="1045" type="line"/>
    </contour>
    <contour>
      <point x="124" y="190" type="line"/>
      <point x="124" y="6" type="line"/>
      <point x="933" y="6" type="line"/>
      <point x="933" y="190" type="line"/>
    </contour>
  </outline>
</glyph>
<glyph name="quotesingle" format="2">
  <advance width="1024"/>
  <unicode hex="0027"/>
  <outline>
    <contour>
      <point x="447" y="1496" type="line"/>
      <point x="447" y="1264" type="line"/>
      <point x="577" y="1264" type="line"/>
      <point x="577" y="1496" type="line"/>
    </contour>
  </outline>
</glyph>
<glyph name="parenleft" format="2">
	<unicode hex="0028"/>
	<advance width="1024"/>
	<outline>
		<contour>
			<point x="324" y="1023" type="line"/>
			<point x="324" y="179" type="line"/>
			<point x="514" y="179" type="line"/>
			<point x="514" y="1023" type="line"/>
		</contour>
		<contour>
			<point x="642" y="1633" type="line"/>
			<point x="324" y="1028" type="line"/>
			<point x="512" y="1028" type="line"/>
			<point x="672" y="1640" type="line"/>
		</contour>
		<contour>
			<point x="324" y="179" type="line"/>
			<point x="668" y="-406" type="line"/>
			<point x="700" y="-406" type="line"/>
			<point x="514" y="179" type="line"/>
		</contour>
	</outline>
</glyph>
<glyph name="parenright" format="2">
  <advance width="1024"/>
  <unicode hex="0029"/>
  <outline>
    <contour>
      <point x="488.0" y="1023.0" type="line"/>
      <point x="488.0" y="179.0" type="line"/>
      <point x="678.0" y="179.0" type="line"/>
      <point x="678.0" y="1023.0" type="line"/>
    </contour>
    <contour>
      <point x="346.0" y="1629.0" type="line"/>
      <point x="488.0" y="1023.0" type="line"/>
      <point x="678.0" y="1023.0" type="line"/>
      <point x="384.0" y="1629.0" type="line"/>
    </contour>
    <contour>
      <point x="488.0" y="179.0" type="line"/>
      <point x="346.0" y="-406.0" type="line"/>
      <point x="374.0" y="-406.0" type="line"/>
      <point x="678.0" y="179.0" type="line"/>
    </contour>
  </outline>
</glyph>
<glyph name="asterisk" format="2">
  <advance width="1024"/>
  <unicode hex="002A"/>
  <outline>
    <contour>
      <point x="422.0" y="1297.0" type="line"/>
      <point x="422.0" y="300.0" type="line"/>
      <point x="652.0" y="300.0" type="line"/>
      <point x="652.0" y="1297.0" type="line"/>
    </contour>
    <contour>
      <point x="65.0" y="1099.0" type="line"/>
      <point x="793.0" y="360.0" type="line"/>
      <point x="952.0" y="504.0" type="line"/>
      <point x="220.0" y="1241.0" type="line"/>
    </contour>
    <contour>
      <point x="817.0" y="1232.0" type="line"/>
      <point x="94.0" y="525.0" type="line"/>
      <point x="236.0" y="372.0" type="line"/>
      <point x="959.0" y="1079.0" type="line"/>
    </contour>
  </outline>
</glyph>
<glyph name="plus" format="2">
  <advance width="1024"/>
  <unicode hex="002B"/>
  <outline>
    <contour>
      <point x="384.0" y="1221.0" type="line"/>
      <point x="384.0" y="165.0" type="line"/>
      <point x="609.0" y="165.0" type="line"/>
      <point x="609.0" y="1221.0" type="line"/>
    </contour>
    <contour>
      <point x="61.0" y="821.0" type="line"/>
      <point x="61.0" y="613.0" type="line"/>
      <point x="963.0" y="613.0" type="line"/>
      <point x="963.0" y="821.0" type="line"/>
    </contour>
  </outline>
</glyph>
<glyph name="comma" format="2">
  <advance width="1024"/>
  <unicode hex="002C"/>
  <outline>
    <contour>
      <point x="398.0" y="237.0" type="line"/>
      <point x="398.0" y="8.0" type="line"/>
      <point x="646.0" y="8.0" type="line"/>
      <point x="646.0" y="237.0" type="line"/>
    </contour>
    <contour>
      <point x="496.0" y="135.0" type="line"/>
      <point x="378.0" y="-146.0" type="line"/>
      <point x="522.0" y="-206.0" type="line"/>
      <point x="644.0" y="0.0" type="line"/>
    </contour>
  </outline>
</glyph>
<glyph name="hyphen" format="2">
  <advance width="1024"/>
  <unicode hex="002D"/>
  <outline>
    <contour>
      <point x="99" y="808" type="line"/>
      <point x="99" y="600" type="line"/>
      <point x="925" y="600" type="line"/>
      <point x="925" y="808" type="line"/>
    </contour>
  </outline>
</glyph>
<glyph name="period" format="2">
  <advance width="1024"/>
  <unicode hex="002E"/>
  <outline>
    <contour>
      <point x="379" y="246" type="line"/>
      <point x="379" y="-1" type="line"/>
      <point x="644" y="-1" type="line"/>
      <point x="644" y="246" type="line"/>
    </contour>
  </outline>
</glyph>
<glyph name="slash" format="2">
  <advance width="1024"/>
  <unicode hex="002F"/>
  <outline>
    <contour>
      <point x="744" y="1483" type="line"/>
      <point x="174" y="6" type="line"/>
      <point x="362" y="-67" type="line"/>
      <point x="932" y="1410" type="line"/>
    </contour>
  </outline>
</glyph>
<glyph name="zero" format="2">
  <advance width="1024"/>
  <unicode hex="0030"/>
  <outline>
    <contour>
      <point x="412.0" y="908.0" type="line"/>
      <point x="613.0" y="908.0" type="line"/>
      <point x="613.0" y="708.0" type="line"/>
      <point x="412.0" y="708.0" type="line"/>
    </contour>
    <contour>
      <point x="295.0" y="1359.0" type="line"/>
      <point x="730.0" y="1359.0" type="line"/>
      <point x="730.0" y="208.0" type="line"/>
      <point x="295.0" y="208.0" type="line"/>
    </contour>
    <contour>
      <point x="93.0" y="1559.0" type="line"/>
      <point x="93.0" y="7.0" type="line"/>
      <point x="930.0" y="7.0" type="line"/>
      <point x="930.0" y="1559.0" type="line"/>
    </contour>
  </outline>
</glyph>
<glyph name="one" format="2">
  <advance width="1024"/>
  <unicode hex="0031"/>
  <outline>
    <contour>
      <point x="463" y="5" type="line"/>
      <point x="463" y="850" type="line"/>
      <point x="737" y="845" type="line"/>
      <point x="737" y="0" type="line"/>
    </contour>
    <contour>
      <point x="470" y="935" type="line"/>
      <point x="470" y="1640" type="line"/>
      <point x="746" y="1640" type="line"/>
      <point x="746" y="935" type="line"/>
    </contour>
  </outline>
</glyph>
<glyph name="two" format="2">
  <advance width="1024"/>
  <unicode hex="0032"/>
  <outline>
    <contour>
      <point x="98" y="130" type="line"/>
      <point x="98" y="1024" type="line"/>
      <point x="406" y="1024" type="line"/>
      <point x="406" y="130" type="line"/>
    </contour>
    <contour>
      <point x="102" y="247" type="line"/>
      <point x="958" y="259" type="line"/>
      <point x="960" y="0" type="line"/>
      <point x="108" y="0" type="line"/>
    </contour>
    <contour>
      <point x="230" y="1433" type="line"/>
      <point x="230" y="1640" type="line"/>
      <point x="909" y="1640" type="line"/>
      <point x="909" y="1433" type="line"/>
    </contour>
    <contour>
      <point x="400" y="751" type="line"/>
      <point x="400" y="1024" type="line"/>
      <point x="883" y="1024" type="line"/>
      <point x="883" y="751" type="line"/>
    </contour>
    <contour>
      <point x="868" y="751" type="line"/>
      <point x="868" y="1640" type="line"/>
      <point x="1102" y="1640" type="line"/>
      <point x="1102" y="751" type="line"/>
    </contour>
  </outline>
</glyph>
<glyph name="three" format="2">
  <advance width="1024"/>
  <unicode hex="0033"/>
  <outline>
    <contour>
      <point x="144" y="240" type="line"/>
      <point x="1042" y="242" type="line"/>
      <point x="1045" y="-8" type="line"/>
      <point x="154" y="9" type="line"/>
    </contour>
    <contour>
      <point x="176" y="1403" type="line"/>
      <point x="174" y="1631" type="line"/>
      <point x="930" y="1640" type="line"/>
      <point x="930" y="1403" type="line"/>
    </contour>
    <contour>
      <point x="186" y="736" type="line"/>
      <point x="186" y="1001" type="line"/>
      <point x="1051" y="1001" type="line"/>
      <point x="1051" y="736" type="line"/>
    </contour>
    <contour>
      <point x="843" y="200" type="line"/>
      <point x="843" y="756" type="line"/>
      <point x="1048" y="756" type="line"/>
      <point x="1048" y="200" type="line"/>
    </contour>
    <contour>
      <point x="841" y="964" type="line"/>
      <point x="841" y="1640" type="line"/>
      <point x="1048" y="1640" type="line"/>
      <point x="1048" y="964" type="line"/>
    </contour>
  </outline>
</glyph>
<glyph name="four" format="2">
  <advance width="1024"/>
  <unicode hex="0034"/>
  <outline>
    <contour>
      <point x="91.0" y="761.0" type="line"/>
      <point x="733.0" y="761.0" type="line"/>
      <point x="733.0" y="7.0" type="line"/>
      <point x="929.0" y="7.0" type="line"/>
      <point x="929.0" y="1548.0" type="line"/>
      <point x="730.0" y="1548.0" type="line"/>
      <point x="730.0" y="961.0" type="line"/>
      <point x="291.0" y="961.0" type="line"/>
      <point x="291.0" y="1548.0" type="line"/>
      <point x="91.0" y="1548.0" type="line"/>
    </contour>
  </outline>
</glyph>
<glyph name="five" format="2">
  <advance width="1024"/>
  <unicode hex="0035"/>
  <outline>
    <contour>
      <point x="772.0" y="759.0" type="line"/>
      <point x="772.0" y="198.0" type="line"/>
      <point x="59.0" y="198.0" type="line"/>
      <point x="59.0" y="0.0" type="line"/>
      <point x="977.0" y="0.0" type="line"/>
      <point x="977.0" y="959.0" type="line"/>
      <point x="260.0" y="959.0" type="line"/>
      <point x="260.0" y="1352.0" type="line"/>
      <point x="987.0" y="1352.0" type="line"/>
      <point x="987.0" y="1548.0" type="line"/>
      <point x="60.0" y="1548.0" type="line"/>
      <point x="60.0" y="759.0" type="line"/>
    </contour>
  </outline>
</glyph>
<glyph name="six" format="2">
  <advance width="1024"/>
  <unicode hex="0036"/>
  <outline>
    <contour>
      <point x="139" y="4" type="line"/>
      <point x="139" y="824" type="line"/>
      <point x="337" y="824" type="line"/>
      <point x="337" y="4" type="line"/>
    </contour>
    <contour>
      <point x="140" y="889" type="line"/>
      <point x="127" y="1600" type="line"/>
      <point x="331" y="1600" type="line"/>
      <point x="331" y="888" type="line"/>
    </contour>
    <contour>
      <point x="139" y="195" type="line"/>
      <point x="1064" y="201" type="line"/>
      <point x="1070" y="8" type="line"/>
      <point x="141" y="0" type="line"/>
    </contour>
    <contour>
      <point x="129" y="1418" type="line"/>
      <point x="128" y="1629" type="line"/>
      <point x="1072" y="1641" type="line"/>
      <point x="1072" y="1418" type="line"/>
    </contour>
    <contour>
      <point x="138" y="759" type="line"/>
      <point x="138" y="986" type="line"/>
      <point x="1062" y="986" type="line"/>
      <point x="1062" y="759" type="line"/>
    </contour>
    <contour>
      <point x="860" y="51" type="line"/>
      <point x="860" y="986" type="line"/>
      <point x="1069" y="986" type="line"/>
      <point x="1069" y="51" type="line"/>
    </contour>
  </outline>
</glyph>
<glyph name="seven" format="2">
  <advance width="1024"/>
  <unicode hex="0037"/>
  <outline>
    <contour>
      <point x="101" y="1418" type="line"/>
      <point x="101" y="1629" type="line"/>
      <point x="1006" y="1641" type="line"/>
      <point x="1006" y="1418" type="line"/>
    </contour>
    <contour>
      <point x="799" y="866" type="line"/>
      <point x="790" y="1636" type="line"/>
      <point x="1014" y="1644" type="line"/>
      <point x="1017" y="867" type="line"/>
    </contour>
    <contour>
      <point x="801" y="0" type="line"/>
      <point x="798" y="923" type="line"/>
      <point x="1017" y="923" type="line"/>
      <point x="1017" y="0" type="line"/>
    </contour>
  </outline>
</glyph>
<glyph name="eight" format="2">
  <advance width="1024"/>
  <unicode hex="0038"/>
  <outline>
    <contour>
      <point x="137" y="0" type="line"/>
      <point x="137" y="856" type="line"/>
      <point x="335" y="856" type="line"/>
      <point x="335" y="0" type="line"/>
    </contour>
    <contour>
      <point x="137" y="895" type="line"/>
      <point x="130" y="1639" type="line"/>
      <point x="334" y="1639" type="line"/>
      <point x="335" y="896" type="line"/>
    </contour>
    <contour>
      <point x="146" y="0" type="line"/>
      <point x="145" y="212" type="line"/>
      <point x="1043" y="213" type="line"/>
      <point x="1043" y="-3" type="line"/>
    </contour>
    <contour>
      <point x="181" y="1415" type="line"/>
      <point x="181" y="1638" type="line"/>
      <point x="987" y="1639" type="line"/>
      <point x="987" y="1417" type="line"/>
    </contour>
    <contour>
      <point x="137" y="759" type="line"/>
      <point x="137" y="986" type="line"/>
      <point x="1042" y="986" type="line"/>
      <point x="1042" y="759" type="line"/>
    </contour>
    <contour>
      <point x="854" y="33" type="line"/>
      <point x="854" y="864" type="line"/>
      <point x="1042" y="864" type="line"/>
      <point x="1042" y="33" type="line"/>
    </contour>
    <contour>
      <point x="849" y="950" type="line"/>
      <point x="849" y="1638" type="line"/>
      <point x="1043" y="1638" type="line"/>
      <point x="1042" y="948" type="line"/>
    </contour>
  </outline>
</glyph>
<glyph name="nine" format="2">
  <advance width="1024"/>
  <unicode hex="0039"/>
  <outline>
    <contour>
      <point x="122" y="868" type="line"/>
      <point x="122" y="1624" type="line"/>
      <point x="325" y="1624" type="line"/>
      <point x="325" y="868" type="line"/>
    </contour>
    <contour>
      <point x="199" y="205" type="line"/>
      <point x="977" y="208" type="line"/>
      <point x="980" y="-1" type="line"/>
      <point x="211" y="-1" type="line"/>
    </contour>
    <contour>
      <point x="123" y="1419" type="line"/>
      <point x="122" y="1640" type="line"/>
      <point x="1057" y="1637" type="line"/>
      <point x="1058" y="1416" type="line"/>
    </contour>
    <contour>
      <point x="122" y="759" type="line"/>
      <point x="122" y="986" type="line"/>
      <point x="1062" y="986" type="line"/>
      <point x="1062" y="759" type="line"/>
    </contour>
    <contour>
      <point x="862" y="1" type="line"/>
      <point x="863" y="838" type="line"/>
      <point x="1063" y="833" type="line"/>
      <point x="1067" y="0" type="line"/>
    </contour>
    <contour>
      <point x="863" y="879" type="line"/>
      <point x="863" y="1511" type="line"/>
      <point x="1057" y="1511" type="line"/>
      <point x="1062" y="879" type="line"/>
    </contour>
  </outline>
</glyph>
<glyph name="colon" format="2">
  <advance width="1024"/>
  <unicode hex="003A"/>
  <outline>
    <contour>
      <point x="399" y="430" type="line"/>
      <point x="399" y="201" type="line"/>
      <point x="647" y="201" type="line"/>
      <point x="647" y="430" type="line"/>
    </contour>
    <contour>
      <point x="376" y="871" type="line"/>
      <point x="376" y="624" type="line"/>
      <point x="641" y="624" type="line"/>
      <point x="641" y="871" type="line"/>
    </contour>
  </outline>
</glyph>
<glyph name="semicolon" format="2">
  <advance width="1024"/>
  <unicode hex="003B"/>
  <outline>
    <contour>
      <point x="399.5" y="430" type="line"/>
      <point x="399.5" y="201" type="line"/>
      <point x="647.5" y="201" type="line"/>
      <point x="647.5" y="430" type="line"/>
    </contour>
    <contour>
      <point x="498.5" y="328" type="line"/>
      <point x="380.5" y="47" type="line"/>
      <point x="523.5" y="-13" type="line"/>
      <point x="645.5" y="197" type="line"/>
    </contour>
    <contour>
      <point x="376.5" y="871" type="line"/>
      <point x="376.5" y="624" type="line"/>
      <point x="641.5" y="624" type="line"/>
      <point x="641.5" y="871" type="line"/>
    </contour>
  </outline>
</glyph>
<glyph name="less" format="2">
  <advance width="1024"/>
  <unicode hex="003C"/>
  <outline>
    <contour>
      <point x="103.0" y="777.0" type="line"/>
      <point x="103.0" y="569.0" type="line"/>
      <point x="921.0" y="807.0" type="line"/>
      <point x="921.0" y="1013.0" type="line"/>
    </contour>
    <contour>
      <point x="103.0" y="777.0" type="line"/>
      <point x="103.0" y="569.0" type="line"/>
      <point x="919.0" y="122.0" type="line"/>
      <point x="919.0" y="319.0" type="line"/>
    </contour>
  </outline>
</glyph>
<glyph name="equal" format="2">
  <advance width="1024"/>
  <unicode hex="003D"/>
  <outline>
    <contour>
      <point x="103.5" y="914" type="line"/>
      <point x="103.5" y="724" type="line"/>
      <point x="920.5" y="724" type="line"/>
      <point x="920.5" y="914" type="line"/>
    </contour>
    <contour>
      <point x="103.5" y="540" type="line"/>
      <point x="103.5" y="350" type="line"/>
      <point x="920.5" y="350" type="line"/>
      <point x="920.5" y="540" type="line"/>
    </contour>
  </outline>
</glyph>
<glyph name="greater" format="2">
  <advance width="1024"/>
  <unicode hex="003E"/>
  <outline>
    <contour>
      <point x="955" y="777" type="line"/>
      <point x="133" y="1013" type="line"/>
      <point x="130" y="807" type="line"/>
      <point x="956" y="568" type="line"/>
    </contour>
    <contour>
      <point x="955" y="777" type="line"/>
      <point x="135" y="319" type="line"/>
      <point x="135" y="122" type="line"/>
      <point x="956" y="568" type="line"/>
    </contour>
  </outline>
</glyph>
<glyph name="question" format="2">
  <advance width="1024"/>
  <unicode hex="003F"/>
  <outline>
    <contour>
      <point x="368.0" y="247.0" type="line"/>
      <point x="368.0" y="0.0" type="line"/>
      <point x="614.0" y="0.0" type="line"/>
      <point x="614.0" y="247.0" type="line"/>
    </contour>
    <contour>
      <point x="192.0" y="1519.0" type="line"/>
      <point x="192.0" y="1333.0" type="line"/>
      <point x="828.0" y="1333.0" type="line"/>
      <point x="828.0" y="1519.0" type="line"/>
    </contour>
    <contour>
      <point x="638.0" y="1514.0" type="line"/>
      <point x="638.0" y="966.0" type="line"/>
      <point x="832.0" y="966.0" type="line"/>
      <point x="832.0" y="1514.0" type="line"/>
    </contour>
    <contour>
      <point x="368.0" y="1015.0" type="line"/>
      <point x="368.0" y="816.0" type="line"/>
      <point x="832.0" y="816.0" type="line"/>
      <point x="832.0" y="1015.0" type="line"/>
    </contour>
    <contour>
      <point x="368.0" y="1011.0" type="line"/>
      <point x="368.0" y="392.0" type="line"/>
      <point x="616.0" y="392.0" type="line"/>
      <point x="616.0" y="1011.0" type="line"/>
    </contour>
  </outline>
</glyph>
<glyph name="at" format="2">
  <advance width="1024"/>
  <unicode hex="0040"/>
  <outline>
    <contour>
      <point x="254" y="1024" type="line"/>
      <point x="255" y="879" type="line"/>
      <point x="1069" y="879" type="line"/>
      <point x="1073" y="1024" type="line"/>
    </contour>
    <contour>
      <point x="790" y="592" type="line"/>
      <point x="789" y="-1" type="line"/>
      <point x="947" y="0" type="line"/>
      <point x="943" y="592" type="line"/>
    </contour>
    <contour>
      <point x="457" y="602" type="line"/>
      <point x="459" y="445" type="line"/>
      <point x="882" y="444" type="line"/>
      <point x="882" y="600" type="line"/>
    </contour>
    <contour>
      <point x="454" y="589" type="line"/>
      <point x="454" y="12" type="line"/>
      <point x="628" y="12" type="line"/>
      <point x="628" y="589" type="line"/>
    </contour>
    <contour>
      <point x="452" y="187" type="line"/>
      <point x="453" y="-2" type="line"/>
      <point x="946" y="0" type="line"/>
      <point x="946" y="188" type="line"/>
    </contour>
    <contour>
      <point x="166" y="1024" type="line"/>
      <point x="167" y="-223" type="line"/>
      <point x="342" y="-223" type="line"/>
      <point x="342" y="1024" type="line"/>
    </contour>
    <contour>
      <point x="164" y="-86" type="line"/>
      <point x="164" y="-258" type="line"/>
      <point x="1112" y="-258" type="line"/>
      <point x="1112" y="-86" type="line"/>
    </contour>
    <contour>
      <point x="1015" y="1011" type="line"/>
      <point x="1015" y="0" type="line"/>
      <point x="1166" y="0" type="line"/>
      <point x="1166" y="1011" type="line"/>
    </contour>
    <contour>
      <point x="887" y="175" type="line"/>
      <point x="887" y="1" type="line"/>
      <point x="1096" y="1" type="line"/>
      <point x="1096" y="175" type="line"/>
    </contour>
  </outline>
</glyph>
<glyph name="A" format="2">
  <advance width="1024"/>
  <unicode hex="0041"/>
  <guideline x="0" y="2457" angle="0" name="WIN-ASCENT"/>
  <guideline x="0" y="1024" angle="0" name="X_HEIGHT"/>
  <guideline x="0" y="1548" angle="0" name="CAPS_HEIFGHT"/>
  <outline>
    <contour>
      <point x="128" y="1" type="line"/>
      <point x="325" y="0" type="line"/>
      <point x="324" y="1548" type="line"/>
      <point x="125" y="1548" type="line"/>
    </contour>
    <contour>
      <point x="182" y="1337" type="line"/>
      <point x="851" y="1332" type="line"/>
      <point x="847" y="1548" type="line"/>
      <point x="186" y="1548" type="line"/>
    </contour>
    <contour>
      <point x="204" y="1025" type="line"/>
      <point x="202" y="840" type="line"/>
      <point x="835" y="849" type="line"/>
      <point x="835" y="1025" type="line"/>
    </contour>
    <contour>
      <point x="724" y="0" type="line"/>
      <point x="924" y="0" type="line"/>
      <point x="922" y="1548" type="line"/>
      <point x="722" y="1548" type="line"/>
    </contour>
  </outline>
</glyph>
<glyph name="B" format="2">
  <advance width="1024"/>
  <unicode hex="0042"/>
  <outline>
    <contour>
      <point x="130" y="2" type="line"/>
      <point x="288" y="2" type="line"/>
      <point x="248" y="1533" type="line"/>
      <point x="110" y="1534" type="line"/>
    </contour>
    <contour>
      <point x="210" y="1358" type="line"/>
      <point x="1070" y="998" type="line"/>
      <point x="1084" y="1126" type="line"/>
      <point x="246" y="1533" type="line"/>
    </contour>
    <contour>
      <point x="210" y="717" type="line"/>
      <point x="1082" y="989" type="line"/>
      <point x="1082" y="1123" type="line"/>
      <point x="210" y="898" type="line"/>
    </contour>
    <contour>
      <point x="248" y="232" type="line"/>
      <point x="286" y="-2" type="line"/>
      <point x="1078" y="434" type="line"/>
      <point x="1090" y="588" type="line"/>
    </contour>
    <contour>
      <point x="226" y="514" type="line"/>
      <point x="1084" y="424" type="line"/>
      <point x="1090" y="597" type="line"/>
      <point x="210" y="730" type="line"/>
    </contour>
  </outline>
</glyph>
<glyph name="C" format="2">
  <advance width="1024"/>
  <unicode hex="0043"/>
  <outline>
    <contour>
      <point x="71.0" y="1537.0" type="line"/>
      <point x="71.0" y="0.0" type="line"/>
      <point x="271.0" y="0.0" type="line"/>
      <point x="271.0" y="1537.0" type="line"/>
    </contour>
    <contour>
      <point x="170.0" y="1537.0" type="line"/>
      <point x="170.0" y="1338.0" type="line"/>
      <point x="953.0" y="1338.0" type="line"/>
      <point x="953.0" y="1537.0" type="line"/>
    </contour>
    <contour>
      <point x="156.0" y="199.0" type="line"/>
      <point x="156.0" y="0.0" type="line"/>
      <point x="951.0" y="0.0" type="line"/>
      <point x="951.0" y="199.0" type="line"/>
    </contour>
  </outline>
</glyph>
<glyph name="D" format="2">
  <advance width="1024"/>
  <unicode hex="0044"/>
  <outline>
    <contour>
      <point x="107" y="1547" type="line"/>
      <point x="142" y="-1" type="line"/>
      <point x="342" y="0" type="line"/>
      <point x="309" y="1548" type="line"/>
    </contour>
    <contour>
      <point x="433" y="1550" type="line"/>
      <point x="434" y="1350" type="line"/>
      <point x="918" y="767" type="line"/>
      <point x="916" y="1019" type="line"/>
    </contour>
    <contour>
      <point x="441" y="201" type="line"/>
      <point x="442" y="1" type="line"/>
      <point x="915" y="769" type="line"/>
      <point x="913" y="1025" type="line"/>
    </contour>
    <contour>
      <point x="271" y="1548" type="line"/>
      <point x="271" y="1349" type="line"/>
      <point x="434" y="1349" type="line"/>
      <point x="433" y="1549" type="line"/>
    </contour>
    <contour>
      <point x="279" y="199" type="line"/>
      <point x="279" y="0" type="line"/>
      <point x="442" y="0" type="line"/>
      <point x="441" y="200" type="line"/>
    </contour>
  </outline>
</glyph>
<glyph name="E" format="2">
  <advance width="1024"/>
  <unicode hex="0045"/>
  <outline>
    <contour>
      <point x="103" y="1537" type="line"/>
      <point x="112" y="3" type="line"/>
      <point x="319" y="3" type="line"/>
      <point x="303" y="1535" type="line"/>
    </contour>
    <contour>
      <point x="181" y="1536" type="line"/>
      <point x="188" y="1338" type="line"/>
      <point x="902" y="1333" type="line"/>
      <point x="900" y="1536" type="line"/>
    </contour>
    <contour>
      <point x="170" y="203" type="line"/>
      <point x="171" y="5" type="line"/>
      <point x="920" y="1" type="line"/>
      <point x="916" y="203" type="line"/>
    </contour>
    <contour>
      <point x="170" y="888" type="line"/>
      <point x="170" y="688" type="line"/>
      <point x="669" y="688" type="line"/>
      <point x="669" y="888" type="line"/>
    </contour>
  </outline>
</glyph>
<glyph name="F" format="2">
	<unicode hex="0046"/>
	<advance width="1024"/>
	<outline>
		<contour>
			<point x="141" y="1548" type="line"/>
			<point x="141" y="0" type="line"/>
			<point x="341" y="0" type="line"/>
			<point x="341" y="1548" type="line"/>
		</contour>
		<contour>
			<point x="243" y="1548" type="line"/>
			<point x="243" y="1347" type="line"/>
			<point x="877" y="1347" type="line"/>
			<point x="877" y="1548" type="line"/>
		</contour>
		<contour>
			<point x="231" y="875" type="line"/>
			<point x="231" y="672" type="line"/>
			<point x="780" y="672" type="line"/>
			<point x="780" y="875" type="line"/>
		</contour>
	</outline>
	<anchor name="top" x="521" y="1630"/>
	<anchor name="base" x="266" y="-71"/>
</glyph>
<glyph name="G" format="2">
  <advance width="1024"/>
  <unicode hex="0047"/>
  <outline>
    <contour>
      <point x="110" y="1529" type="line"/>
      <point x="110" y="-4" type="line"/>
      <point x="312" y="-4" type="line"/>
      <point x="312" y="1529" type="line"/>
    </contour>
    <contour>
      <point x="168" y="1529" type="line"/>
      <point x="168" y="1368" type="line"/>
      <point x="868" y="1368" type="line"/>
      <point x="868" y="1529" type="line"/>
    </contour>
    <contour>
      <point x="141" y="193" type="line"/>
      <point x="141" y="0" type="line"/>
      <point x="904" y="0" type="line"/>
      <point x="904" y="193" type="line"/>
    </contour>
    <contour>
      <point x="688" y="561" type="line"/>
      <point x="688" y="18" type="line"/>
      <point x="904" y="18" type="line"/>
      <point x="904" y="561" type="line"/>
    </contour>
  </outline>
</glyph>
<glyph name="H" format="2">
	<unicode hex="0048"/>
	<advance width="1024"/>
	<outline>
		<contour>
			<point x="114" y="1537" type="line"/>
			<point x="114" y="0" type="line"/>
			<point x="314" y="0" type="line"/>
			<point x="314" y="1537" type="line"/>
		</contour>
		<contour>
			<point x="700" y="1537" type="line"/>
			<point x="700" y="0" type="line"/>
			<point x="910" y="0" type="line"/>
			<point x="910" y="1537" type="line"/>
		</contour>
		<contour>
			<point x="234" y="1023" type="line"/>
			<point x="234" y="818" type="line"/>
			<point x="780" y="818" type="line"/>
			<point x="780" y="1023" type="line"/>
		</contour>
	</outline>
	<anchor name="top" x="506" y="1625"/>
	<anchor name="base" x="496" y="-34"/>
</glyph>
<glyph name="I" format="2">
  <advance width="1024"/>
  <unicode hex="0049"/>
  <outline>
    <contour>
      <point x="144" y="1537" type="line"/>
      <point x="144" y="1309" type="line"/>
      <point x="845" y="1309" type="line"/>
      <point x="845" y="1537" type="line"/>
    </contour>
    <contour>
      <point x="329" y="1468" type="line"/>
      <point x="329" y="84" type="line"/>
      <point x="625" y="84" type="line"/>
      <point x="625" y="1468" type="line"/>
    </contour>
    <contour>
      <point x="124" y="252" type="line"/>
      <point x="124" y="6" type="line"/>
      <point x="880" y="6" type="line"/>
      <point x="880" y="252" type="line"/>
    </contour>
  </outline>
</glyph>
<glyph name="J" format="2">
  <advance width="1024"/>
  <unicode hex="004A"/>
  <outline>
    <contour>
      <point x="613" y="1527" type="line"/>
      <point x="613" y="1" type="line"/>
      <point x="900" y="1" type="line"/>
      <point x="900" y="1527" type="line"/>
    </contour>
    <contour>
      <point x="126" y="282" type="line"/>
      <point x="126" y="0" type="line"/>
      <point x="741" y="0" type="line"/>
      <point x="741" y="282" type="line"/>
    </contour>
    <contour>
      <point x="125" y="503" type="line"/>
      <point x="125" y="54" type="line"/>
      <point x="362" y="52" type="line"/>
      <point x="362" y="503" type="line"/>
    </contour>
  </outline>
</glyph>
<glyph name="K" format="2">
  <advance width="1024"/>
  <unicode hex="004B"/>
  <outline>
    <contour>
      <point x="118" y="1535" type="line"/>
      <point x="118" y="5" type="line"/>
      <point x="289" y="5" type="line"/>
      <point x="289" y="1535" type="line"/>
    </contour>
    <contour>
      <point x="167" y="951" type="line"/>
      <point x="282" y="835" type="line"/>
      <point x="969" y="1538" type="line"/>
      <point x="759" y="1536" type="line"/>
    </contour>
    <contour>
      <point x="293" y="798" type="line"/>
      <point x="156" y="643" type="line"/>
      <point x="776" y="-1" type="line"/>
      <point x="992" y="0" type="line"/>
    </contour>
  </outline>
</glyph>
<glyph name="L" format="2">
  <advance width="1024"/>
  <unicode hex="004C"/>
  <outline>
    <contour>
      <point x="53.0" y="1542.0" type="line"/>
      <point x="53.0" y="0.0" type="line"/>
      <point x="251.0" y="0.0" type="line"/>
      <point x="251.0" y="1542.0" type="line"/>
    </contour>
    <contour>
      <point x="162.0" y="202.0" type="line"/>
      <point x="162.0" y="0.0" type="line"/>
      <point x="888.0" y="0.0" type="line"/>
      <point x="888.0" y="202.0" type="line"/>
    </contour>
  </outline>
</glyph>
<glyph name="M" format="2">
	<unicode hex="004D"/>
	<advance width="1024"/>
	<outline>
		<contour>
			<point x="101" y="1548" type="line"/>
			<point x="101" y="0" type="line"/>
			<point x="304" y="0" type="line"/>
			<point x="304" y="1548" type="line"/>
		</contour>
		<contour>
			<point x="722" y="1548" type="line"/>
			<point x="722" y="0" type="line"/>
			<point x="924" y="0" type="line"/>
			<point x="924" y="1548" type="line"/>
		</contour>
		<contour>
			<point x="162" y="1428" type="line"/>
			<point x="428" y="1031" type="line"/>
			<point x="616" y="1031" type="line"/>
			<point x="304" y="1547" type="line"/>
		</contour>
		<contour>
			<point x="723" y="1548" type="line"/>
			<point x="427" y="1023" type="line"/>
			<point x="614" y="1023" type="line"/>
			<point x="889" y="1499" type="line"/>
		</contour>
	</outline>
	<anchor name="base" x="514" y="-39"/>
	<anchor name="top" x="532" y="1642"/>
</glyph>
<glyph name="N" format="2">
  <advance width="1024"/>
  <unicode hex="004E"/>
  <outline>
    <contour>
      <point x="95.0" y="1548.0" type="line"/>
      <point x="95.0" y="0.0" type="line"/>
      <point x="300.0" y="0.0" type="line"/>
      <point x="300.0" y="1548.0" type="line"/>
    </contour>
    <contour>
      <point x="722.0" y="1548.0" type="line"/>
      <point x="722.0" y="0.0" type="line"/>
      <point x="924.0" y="0.0" type="line"/>
      <point x="924.0" y="1548.0" type="line"/>
    </contour>
    <contour>
      <point x="96.0" y="1548.0" type="line"/>
      <point x="723.0" y="0.0" type="line"/>
      <point x="926.0" y="0.0" type="line"/>
      <point x="301.0" y="1548.0" type="line"/>
    </contour>
  </outline>
</glyph>
<glyph name="O" format="2">
  <advance width="1024"/>
  <unicode hex="004F"/>
  <outline>
    <contour>
      <point x="110.0" y="1537.0" type="line"/>
      <point x="110.0" y="0.0" type="line"/>
      <point x="311.0" y="0.0" type="line"/>
      <point x="311.0" y="1537.0" type="line"/>
    </contour>
    <contour>
      <point x="707.0" y="1537.0" type="line"/>
      <point x="707.0" y="0.0" type="line"/>
      <point x="910.0" y="0.0" type="line"/>
      <point x="910.0" y="1537.0" type="line"/>
    </contour>
    <contour>
      <point x="174.0" y="1537.0" type="line"/>
      <point x="174.0" y="1337.0" type="line"/>
      <point x="817.0" y="1337.0" type="line"/>
      <point x="817.0" y="1537.0" type="line"/>
    </contour>
    <contour>
      <point x="150.0" y="204.0" type="line"/>
      <point x="150.0" y="0.0" type="line"/>
      <point x="823.0" y="0.0" type="line"/>
      <point x="823.0" y="204.0" type="line"/>
    </contour>
  </outline>
</glyph>
<glyph name="P" format="2">
  <advance width="1024"/>
  <unicode hex="0050"/>
  <outline>
    <contour>
      <point x="112" y="1535" type="line"/>
      <point x="112" y="-1" type="line"/>
      <point x="302" y="-1" type="line"/>
      <point x="302" y="1535" type="line"/>
    </contour>
    <contour>
      <point x="191" y="1536" type="line"/>
      <point x="191" y="1322" type="line"/>
      <point x="847" y="1322" type="line"/>
      <point x="847" y="1536" type="line"/>
    </contour>
    <contour>
      <point x="697" y="1536" type="line"/>
      <point x="697" y="872" type="line"/>
      <point x="874" y="872" type="line"/>
      <point x="874" y="1536" type="line"/>
    </contour>
    <contour>
      <point x="175" y="1030" type="line"/>
      <point x="175" y="868" type="line"/>
      <point x="862" y="868" type="line"/>
      <point x="862" y="1030" type="line"/>
    </contour>
  </outline>
</glyph>
<glyph name="Q" format="2">
  <advance width="1024"/>
  <unicode hex="0051"/>
  <outline>
    <contour>
      <point x="110.0" y="1537.0" type="line"/>
      <point x="110.0" y="5.0" type="line"/>
      <point x="309.0" y="5.0" type="line"/>
      <point x="309.0" y="1537.0" type="line"/>
    </contour>
    <contour>
      <point x="709.0" y="1537.0" type="line"/>
      <point x="709.0" y="0.0" type="line"/>
      <point x="910.0" y="0.0" type="line"/>
      <point x="910.0" y="1537.0" type="line"/>
    </contour>
    <contour>
      <point x="174.0" y="1537.0" type="line"/>
      <point x="174.0" y="1337.0" type="line"/>
      <point x="817.0" y="1337.0" type="line"/>
      <point x="817.0" y="1537.0" type="line"/>
    </contour>
    <contour>
      <point x="150.0" y="205.0" type="line"/>
      <point x="150.0" y="0.0" type="line"/>
      <point x="823.0" y="0.0" type="line"/>
      <point x="823.0" y="205.0" type="line"/>
    </contour>
    <contour>
      <point x="558.0" y="21.0" type="line"/>
      <point x="744.0" y="-285.0" type="line"/>
      <point x="935.0" y="-169.0" type="line"/>
      <point x="749.0" y="137.0" type="line"/>
    </contour>
  </outline>
</glyph>
<glyph name="R" format="2">
  <advance width="1024"/>
  <unicode hex="0052"/>
  <outline>
    <contour>
      <point x="112.0" y="1537.0" type="line"/>
      <point x="112.0" y="0.0" type="line"/>
      <point x="313.0" y="0.0" type="line"/>
      <point x="313.0" y="1537.0" type="line"/>
    </contour>
    <contour>
      <point x="191.0" y="1537.0" type="line"/>
      <point x="191.0" y="1335.0" type="line"/>
      <point x="847.0" y="1335.0" type="line"/>
      <point x="847.0" y="1537.0" type="line"/>
    </contour>
    <contour>
      <point x="674.0" y="1537.0" type="line"/>
      <point x="674.0" y="872.0" type="line"/>
      <point x="874.0" y="872.0" type="line"/>
      <point x="874.0" y="1537.0" type="line"/>
    </contour>
    <contour>
      <point x="175.0" y="1079.0" type="line"/>
      <point x="175.0" y="868.0" type="line"/>
      <point x="862.0" y="868.0" type="line"/>
      <point x="862.0" y="1079.0" type="line"/>
    </contour>
    <contour>
      <point x="314.0" y="874.0" type="line"/>
      <point x="716.0" y="0.0" type="line"/>
      <point x="956.0" y="0.0" type="line"/>
      <point x="541.0" y="872.0" type="line"/>
    </contour>
  </outline>
</glyph>
<glyph name="S" format="2">
  <advance width="1024"/>
  <unicode hex="0053"/>
  <outline>
    <contour>
      <point x="146.0" y="1537.0" type="line"/>
      <point x="146.0" y="1336.0" type="line"/>
      <point x="744.0" y="1336.0" type="line"/>
      <point x="744.0" y="1537.0" type="line"/>
    </contour>
    <contour>
      <point x="146.0" y="1542.0" type="line"/>
      <point x="146.0" y="1028.0" type="line"/>
      <point x="348.0" y="1028.0" type="line"/>
      <point x="348.0" y="1542.0" type="line"/>
    </contour>
    <contour>
      <point x="174.0" y="199.0" type="line"/>
      <point x="174.0" y="0.0" type="line"/>
      <point x="882.0" y="0.0" type="line"/>
      <point x="882.0" y="199.0" type="line"/>
    </contour>
    <contour>
      <point x="717.0" y="0.0" type="line"/>
      <point x="918.0" y="0.0" type="line"/>
      <point x="918.0" y="355.0" type="line"/>
      <point x="717.0" y="355.0" type="line"/>
    </contour>
    <contour>
      <point x="146.0" y="1028.0" type="line"/>
      <point x="717.0" y="355.0" type="line"/>
      <point x="918.0" y="355.0" type="line"/>
      <point x="348.0" y="1028.0" type="line"/>
    </contour>
  </outline>
</glyph>
<glyph name="T" format="2">
  <advance width="1024"/>
  <unicode hex="0054"/>
  <outline>
    <contour>
      <point x="118" y="1549" type="line"/>
      <point x="118" y="1259" type="line"/>
      <point x="892" y="1259" type="line"/>
      <point x="892" y="1549" type="line"/>
    </contour>
    <contour>
      <point x="379" y="1442" type="line"/>
      <point x="379" y="12" type="line"/>
      <point x="623" y="12" type="line"/>
      <point x="623" y="1442" type="line"/>
    </contour>
  </outline>
</glyph>
<glyph name="U" format="2">
	<unicode hex="0055"/>
	<advance width="1024"/>
	<outline>
		<contour>
			<point x="157" y="1537" type="line"/>
			<point x="157" y="0" type="line"/>
			<point x="357" y="0" type="line"/>
			<point x="357" y="1537" type="line"/>
		</contour>
		<contour>
			<point x="668" y="1537" type="line"/>
			<point x="668" y="0" type="line"/>
			<point x="867" y="0" type="line"/>
			<point x="867" y="1537" type="line"/>
		</contour>
		<contour>
			<point x="204" y="200" type="line"/>
			<point x="204" y="0" type="line"/>
			<point x="824" y="0" type="line"/>
			<point x="824" y="200" type="line"/>
		</contour>
	</outline>
	<anchor name="top" x="508" y="1642"/>
	<anchor name="base" x="536" y="-94"/>
</glyph>
<glyph name="V" format="2">
  <advance width="1024"/>
  <unicode hex="0056"/>
  <outline>
    <contour>
      <point x="92" y="1533" type="line"/>
      <point x="324" y="0" type="line"/>
      <point x="573" y="0" type="line"/>
      <point x="277" y="1533" type="line"/>
    </contour>
    <contour>
      <point x="718" y="1529" type="line"/>
      <point x="477" y="1" type="line"/>
      <point x="684" y="-2" type="line"/>
      <point x="903" y="1529" type="line"/>
    </contour>
  </outline>
</glyph>
<glyph name="W" format="2">
  <advance width="1024"/>
  <unicode hex="0057"/>
  <outline>
    <contour>
      <point x="104.0" y="1548.0" type="line"/>
      <point x="104.0" y="0.0" type="line"/>
      <point x="305.0" y="0.0" type="line"/>
      <point x="305.0" y="1548.0" type="line"/>
    </contour>
    <contour>
      <point x="721.0" y="1548.0" type="line"/>
      <point x="721.0" y="12.0" type="line"/>
      <point x="922.0" y="12.0" type="line"/>
      <point x="922.0" y="1548.0" type="line"/>
    </contour>
    <contour>
      <point x="413.0" y="1028.0" type="line"/>
      <point x="413.0" y="0.0" type="line"/>
      <point x="614.0" y="0.0" type="line"/>
      <point x="614.0" y="1028.0" type="line"/>
    </contour>
    <contour>
      <point x="103.0" y="201.0" type="line"/>
      <point x="103.0" y="0.0" type="line"/>
      <point x="922.0" y="0.0" type="line"/>
      <point x="922.0" y="201.0" type="line"/>
    </contour>
  </outline>
</glyph>
<glyph name="X" format="2">
  <advance width="1024"/>
  <unicode hex="0058"/>
  <outline>
    <contour>
      <point x="91.0" y="1548.0" type="line"/>
      <point x="733.0" y="0.0" type="line"/>
      <point x="933.0" y="0.0" type="line"/>
      <point x="290.0" y="1548.0" type="line"/>
    </contour>
    <contour>
      <point x="94.0" y="6.0" type="line"/>
      <point x="295.0" y="6.0" type="line"/>
      <point x="925.0" y="1548.0" type="line"/>
      <point x="726.0" y="1548.0" type="line"/>
    </contour>
  </outline>
</glyph>
<glyph name="Y" format="2">
  <advance width="1024"/>
  <unicode hex="0059"/>
  <outline>
    <contour>
      <point x="411" y="896" type="line"/>
      <point x="416" y="-2" type="line"/>
      <point x="618" y="-1" type="line"/>
      <point x="613" y="897" type="line"/>
    </contour>
    <contour>
      <point x="160" y="1547" type="line"/>
      <point x="160" y="859" type="line"/>
      <point x="360" y="859" type="line"/>
      <point x="360" y="1547" type="line"/>
    </contour>
    <contour>
      <point x="665" y="1548" type="line"/>
      <point x="663" y="859" type="line"/>
      <point x="864" y="859" type="line"/>
      <point x="864" y="1547" type="line"/>
    </contour>
    <contour>
      <point x="228" y="1019" type="line"/>
      <point x="228" y="859" type="line"/>
      <point x="774" y="859" type="line"/>
      <point x="774" y="1019" type="line"/>
    </contour>
  </outline>
</glyph>
<glyph name="Z" format="2">
  <advance width="1024"/>
  <unicode hex="005A"/>
  <outline>
    <contour>
      <point x="97.0" y="1548.0" type="line"/>
      <point x="97.0" y="1336.0" type="line"/>
      <point x="931.0" y="1336.0" type="line"/>
      <point x="931.0" y="1548.0" type="line"/>
    </contour>
    <contour>
      <point x="98.0" y="212.0" type="line"/>
      <point x="98.0" y="0.0" type="line"/>
      <point x="926.0" y="0.0" type="line"/>
      <point x="926.0" y="212.0" type="line"/>
    </contour>
    <contour>
      <point x="670.0" y="1335.0" type="line"/>
      <point x="98.0" y="211.0" type="line"/>
      <point x="305.0" y="211.0" type="line"/>
      <point x="915.0" y="1335.0" type="line"/>
    </contour>
  </outline>
</glyph>
<glyph name="bracketleft" format="2">
  <advance width="1024"/>
  <unicode hex="005B"/>
  <outline>
    <contour>
      <point x="162" y="1542" type="line"/>
      <point x="162" y="-242" type="line"/>
      <point x="284" y="-242" type="line"/>
      <point x="284" y="1542" type="line"/>
    </contour>
    <contour>
      <point x="216" y="1543" type="line"/>
      <point x="216" y="1416" type="line"/>
      <point x="425" y="1416" type="line"/>
      <point x="425" y="1543" type="line"/>
    </contour>
    <contour>
      <point x="216" y="-91" type="line"/>
      <point x="216" y="-242" type="line"/>
      <point x="430" y="-242" type="line"/>
      <point x="430" y="-91" type="line"/>
    </contour>
  </outline>
</glyph>
<glyph name="backslash" format="2">
  <advance width="1024"/>
  <unicode hex="005C"/>
  <outline>
    <contour>
      <point x="168.0" y="1441.0" type="line"/>
      <point x="795.0" y="-13.0" type="line"/>
      <point x="986.0" y="65.0" type="line"/>
      <point x="360.0" y="1519.0" type="line"/>
    </contour>
  </outline>
</glyph>
<glyph name="bracketright" format="2">
  <advance width="1024"/>
  <unicode hex="005D"/>
  <outline>
    <contour>
      <point x="366" y="1542" type="line"/>
      <point x="366" y="-242" type="line"/>
      <point x="488" y="-242" type="line"/>
      <point x="488" y="1542" type="line"/>
    </contour>
    <contour>
      <point x="216" y="1543" type="line"/>
      <point x="216" y="1416" type="line"/>
      <point x="425" y="1416" type="line"/>
      <point x="425" y="1543" type="line"/>
    </contour>
    <contour>
      <point x="216" y="-91" type="line"/>
      <point x="216" y="-242" type="line"/>
      <point x="430" y="-242" type="line"/>
      <point x="430" y="-91" type="line"/>
    </contour>
  </outline>
</glyph>
<glyph name="asciicircum" format="2">
  <advance width="1024"/>
  <unicode hex="005E"/>
  <outline>
    <contour>
      <point x="607.0" y="1023.0" type="line"/>
      <point x="458.0" y="1023.0" type="line"/>
      <point x="193.0" y="407.0" type="line"/>
      <point x="343.0" y="345.0" type="line"/>
    </contour>
    <contour>
      <point x="464.0" y="904.0" type="line"/>
      <point x="720.0" y="343.0" type="line"/>
      <point x="870.0" y="400.0" type="line"/>
      <point x="607.0" y="1023.0" type="line"/>
    </contour>
  </outline>
</glyph>
<glyph name="underscore" format="2">
  <advance width="1024"/>
  <unicode hex="005F"/>
  <outline>
    <contour>
      <point x="-5" y="-5" type="line"/>
      <point x="-5" y="-71" type="line"/>
      <point x="1019" y="-71" type="line"/>
      <point x="1019" y="-5" type="line"/>
    </contour>
  </outline>
</glyph>
<glyph name="grave" format="2">
  <advance width="1024"/>
  <unicode hex="0060"/>
  <outline>
    <contour>
      <point x="266.0" y="1358.0" type="line"/>
      <point x="411.0" y="1057.0" type="line"/>
      <point x="560.0" y="1129.0" type="line"/>
      <point x="414.0" y="1430.0" type="line"/>
    </contour>
  </outline>
</glyph>
<glyph name="a" format="2">
  <advance width="1024"/>
  <unicode hex="0061"/>
  <anchor x="500" y="1134" name="top"/>
  <anchor x="524" y="-74" name="base"/>
  <outline>
    <contour>
      <point x="168" y="1023" type="line"/>
      <point x="168" y="824" type="line"/>
      <point x="774" y="824" type="line"/>
      <point x="774" y="1023" type="line"/>
    </contour>
    <contour>
      <point x="661" y="1023" type="line"/>
      <point x="661" y="0" type="line"/>
      <point x="855" y="0" type="line"/>
      <point x="855" y="1023" type="line"/>
    </contour>
    <contour>
      <point x="172" y="599" type="line"/>
      <point x="172" y="400" type="line"/>
      <point x="796" y="400" type="line"/>
      <point x="796" y="599" type="line"/>
    </contour>
    <contour>
      <point x="172" y="575" type="line"/>
      <point x="172" y="0" type="line"/>
      <point x="373" y="0" type="line"/>
      <point x="373" y="575" type="line"/>
    </contour>
    <contour>
      <point x="172" y="201" type="line"/>
      <point x="172" y="0" type="line"/>
      <point x="856" y="0" type="line"/>
      <point x="856" y="201" type="line"/>
    </contour>
  </outline>
</glyph>
<glyph name="b" format="2">
  <advance width="1024"/>
  <unicode hex="0062"/>
  <outline>
    <contour>
      <point x="223" y="1536" type="line"/>
      <point x="223" y="1" type="line"/>
      <point x="406" y="1" type="line"/>
      <point x="406" y="1536" type="line"/>
    </contour>
    <contour>
      <point x="320" y="1033" type="line"/>
      <point x="320" y="814" type="line"/>
      <point x="838" y="814" type="line"/>
      <point x="838" y="1033" type="line"/>
    </contour>
    <contour>
      <point x="778" y="1033" type="line"/>
      <point x="778" y="0" type="line"/>
      <point x="977" y="0" type="line"/>
      <point x="977" y="1033" type="line"/>
    </contour>
    <contour>
      <point x="348" y="178" type="line"/>
      <point x="348" y="1" type="line"/>
      <point x="898" y="1" type="line"/>
      <point x="898" y="178" type="line"/>
    </contour>
  </outline>
</glyph>
<glyph name="c" format="2">
  <advance width="1024"/>
  <unicode hex="0063"/>
  <outline>
    <contour>
      <point x="252" y="1023" type="line"/>
      <point x="254" y="822" type="line"/>
      <point x="946" y="822" type="line"/>
      <point x="948" y="1027" type="line"/>
    </contour>
    <contour>
      <point x="254" y="984" type="line"/>
      <point x="254" y="-1" type="line"/>
      <point x="456" y="0" type="line"/>
      <point x="456" y="984" type="line"/>
    </contour>
    <contour>
      <point x="360" y="197" type="line"/>
      <point x="360" y="4" type="line"/>
      <point x="942" y="0" type="line"/>
      <point x="942" y="201" type="line"/>
    </contour>
  </outline>
</glyph>
<glyph name="d" format="2">
  <advance width="1024"/>
  <unicode hex="0064"/>
  <outline>
    <contour>
      <point x="692.0" y="1527.0" type="line"/>
      <point x="692.0" y="0.0" type="line"/>
      <point x="893.0" y="0.0" type="line"/>
      <point x="893.0" y="1527.0" type="line"/>
    </contour>
    <contour>
      <point x="228.0" y="1023.0" type="line"/>
      <point x="228.0" y="822.0" type="line"/>
      <point x="781.0" y="822.0" type="line"/>
      <point x="781.0" y="1023.0" type="line"/>
    </contour>
    <contour>
      <point x="132.0" y="1023.0" type="line"/>
      <point x="132.0" y="0.0" type="line"/>
      <point x="333.0" y="0.0" type="line"/>
      <point x="333.0" y="1023.0" type="line"/>
    </contour>
    <contour>
      <point x="228.0" y="195.0" type="line"/>
      <point x="228.0" y="0.0" type="line"/>
      <point x="845.0" y="0.0" type="line"/>
      <point x="845.0" y="195.0" type="line"/>
    </contour>
  </outline>
</glyph>
<glyph name="e" format="2">
  <advance width="1024"/>
  <unicode hex="0065"/>
  <outline>
    <contour>
      <point x="219" y="1021" type="line"/>
      <point x="227" y="812" type="line"/>
      <point x="851" y="812" type="line"/>
      <point x="854" y="1024" type="line"/>
    </contour>
    <contour>
      <point x="169" y="1024" type="line"/>
      <point x="165" y="-1" type="line"/>
      <point x="372" y="1" type="line"/>
      <point x="371" y="1022" type="line"/>
    </contour>
    <contour>
      <point x="271" y="197" type="line"/>
      <point x="270" y="0" type="line"/>
      <point x="853" y="0" type="line"/>
      <point x="853" y="201" type="line"/>
    </contour>
    <contour>
      <point x="239" y="625" type="line"/>
      <point x="247" y="445" type="line"/>
      <point x="825" y="446" type="line"/>
      <point x="829" y="625" type="line"/>
    </contour>
    <contour>
      <point x="657" y="994" type="line"/>
      <point x="653" y="444" type="line"/>
      <point x="862" y="445" type="line"/>
      <point x="852" y="993" type="line"/>
    </contour>
  </outline>
</glyph>
<glyph name="f" format="2">
  <advance width="1024"/>
  <unicode hex="0066"/>
  <outline>
    <contour>
      <point x="316.0" y="1023.0" type="line"/>
      <point x="316.0" y="-406.0" type="line"/>
      <point x="516.0" y="-406.0" type="line"/>
      <point x="516.0" y="1023.0" type="line"/>
    </contour>
    <contour>
      <point x="378.0" y="1023.0" type="line"/>
      <point x="378.0" y="831.0" type="line"/>
      <point x="860.0" y="831.0" type="line"/>
      <point x="860.0" y="1023.0" type="line"/>
    </contour>
    <contour>
      <point x="132.0" y="559.0" type="line"/>
      <point x="132.0" y="356.0" type="line"/>
      <point x="763.0" y="356.0" type="line"/>
      <point x="763.0" y="559.0" type="line"/>
    </contour>
  </outline>
</glyph>
<glyph name="g" format="2">
  <advance width="1024"/>
  <unicode hex="0067"/>
  <anchor x="578" y="1176" name="top"/>
  <anchor x="570" y="-460" name="base"/>
  <outline>
    <contour>
      <point x="297" y="1023" type="line"/>
      <point x="297" y="0" type="line"/>
      <point x="489" y="0" type="line"/>
      <point x="489" y="1023" type="line"/>
    </contour>
    <contour>
      <point x="337" y="1023" type="line"/>
      <point x="337" y="823" type="line"/>
      <point x="853" y="823" type="line"/>
      <point x="853" y="1023" type="line"/>
    </contour>
    <contour>
      <point x="681" y="1023" type="line"/>
      <point x="681" y="-411" type="line"/>
      <point x="875" y="-411" type="line"/>
      <point x="875" y="1023" type="line"/>
    </contour>
    <contour>
      <point x="360" y="198" type="line"/>
      <point x="360" y="0" type="line"/>
      <point x="817" y="0" type="line"/>
      <point x="817" y="198" type="line"/>
    </contour>
    <contour>
      <point x="291" y="-214" type="line"/>
      <point x="291" y="-413" type="line"/>
      <point x="826" y="-413" type="line"/>
      <point x="826" y="-214" type="line"/>
    </contour>
  </outline>
</glyph>
<glyph name="h" format="2">
  <advance width="1024"/>
  <unicode hex="0068"/>
  <outline>
    <contour>
      <point x="147" y="1525" type="line"/>
      <point x="147" y="6" type="line"/>
      <point x="342" y="6" type="line"/>
      <point x="342" y="1525" type="line"/>
    </contour>
    <contour>
      <point x="282" y="1028" type="line"/>
      <point x="282" y="813" type="line"/>
      <point x="813" y="813" type="line"/>
      <point x="813" y="1028" type="line"/>
    </contour>
    <contour>
      <point x="618" y="1028" type="line"/>
      <point x="618" y="1" type="line"/>
      <point x="823" y="1" type="line"/>
      <point x="823" y="1028" type="line"/>
    </contour>
  </outline>
</glyph>
<glyph name="i" format="2">
  <advance width="1024"/>
  <unicode hex="0069"/>
  <outline>
    <contour>
      <point x="411.0" y="1018.0" type="line"/>
      <point x="411.0" y="139.0" type="line"/>
      <point x="613.0" y="139.0" type="line"/>
      <point x="613.0" y="1018.0" type="line"/>
    </contour>
    <contour>
      <point x="141.0" y="204.0" type="line"/>
      <point x="141.0" y="6.0" type="line"/>
      <point x="883.0" y="6.0" type="line"/>
      <point x="883.0" y="204.0" type="line"/>
    </contour>
    <contour>
      <point x="347.0" y="1369.0" type="line"/>
      <point x="347.0" y="1168.0" type="line"/>
      <point x="545.0" y="1168.0" type="line"/>
      <point x="545.0" y="1369.0" type="line"/>
    </contour>
    <contour>
      <point x="191.0" y="1018.0" type="line"/>
      <point x="191.0" y="818.0" type="line"/>
      <point x="567.0" y="818.0" type="line"/>
      <point x="567.0" y="1018.0" type="line"/>
    </contour>
  </outline>
</glyph>
<glyph name="j" format="2">
  <advance width="1024"/>
  <unicode hex="006A"/>
  <outline>
    <contour>
      <point x="556" y="1024" type="line"/>
      <point x="556" y="-411" type="line"/>
      <point x="803" y="-411" type="line"/>
      <point x="803" y="1024" type="line"/>
    </contour>
    <contour>
      <point x="174" y="-209" type="line"/>
      <point x="174" y="-409" type="line"/>
      <point x="704" y="-409" type="line"/>
      <point x="704" y="-209" type="line"/>
    </contour>
    <contour>
      <point x="175" y="-6" type="line"/>
      <point x="175" y="-351" type="line"/>
      <point x="341" y="-351" type="line"/>
      <point x="341" y="-6" type="line"/>
    </contour>
    <contour>
      <point x="532" y="1413" type="line"/>
      <point x="532" y="1147" type="line"/>
      <point x="797" y="1147" type="line"/>
      <point x="797" y="1413" type="line"/>
    </contour>
  </outline>
</glyph>
<glyph name="k" format="2">
  <advance width="1024"/>
  <unicode hex="006B"/>
  <outline>
    <contour>
      <point x="118.0" y="1537.0" type="line"/>
      <point x="118.0" y="5.0" type="line"/>
      <point x="318.0" y="5.0" type="line"/>
      <point x="318.0" y="1537.0" type="line"/>
    </contour>
    <contour>
      <point x="167.0" y="516.0" type="line"/>
      <point x="216.0" y="298.0" type="line"/>
      <point x="903.0" y="1023.0" type="line"/>
      <point x="686.0" y="1023.0" type="line"/>
    </contour>
    <contour>
      <point x="424.0" y="631.0" type="line"/>
      <point x="272.0" y="483.0" type="line"/>
      <point x="722.0" y="0.0" type="line"/>
      <point x="960.0" y="0.0" type="line"/>
    </contour>
  </outline>
</glyph>
<glyph name="l" format="2">
  <advance width="1024"/>
  <unicode hex="006C"/>
  <outline>
    <contour>
      <point x="195.0" y="209.0" type="line"/>
      <point x="195.0" y="9.0" type="line"/>
      <point x="829.0" y="9.0" type="line"/>
      <point x="829.0" y="209.0" type="line"/>
    </contour>
    <contour>
      <point x="412.0" y="1548.0" type="line"/>
      <point x="412.0" y="86.0" type="line"/>
      <point x="612.0" y="86.0" type="line"/>
      <point x="612.0" y="1548.0" type="line"/>
    </contour>
    <contour>
      <point x="256.0" y="1548.0" type="line"/>
      <point x="256.0" y="1349.0" type="line"/>
      <point x="491.0" y="1349.0" type="line"/>
      <point x="491.0" y="1548.0" type="line"/>
    </contour>
  </outline>
</glyph>
<glyph name="m" format="2">
  <advance width="1024"/>
  <unicode hex="006D"/>
  <outline>
    <contour>
      <point x="110" y="993" type="line"/>
      <point x="110" y="1" type="line"/>
      <point x="263" y="1" type="line"/>
      <point x="263" y="993" type="line"/>
    </contour>
    <contour>
      <point x="457" y="972" type="line"/>
      <point x="457" y="-2" type="line"/>
      <point x="610" y="-2" type="line"/>
      <point x="610" y="972" type="line"/>
    </contour>
    <contour>
      <point x="787" y="976" type="line"/>
      <point x="787" y="1" type="line"/>
      <point x="940" y="1" type="line"/>
      <point x="940" y="976" type="line"/>
    </contour>
    <contour>
      <point x="33" y="1023" type="line"/>
      <point x="34" y="883" type="line"/>
      <point x="940" y="887" type="line"/>
      <point x="939" y="1027" type="line"/>
    </contour>
  </outline>
</glyph>
<glyph name="n" format="2">
  <advance width="1024"/>
  <unicode hex="006E"/>
  <outline>
    <contour>
      <point x="340" y="990" type="line"/>
      <point x="340" y="-2" type="line"/>
      <point x="493" y="-2" type="line"/>
      <point x="493" y="990" type="line"/>
    </contour>
    <contour>
      <point x="787" y="976" type="line"/>
      <point x="787" y="1" type="line"/>
      <point x="940" y="1" type="line"/>
      <point x="940" y="976" type="line"/>
    </contour>
    <contour>
      <point x="161" y="1023" type="line"/>
      <point x="162" y="883" type="line"/>
      <point x="940" y="887" type="line"/>
      <point x="939" y="1027" type="line"/>
    </contour>
  </outline>
</glyph>
<glyph name="o" format="2">
  <advance width="1024"/>
  <unicode hex="006F"/>
  <outline>
    <contour>
      <point x="108" y="1024" type="line"/>
      <point x="106" y="0" type="line"/>
      <point x="334" y="0" type="line"/>
      <point x="332" y="1022" type="line"/>
    </contour>
    <contour>
      <point x="696" y="1024" type="line"/>
      <point x="696" y="0" type="line"/>
      <point x="925" y="0" type="line"/>
      <point x="925" y="1024" type="line"/>
    </contour>
    <contour>
      <point x="231" y="1021" type="line"/>
      <point x="231" y="813" type="line"/>
      <point x="816" y="813" type="line"/>
      <point x="817" y="1024" type="line"/>
    </contour>
    <contour>
      <point x="235" y="215" type="line"/>
      <point x="235" y="1" type="line"/>
      <point x="807" y="1" type="line"/>
      <point x="807" y="215" type="line"/>
    </contour>
  </outline>
</glyph>
<glyph name="p" format="2">
  <advance width="1024"/>
  <unicode hex="0070"/>
  <outline>
    <contour>
      <point x="173.0" y="1203.0" type="line"/>
      <point x="173.0" y="-406.0" type="line"/>
      <point x="373.0" y="-406.0" type="line"/>
      <point x="373.0" y="1203.0" type="line"/>
    </contour>
    <contour>
      <point x="271.0" y="1023.0" type="line"/>
      <point x="271.0" y="821.0" type="line"/>
      <point x="810.0" y="821.0" type="line"/>
      <point x="810.0" y="1023.0" type="line"/>
    </contour>
    <contour>
      <point x="275.0" y="202.0" type="line"/>
      <point x="275.0" y="0.0" type="line"/>
      <point x="815.0" y="0.0" type="line"/>
      <point x="815.0" y="202.0" type="line"/>
    </contour>
    <contour>
      <point x="613.0" y="876.0" type="line"/>
      <point x="613.0" y="175.0" type="line"/>
      <point x="811.0" y="175.0" type="line"/>
      <point x="811.0" y="876.0" type="line"/>
    </contour>
  </outline>
</glyph>
<glyph name="q" format="2">
  <advance width="1024"/>
  <unicode hex="0071"/>
  <outline>
    <contour>
      <point x="662.0" y="1201.0" type="line"/>
      <point x="662.0" y="-406.0" type="line"/>
      <point x="861.0" y="-406.0" type="line"/>
      <point x="861.0" y="1201.0" type="line"/>
    </contour>
    <contour>
      <point x="189.0" y="1023.0" type="line"/>
      <point x="189.0" y="823.0" type="line"/>
      <point x="838.0" y="823.0" type="line"/>
      <point x="838.0" y="1023.0" type="line"/>
    </contour>
    <contour>
      <point x="190.0" y="203.0" type="line"/>
      <point x="190.0" y="0.0" type="line"/>
      <point x="806.0" y="0.0" type="line"/>
      <point x="806.0" y="203.0" type="line"/>
    </contour>
    <contour>
      <point x="188.0" y="855.0" type="line"/>
      <point x="188.0" y="107.0" type="line"/>
      <point x="388.0" y="107.0" type="line"/>
      <point x="388.0" y="855.0" type="line"/>
    </contour>
    <contour>
      <point x="701.0" y="-268.0" type="line"/>
      <point x="701.0" y="-406.0" type="line"/>
      <point x="937.0" y="-406.0" type="line"/>
      <point x="937.0" y="-268.0" type="line"/>
    </contour>
  </outline>
</glyph>
<glyph name="r" format="2">
  <advance width="1024"/>
  <unicode hex="0072"/>
  <outline>
    <contour>
      <point x="165" y="1013" type="line"/>
      <point x="165" y="850" type="line"/>
      <point x="898" y="850" type="line"/>
      <point x="898" y="1013" type="line"/>
    </contour>
    <contour>
      <point x="380" y="954" type="line"/>
      <point x="380" y="-2" type="line"/>
      <point x="580" y="-2" type="line"/>
      <point x="580" y="954" type="line"/>
    </contour>
    <contour>
      <point x="735" y="976" type="line"/>
      <point x="735" y="650" type="line"/>
      <point x="898" y="650" type="line"/>
      <point x="898" y="976" type="line"/>
    </contour>
  </outline>
</glyph>
<glyph name="s" format="2">
  <advance width="1024"/>
  <unicode hex="0073"/>
  <outline>
    <contour>
      <point x="186.0" y="1023.0" type="line"/>
      <point x="186.0" y="826.0" type="line"/>
      <point x="795.0" y="826.0" type="line"/>
      <point x="795.0" y="1023.0" type="line"/>
    </contour>
    <contour>
      <point x="186.0" y="1023.0" type="line"/>
      <point x="186.0" y="736.0" type="line"/>
      <point x="386.0" y="736.0" type="line"/>
      <point x="386.0" y="1023.0" type="line"/>
    </contour>
    <contour>
      <point x="187.0" y="201.0" type="line"/>
      <point x="187.0" y="0.0" type="line"/>
      <point x="792.0" y="0.0" type="line"/>
      <point x="792.0" y="201.0" type="line"/>
    </contour>
    <contour>
      <point x="591.0" y="293.0" type="line"/>
      <point x="591.0" y="12.0" type="line"/>
      <point x="791.0" y="12.0" type="line"/>
      <point x="791.0" y="293.0" type="line"/>
    </contour>
    <contour>
      <point x="187.0" y="736.0" type="line"/>
      <point x="591.0" y="293.0" type="line"/>
      <point x="791.0" y="293.0" type="line"/>
      <point x="387.0" y="736.0" type="line"/>
    </contour>
  </outline>
</glyph>
<glyph name="t" format="2">
  <advance width="1024"/>
  <unicode hex="0074"/>
  <outline>
    <contour>
      <point x="410" y="1545" type="line"/>
      <point x="410" y="1" type="line"/>
      <point x="611" y="1" type="line"/>
      <point x="610" y="1545" type="line"/>
    </contour>
    <contour>
      <point x="418" y="199" type="line"/>
      <point x="418" y="0" type="line"/>
      <point x="809" y="0" type="line"/>
      <point x="809" y="199" type="line"/>
    </contour>
    <contour>
      <point x="174" y="1024" type="line"/>
      <point x="175" y="824" type="line"/>
      <point x="849" y="824" type="line"/>
      <point x="848" y="1025" type="line"/>
    </contour>
  </outline>
</glyph>
<glyph name="u" format="2">
  <advance width="1024"/>
  <unicode hex="0075"/>
  <outline>
    <contour>
      <point x="139.0" y="1023.0" type="line"/>
      <point x="139.0" y="0.0" type="line"/>
      <point x="340.0" y="0.0" type="line"/>
      <point x="340.0" y="1023.0" type="line"/>
    </contour>
    <contour>
      <point x="571.0" y="1023.0" type="line"/>
      <point x="571.0" y="0.0" type="line"/>
      <point x="771.0" y="0.0" type="line"/>
      <point x="771.0" y="1023.0" type="line"/>
    </contour>
    <contour>
      <point x="186.0" y="200.0" type="line"/>
      <point x="186.0" y="0.0" type="line"/>
      <point x="888.0" y="0.0" type="line"/>
      <point x="888.0" y="200.0" type="line"/>
    </contour>
  </outline>
</glyph>
<glyph name="v" format="2">
  <advance width="1024"/>
  <unicode hex="0076"/>
  <outline>
    <contour>
      <point x="165" y="1021" type="line"/>
      <point x="324" y="0" type="line"/>
      <point x="573" y="0" type="line"/>
      <point x="350" y="1023" type="line"/>
    </contour>
    <contour>
      <point x="637" y="1025" type="line"/>
      <point x="477" y="1" type="line"/>
      <point x="684" y="-2" type="line"/>
      <point x="827" y="1021" type="line"/>
    </contour>
  </outline>
</glyph>
<glyph name="w" format="2">
  <advance width="1024"/>
  <unicode hex="0077"/>
  <outline>
    <contour>
      <point x="103.0" y="1023.0" type="line"/>
      <point x="103.0" y="0.0" type="line"/>
      <point x="302.0" y="0.0" type="line"/>
      <point x="302.0" y="1023.0" type="line"/>
    </contour>
    <contour>
      <point x="722.0" y="1028.0" type="line"/>
      <point x="722.0" y="12.0" type="line"/>
      <point x="921.0" y="12.0" type="line"/>
      <point x="921.0" y="1028.0" type="line"/>
    </contour>
    <contour>
      <point x="408.0" y="610.0" type="line"/>
      <point x="408.0" y="0.0" type="line"/>
      <point x="609.0" y="0.0" type="line"/>
      <point x="609.0" y="610.0" type="line"/>
    </contour>
    <contour>
      <point x="102.0" y="276.0" type="line"/>
      <point x="102.0" y="0.0" type="line"/>
      <point x="921.0" y="0.0" type="line"/>
      <point x="921.0" y="276.0" type="line"/>
    </contour>
  </outline>
</glyph>
<glyph name="x" format="2">
  <advance width="1024"/>
  <unicode hex="0078"/>
  <outline>
    <contour>
      <point x="91" y="0" type="line"/>
      <point x="292" y="0" type="line"/>
      <point x="927" y="1023" type="line"/>
      <point x="728" y="1023" type="line"/>
    </contour>
    <contour>
      <point x="93" y="1023" type="line"/>
      <point x="735" y="0" type="line"/>
      <point x="934" y="0" type="line"/>
      <point x="295" y="1023" type="line"/>
    </contour>
  </outline>
</glyph>
<glyph name="y" format="2">
  <advance width="1024"/>
  <unicode hex="0079"/>
  <outline>
    <contour>
      <point x="680.0" y="1023.0" type="line"/>
      <point x="680.0" y="-406.0" type="line"/>
      <point x="880.0" y="-406.0" type="line"/>
      <point x="880.0" y="1023.0" type="line"/>
    </contour>
    <contour>
      <point x="147.0" y="-211.0" type="line"/>
      <point x="147.0" y="-406.0" type="line"/>
      <point x="864.0" y="-406.0" type="line"/>
      <point x="864.0" y="-211.0" type="line"/>
    </contour>
    <contour>
      <point x="147.0" y="1023.0" type="line"/>
      <point x="147.0" y="264.0" type="line"/>
      <point x="347.0" y="264.0" type="line"/>
      <point x="347.0" y="1023.0" type="line"/>
    </contour>
    <contour>
      <point x="147.0" y="464.0" type="line"/>
      <point x="147.0" y="264.0" type="line"/>
      <point x="765.0" y="264.0" type="line"/>
      <point x="765.0" y="464.0" type="line"/>
    </contour>
  </outline>
</glyph>
<glyph name="z" format="2">
  <advance width="1024"/>
  <unicode hex="007A"/>
  <outline>
    <contour>
      <point x="98" y="1027" type="line"/>
      <point x="98" y="826" type="line"/>
      <point x="926" y="826" type="line"/>
      <point x="926" y="1027" type="line"/>
    </contour>
    <contour>
      <point x="98" y="201" type="line"/>
      <point x="98" y="0" type="line"/>
      <point x="926" y="0" type="line"/>
      <point x="926" y="201" type="line"/>
    </contour>
    <contour>
      <point x="634" y="826" type="line"/>
      <point x="98" y="201" type="line"/>
      <point x="404" y="201" type="line"/>
      <point x="926" y="826" type="line"/>
    </contour>
  </outline>
</glyph>
<glyph name="braceleft" format="2">
  <advance width="1024"/>
  <unicode hex="007B"/>
  <outline>
    <contour>
      <point x="421.0" y="1548.0" type="line"/>
      <point x="421.0" y="838.0" type="line"/>
      <point x="567.0" y="838.0" type="line"/>
      <point x="567.0" y="1548.0" type="line"/>
    </contour>
    <contour>
      <point x="433.0" y="424.0" type="line"/>
      <point x="433.0" y="-286.0" type="line"/>
      <point x="579.0" y="-286.0" type="line"/>
      <point x="579.0" y="424.0" type="line"/>
    </contour>
    <contour>
      <point x="132.0" y="690.0" type="line"/>
      <point x="132.0" y="630.0" type="line"/>
      <point x="567.0" y="838.0" type="line"/>
      <point x="421.0" y="838.0" type="line"/>
    </contour>
    <contour>
      <point x="132.0" y="690.0" type="line"/>
      <point x="132.0" y="630.0" type="line"/>
      <point x="431.0" y="425.0" type="line"/>
      <point x="580.0" y="425.0" type="line"/>
    </contour>
    <contour>
      <point x="422.0" y="1603.0" type="line"/>
      <point x="422.0" y="1452.0" type="line"/>
      <point x="690.0" y="1574.0" type="line"/>
      <point x="694.0" y="1603.0" type="line"/>
    </contour>
    <contour>
      <point x="434.0" y="-140.0" type="line"/>
      <point x="434.0" y="-287.0" type="line"/>
      <point x="710.0" y="-287.0" type="line"/>
      <point x="710.0" y="-274.0" type="line"/>
    </contour>
  </outline>
</glyph>
<glyph name="bar" format="2">
  <advance width="1024"/>
  <unicode hex="007C"/>
  <outline>
    <contour>
      <point x="525" y="1435" type="line"/>
      <point x="525" y="-90" type="line"/>
      <point x="728" y="-90" type="line"/>
      <point x="728" y="1435" type="line"/>
    </contour>
  </outline>
</glyph>
<glyph name="braceright" format="2">
  <advance width="1024"/>
  <unicode hex="007D"/>
  <outline>
    <contour>
      <point x="437.0" y="1548.0" type="line"/>
      <point x="275.0" y="1548.0" type="line"/>
      <point x="275.0" y="838.0" type="line"/>
      <point x="437.0" y="838.0" type="line"/>
    </contour>
    <contour>
      <point x="423.0" y="424.0" type="line"/>
      <point x="263.0" y="424.0" type="line"/>
      <point x="263.0" y="-286.0" type="line"/>
      <point x="423.0" y="-286.0" type="line"/>
    </contour>
    <contour>
      <point x="710.0" y="690.0" type="line"/>
      <point x="432.0" y="838.0" type="line"/>
      <point x="271.0" y="838.0" type="line"/>
      <point x="710.0" y="630.0" type="line"/>
    </contour>
    <contour>
      <point x="710.0" y="690.0" type="line"/>
      <point x="263.0" y="424.0" type="line"/>
      <point x="423.0" y="424.0" type="line"/>
      <point x="710.0" y="630.0" type="line"/>
    </contour>
    <contour>
      <point x="438.0" y="1603.0" type="line"/>
      <point x="163.0" y="1603.0" type="line"/>
      <point x="167.0" y="1574.0" type="line"/>
      <point x="438.0" y="1452.0" type="line"/>
    </contour>
    <contour>
      <point x="408.0" y="-140.0" type="line"/>
      <point x="132.0" y="-274.0" type="line"/>
      <point x="132.0" y="-284.0" type="line"/>
      <point x="408.0" y="-284.0" type="line"/>
    </contour>
  </outline>
</glyph>
<glyph name="asciitilde" format="2">
  <advance width="1024"/>
  <unicode hex="007E"/>
  <outline>
    <contour>
      <point x="330.0" y="815.0" type="line"/>
      <point x="330.0" y="716.0" type="line"/>
      <point x="680.0" y="655.0" type="line"/>
      <point x="680.0" y="754.0" type="line"/>
    </contour>
    <contour>
      <point x="92.0" y="757.0" type="line"/>
      <point x="107.0" y="659.0" type="line"/>
      <point x="330.0" y="716.0" type="line"/>
      <point x="330.0" y="815.0" type="line"/>
    </contour>
    <contour>
      <point x="680.0" y="754.0" type="line"/>
      <point x="680.0" y="655.0" type="line"/>
      <point x="861.0" y="796.0" type="line"/>
      <point x="837.0" y="892.0" type="line"/>
    </contour>
  </outline>
</glyph>
<glyph name="exclamdown" format="2">
  <advance width="1024"/>
  <unicode hex="00A1"/>
  <outline>
    <contour>
      <point x="672.0" y="1520.0" type="line"/>
      <point x="528.0" y="1520.0" type="line"/>
      <point x="528.0" y="1272.0" type="line"/>
      <point x="672.0" y="1272.0" type="line"/>
    </contour>
    <contour>
      <point x="662.0" y="1035.0" type="line"/>
      <point x="534.0" y="1035.0" type="line"/>
      <point x="534.0" y="17.0" type="line"/>
      <point x="662.0" y="17.0" type="line"/>
    </contour>
  </outline>
</glyph>
<glyph name="cent" format="2">
  <advance width="1024"/>
  <unicode hex="00A2"/>
  <outline>
    <contour>
      <point x="691.0" y="1183.0" type="line"/>
      <point x="544.0" y="1183.0" type="line"/>
      <point x="544.0" y="-86.0" type="line"/>
      <point x="691.0" y="-86.0" type="line"/>
    </contour>
    <contour>
      <point x="164.0" y="1023.0" type="line"/>
      <point x="164.0" y="826.0" type="line"/>
      <point x="860.0" y="826.0" type="line"/>
      <point x="860.0" y="1023.0" type="line"/>
    </contour>
    <contour>
      <point x="166.0" y="984.0" type="line"/>
      <point x="166.0" y="0.0" type="line"/>
      <point x="368.0" y="0.0" type="line"/>
      <point x="368.0" y="984.0" type="line"/>
    </contour>
    <contour>
      <point x="272.0" y="201.0" type="line"/>
      <point x="272.0" y="0.0" type="line"/>
      <point x="854.0" y="0.0" type="line"/>
      <point x="854.0" y="201.0" type="line"/>
    </contour>
  </outline>
</glyph>
<glyph name="sterling" format="2">
  <advance width="1024"/>
  <unicode hex="00A3"/>
  <outline>
    <contour>
      <point x="381.0" y="1543.0" type="line"/>
      <point x="381.0" y="1344.0" type="line"/>
      <point x="672.0" y="1344.0" type="line"/>
      <point x="672.0" y="1543.0" type="line"/>
    </contour>
    <contour>
      <point x="54.0" y="770.0" type="line"/>
      <point x="54.0" y="571.0" type="line"/>
      <point x="780.0" y="571.0" type="line"/>
      <point x="780.0" y="770.0" type="line"/>
    </contour>
    <contour>
      <point x="337.0" y="1542.0" type="line"/>
      <point x="337.0" y="0.0" type="line"/>
      <point x="535.0" y="0.0" type="line"/>
      <point x="535.0" y="1542.0" type="line"/>
    </contour>
    <contour>
      <point x="162.0" y="202.0" type="line"/>
      <point x="162.0" y="0.0" type="line"/>
      <point x="888.0" y="0.0" type="line"/>
      <point x="888.0" y="202.0" type="line"/>
    </contour>
  </outline>
</glyph>
<glyph name="currency" format="2">
  <advance width="1024"/>
  <unicode hex="00A4"/>
  <outline>
    <contour>
      <point x="79" y="1202" type="line"/>
      <point x="79" y="180" type="line"/>
      <point x="279" y="180" type="line"/>
      <point x="279" y="1202" type="line"/>
    </contour>
    <contour>
      <point x="694" y="1204" type="line"/>
      <point x="694" y="180" type="line"/>
      <point x="896" y="180" type="line"/>
      <point x="896" y="1204" type="line"/>
    </contour>
    <contour>
      <point x="202" y="1204" type="line"/>
      <point x="202" y="1002" type="line"/>
      <point x="788" y="1002" type="line"/>
      <point x="788" y="1204" type="line"/>
    </contour>
    <contour>
      <point x="206" y="380" type="line"/>
      <point x="206" y="181" type="line"/>
      <point x="778" y="181" type="line"/>
      <point x="778" y="380" type="line"/>
    </contour>
    <contour>
      <point x="3.5" y="1356" type="line"/>
      <point x="3.5" y="1109" type="line"/>
      <point x="268.5" y="1109" type="line"/>
      <point x="268.5" y="1356" type="line"/>
    </contour>
    <contour>
      <point x="697.5" y="1331" type="line"/>
      <point x="697.5" y="1084" type="line"/>
      <point x="962.5" y="1084" type="line"/>
      <point x="962.5" y="1331" type="line"/>
    </contour>
    <contour>
      <point x="9.5" y="366" type="line"/>
      <point x="9.5" y="119" type="line"/>
      <point x="274.5" y="119" type="line"/>
      <point x="274.5" y="366" type="line"/>
    </contour>
    <contour>
      <point x="679.5" y="371" type="line"/>
      <point x="679.5" y="124" type="line"/>
      <point x="944.5" y="124" type="line"/>
      <point x="944.5" y="371" type="line"/>
    </contour>
  </outline>
</glyph>
<glyph name="yen" format="2">
  <advance width="1024"/>
  <unicode hex="00A5"/>
  <outline>
    <contour>
      <point x="228" y="775" type="line"/>
      <point x="228" y="615" type="line"/>
      <point x="774" y="615" type="line"/>
      <point x="774" y="775" type="line"/>
    </contour>
    <contour>
      <point x="228" y="540" type="line"/>
      <point x="228" y="380" type="line"/>
      <point x="774" y="380" type="line"/>
      <point x="774" y="540" type="line"/>
    </contour>
    <contour>
      <point x="411" y="897" type="line"/>
      <point x="411" y="0" type="line"/>
      <point x="613" y="0" type="line"/>
      <point x="613" y="897" type="line"/>
    </contour>
    <contour>
      <point x="160" y="1548" type="line"/>
      <point x="160" y="859" type="line"/>
      <point x="360" y="859" type="line"/>
      <point x="360" y="1548" type="line"/>
    </contour>
    <contour>
      <point x="665" y="1548" type="line"/>
      <point x="665" y="859" type="line"/>
      <point x="864" y="859" type="line"/>
      <point x="864" y="1548" type="line"/>
    </contour>
    <contour>
      <point x="228" y="1023" type="line"/>
      <point x="228" y="859" type="line"/>
      <point x="774" y="859" type="line"/>
      <point x="774" y="1023" type="line"/>
    </contour>
  </outline>
</glyph>
<glyph name="brokenbar" format="2">
  <advance width="1024"/>
  <unicode hex="00A6"/>
  <outline>
    <contour>
      <point x="511.0" y="-332.0" type="line"/>
      <point x="621.0" y="-332.0" type="line"/>
      <point x="621.0" y="682.0" type="line"/>
      <point x="511.0" y="682.0" type="line"/>
    </contour>
    <contour>
      <point x="514.0" y="790.0" type="line"/>
      <point x="624.0" y="790.0" type="line"/>
      <point x="624.0" y="1636.0" type="line"/>
      <point x="514.0" y="1636.0" type="line"/>
    </contour>
  </outline>
</glyph>
<glyph name="section" format="2">
	<unicode hex="00A7"/>
	<advance width="1024"/>
	<outline>
		<contour>
			<point x="146" y="1238" type="line"/>
			<point x="146" y="1035" type="line"/>
			<point x="744" y="1035" type="line"/>
			<point x="744" y="1238" type="line"/>
		</contour>
		<contour>
			<point x="146" y="1241" type="line"/>
			<point x="146" y="605" type="line"/>
			<point x="348" y="605" type="line"/>
			<point x="348" y="1241" type="line"/>
		</contour>
		<contour>
			<point x="183" y="-61" type="line"/>
			<point x="183" y="-260" type="line"/>
			<point x="891" y="-260" type="line"/>
			<point x="891" y="-61" type="line"/>
		</contour>
		<contour>
			<point x="726" y="-259" type="line"/>
			<point x="927" y="-259" type="line"/>
			<point x="927" y="95" type="line"/>
			<point x="726" y="95" type="line"/>
		</contour>
		<contour>
			<point x="146" y="605" type="line"/>
			<point x="726" y="95" type="line"/>
			<point x="927" y="95" type="line"/>
			<point x="348" y="605" type="line"/>
		</contour>
		<contour>
			<point x="146" y="1626" type="line"/>
			<point x="146" y="1423" type="line"/>
			<point x="744" y="1423" type="line"/>
			<point x="744" y="1626" type="line"/>
		</contour>
		<contour>
			<point x="146" y="1629" type="line"/>
			<point x="146" y="1237" type="line"/>
			<point x="348" y="1237" type="line"/>
			<point x="348" y="1629" type="line"/>
		</contour>
		<contour>
			<point x="174" y="286" type="line"/>
			<point x="174" y="87" type="line"/>
			<point x="882" y="87" type="line"/>
			<point x="882" y="286" type="line"/>
		</contour>
		<contour>
			<point x="717" y="88" type="line"/>
			<point x="918" y="88" type="line"/>
			<point x="918" y="442" type="line"/>
			<point x="717" y="442" type="line"/>
		</contour>
		<contour>
			<point x="146" y="1237" type="line"/>
			<point x="717" y="442" type="line"/>
			<point x="918" y="442" type="line"/>
			<point x="348" y="1237" type="line"/>
		</contour>
	</outline>
</glyph>
<glyph name="dieresis" format="2">
	<unicode hex="00A8"/>
	<advance width="1024"/>
	<outline>
		<contour>
			<point x="345" y="1030" type="line"/>
			<point x="345" y="929" type="line"/>
			<point x="457" y="929" type="line"/>
			<point x="457" y="1030" type="line"/>
		</contour>
		<contour>
			<point x="587" y="1030" type="line"/>
			<point x="587" y="929" type="line"/>
			<point x="699" y="929" type="line"/>
			<point x="699" y="1030" type="line"/>
		</contour>
	</outline>
</glyph>
<glyph name="copyright" format="2">
  <advance width="1024"/>
  <unicode hex="00A9"/>
  <outline>
    <contour>
      <point x="16" y="1540" type="line"/>
      <point x="16" y="0" type="line"/>
      <point x="217" y="0" type="line"/>
      <point x="217" y="1540" type="line"/>
    </contour>
    <contour>
      <point x="814" y="1537" type="line"/>
      <point x="814" y="0" type="line"/>
      <point x="1017" y="0" type="line"/>
      <point x="1017" y="1537" type="line"/>
    </contour>
    <contour>
      <point x="126" y="1538" type="line"/>
      <point x="126" y="1337" type="line"/>
      <point x="817" y="1337" type="line"/>
      <point x="817" y="1538" type="line"/>
    </contour>
    <contour>
      <point x="150" y="204" type="line"/>
      <point x="150" y="0" type="line"/>
      <point x="823" y="0" type="line"/>
      <point x="823" y="204" type="line"/>
    </contour>
    <contour>
      <point x="262" y="1197" type="line"/>
      <point x="262" y="996" type="line"/>
      <point x="697" y="996" type="line"/>
      <point x="697" y="1197" type="line"/>
    </contour>
    <contour>
      <point x="263" y="1154" type="line"/>
      <point x="263" y="340" type="line"/>
      <point x="432" y="340" type="line"/>
      <point x="432" y="1154" type="line"/>
    </contour>
    <contour>
      <point x="263" y="495" type="line"/>
      <point x="263" y="294" type="line"/>
      <point x="703" y="294" type="line"/>
      <point x="703" y="495" type="line"/>
    </contour>
  </outline>
</glyph>
<glyph name="ordfeminine" format="2">
  <advance width="1024"/>
  <unicode hex="00AA"/>
  <outline>
    <contour>
      <point x="168" y="1719" type="line"/>
      <point x="168" y="1519" type="line"/>
      <point x="774" y="1519" type="line"/>
      <point x="774" y="1719" type="line"/>
    </contour>
    <contour>
      <point x="661" y="1720" type="line"/>
      <point x="661" y="696" type="line"/>
      <point x="855" y="696" type="line"/>
      <point x="855" y="1720" type="line"/>
    </contour>
    <contour>
      <point x="172" y="1294" type="line"/>
      <point x="172" y="1095" type="line"/>
      <point x="796" y="1095" type="line"/>
      <point x="796" y="1294" type="line"/>
    </contour>
    <contour>
      <point x="172" y="1270" type="line"/>
      <point x="172" y="693" type="line"/>
      <point x="373" y="693" type="line"/>
      <point x="373" y="1270" type="line"/>
    </contour>
    <contour>
      <point x="170" y="896" type="line"/>
      <point x="170" y="696" type="line"/>
      <point x="860" y="696" type="line"/>
      <point x="860" y="896" type="line"/>
    </contour>
    <contour>
      <point x="77" y="562" type="line"/>
      <point x="77" y="400" type="line"/>
      <point x="945" y="400" type="line"/>
      <point x="945" y="562" type="line"/>
    </contour>
  </outline>
</glyph>
<glyph name="guillemotleft" format="2">
  <advance width="1024"/>
  <unicode hex="00AB"/>
  <outline>
    <contour>
      <point x="134.0" y="609.0" type="line"/>
      <point x="134.0" y="454.0" type="line"/>
      <point x="503.0" y="631.0" type="line"/>
      <point x="503.0" y="784.0" type="line"/>
    </contour>
    <contour>
      <point x="134.0" y="609.0" type="line"/>
      <point x="134.0" y="454.0" type="line"/>
      <point x="502.0" y="122.0" type="line"/>
      <point x="502.0" y="268.0" type="line"/>
    </contour>
    <contour>
      <point x="549.0" y="609.0" type="line"/>
      <point x="549.0" y="454.0" type="line"/>
      <point x="918.0" y="631.0" type="line"/>
      <point x="918.0" y="784.0" type="line"/>
    </contour>
    <contour>
      <point x="549.0" y="609.0" type="line"/>
      <point x="549.0" y="454.0" type="line"/>
      <point x="917.0" y="122.0" type="line"/>
      <point x="917.0" y="268.0" type="line"/>
    </contour>
  </outline>
</glyph>
<glyph name="logicalnot" format="2">
  <advance width="1024"/>
  <unicode hex="00AC"/>
  <outline>
    <contour>
      <point x="641" y="935" type="line"/>
      <point x="641" y="640" type="line"/>
      <point x="751" y="640" type="line"/>
      <point x="751" y="935" type="line"/>
    </contour>
    <contour>
      <point x="211" y="935" type="line"/>
      <point x="211" y="835" type="line"/>
      <point x="761" y="835" type="line"/>
      <point x="761" y="935" type="line"/>
    </contour>
  </outline>
</glyph>
<glyph name="registered" format="2">
  <advance width="1024"/>
  <unicode hex="00AE"/>
  <outline>
    <contour>
      <point x="389" y="1032" type="line"/>
      <point x="389" y="501" type="line"/>
      <point x="457" y="501" type="line"/>
      <point x="457" y="1032" type="line"/>
    </contour>
    <contour>
      <point x="414" y="1032" type="line"/>
      <point x="414" y="963" type="line"/>
      <point x="643" y="963" type="line"/>
      <point x="643" y="1032" type="line"/>
    </contour>
    <contour>
      <point x="583" y="1032" type="line"/>
      <point x="583" y="802" type="line"/>
      <point x="652" y="802" type="line"/>
      <point x="652" y="1032" type="line"/>
    </contour>
    <contour>
      <point x="410" y="875" type="line"/>
      <point x="410" y="801" type="line"/>
      <point x="648" y="801" type="line"/>
      <point x="648" y="875" type="line"/>
    </contour>
    <contour>
      <point x="457" y="809" type="line"/>
      <point x="596" y="500" type="line"/>
      <point x="679" y="500" type="line"/>
      <point x="527" y="809" type="line"/>
    </contour>
    <contour>
      <point x="33" y="1537" type="line"/>
      <point x="33" y="0" type="line"/>
      <point x="234" y="0" type="line"/>
      <point x="234" y="1537" type="line"/>
    </contour>
    <contour>
      <point x="772" y="1537" type="line"/>
      <point x="772" y="0" type="line"/>
      <point x="975" y="0" type="line"/>
      <point x="975" y="1537" type="line"/>
    </contour>
    <contour>
      <point x="174" y="1537" type="line"/>
      <point x="174" y="1337" type="line"/>
      <point x="817" y="1337" type="line"/>
      <point x="817" y="1537" type="line"/>
    </contour>
    <contour>
      <point x="150" y="204" type="line"/>
      <point x="150" y="0" type="line"/>
      <point x="823" y="0" type="line"/>
      <point x="823" y="204" type="line"/>
    </contour>
  </outline>
</glyph>
<glyph name="macron" format="2">
  <advance width="1024"/>
  <unicode hex="00AF"/>
  <outline>
    <contour>
      <point x="245" y="1022" type="line"/>
      <point x="245" y="944" type="line"/>
      <point x="805" y="944" type="line"/>
      <point x="805" y="1022" type="line"/>
    </contour>
  </outline>
</glyph>
<glyph name="degree" format="2">
  <advance width="1024"/>
  <unicode hex="00B0"/>
  <outline>
    <contour>
      <point x="467" y="1456" type="line"/>
      <point x="615" y="1456" type="line"/>
      <point x="615" y="1326" type="line"/>
      <point x="467" y="1326" type="line"/>
    </contour>
    <contour>
      <point x="362" y="1547" type="line"/>
      <point x="362" y="1238" type="line"/>
      <point x="722" y="1238" type="line"/>
      <point x="722" y="1547" type="line"/>
    </contour>
  </outline>
</glyph>
<glyph name="plusminus" format="2">
	<unicode hex="00B1"/>
	<advance width="1024"/>
	<outline>
		<contour>
			<point x="99" y="108" type="line"/>
			<point x="99" y="-100" type="line"/>
			<point x="925" y="-100" type="line"/>
			<point x="925" y="108" type="line"/>
		</contour>
		<contour>
			<point x="384" y="1221" type="line"/>
			<point x="384" y="165" type="line"/>
			<point x="609" y="165" type="line"/>
			<point x="609" y="1221" type="line"/>
		</contour>
		<contour>
			<point x="61" y="821" type="line"/>
			<point x="61" y="613" type="line"/>
			<point x="963" y="613" type="line"/>
			<point x="963" y="821" type="line"/>
		</contour>
	</outline>
</glyph>
<glyph name="uni00B2" format="2">
  <advance width="1024"/>
  <unicode hex="00B2"/>
  <outline>
    <contour>
      <point x="225" y="1455" type="line"/>
      <point x="573" y="1455" type="line"/>
      <point x="573" y="1259" type="line"/>
      <point x="229" y="1259" type="line"/>
      <point x="229" y="851" type="line"/>
      <point x="678" y="851" type="line"/>
      <point x="678" y="940" type="line"/>
      <point x="345" y="942" type="line"/>
      <point x="345" y="1167" type="line"/>
      <point x="687" y="1168" type="line"/>
      <point x="687" y="1544" type="line"/>
      <point x="225" y="1544" type="line"/>
    </contour>
  </outline>
</glyph>
<glyph name="uni00B3" format="2">
  <advance width="1024"/>
  <unicode hex="00B3"/>
  <outline>
    <contour>
      <point x="193.0" y="1215.0" type="line"/>
      <point x="645.0" y="1215.0" type="line"/>
      <point x="645.0" y="990.0" type="line"/>
      <point x="164.0" y="990.0" type="line"/>
      <point x="164.0" y="908.0" type="line"/>
      <point x="785.0" y="908.0" type="line"/>
      <point x="785.0" y="1553.0" type="line"/>
      <point x="185.0" y="1553.0" type="line"/>
      <point x="185.0" y="1471.0" type="line"/>
      <point x="644.0" y="1471.0" type="line"/>
      <point x="644.0" y="1298.0" type="line"/>
      <point x="193.0" y="1298.0" type="line"/>
    </contour>
  </outline>
</glyph>
<glyph name="acute" format="2">
  <advance width="1024"/>
  <unicode hex="00B4"/>
  <outline>
    <contour>
      <point x="532" y="1422" type="line"/>
      <point x="402" y="1168" type="line"/>
      <point x="490" y="1122" type="line"/>
      <point x="622" y="1377" type="line"/>
    </contour>
  </outline>
</glyph>
<glyph name="mu" format="2">
  <advance width="1024"/>
  <unicode hex="00B5"/>
  <outline>
    <contour>
      <point x="731.0" y="935.0" type="line"/>
      <point x="731.0" y="0.0" type="line"/>
      <point x="841.0" y="0.0" type="line"/>
      <point x="841.0" y="935.0" type="line"/>
    </contour>
    <contour>
      <point x="296.0" y="120.0" type="line"/>
      <point x="296.0" y="0.0" type="line"/>
      <point x="811.0" y="0.0" type="line"/>
      <point x="811.0" y="120.0" type="line"/>
    </contour>
    <contour>
      <point x="196.0" y="935.0" type="line"/>
      <point x="196.0" y="-430.0" type="line"/>
      <point x="291.0" y="-430.0" type="line"/>
      <point x="291.0" y="935.0" type="line"/>
    </contour>
  </outline>
</glyph>
<glyph name="paragraph" format="2">
  <advance width="1024"/>
  <unicode hex="00B6"/>
  <outline>
    <contour>
      <point x="36.0" y="1130.0" type="line"/>
      <point x="36.0" y="985.0" type="line"/>
      <point x="601.0" y="985.0" type="line"/>
      <point x="601.0" y="1130.0" type="line"/>
    </contour>
    <contour>
      <point x="36.0" y="1548.0" type="line"/>
      <point x="36.0" y="1000.0" type="line"/>
      <point x="196.0" y="1000.0" type="line"/>
      <point x="196.0" y="1548.0" type="line"/>
    </contour>
    <contour>
      <point x="36.0" y="1548.0" type="line"/>
      <point x="36.0" y="1435.0" type="line"/>
      <point x="856.0" y="1435.0" type="line"/>
      <point x="856.0" y="1548.0" type="line"/>
    </contour>
    <contour>
      <point x="506.0" y="1548.0" type="line"/>
      <point x="506.0" y="0.0" type="line"/>
      <point x="651.0" y="0.0" type="line"/>
      <point x="651.0" y="1548.0" type="line"/>
    </contour>
    <contour>
      <point x="776.0" y="1548.0" type="line"/>
      <point x="776.0" y="0.0" type="line"/>
      <point x="881.0" y="0.0" type="line"/>
      <point x="881.0" y="1548.0" type="line"/>
    </contour>
  </outline>
</glyph>
<glyph name="periodcentered" format="2">
  <advance width="1024"/>
  <unicode hex="00B7"/>
  <outline>
    <contour>
      <point x="379.0" y="1146.0" type="line"/>
      <point x="379.0" y="899.0" type="line"/>
      <point x="644.0" y="899.0" type="line"/>
      <point x="644.0" y="1146.0" type="line"/>
    </contour>
  </outline>
</glyph>
<glyph name="cedilla" format="2">
  <advance width="1024"/>
  <unicode hex="00B8"/>
  <outline>
    <contour>
      <point x="301.0" y="242.0" type="line"/>
      <point x="301.0" y="-82.0" type="line"/>
      <point x="457.0" y="-82.0" type="line"/>
      <point x="457.0" y="242.0" type="line"/>
    </contour>
    <contour>
      <point x="302.0" y="-226.0" type="line"/>
      <point x="302.0" y="-346.0" type="line"/>
      <point x="748.0" y="-346.0" type="line"/>
      <point x="748.0" y="-226.0" type="line"/>
    </contour>
    <contour>
      <point x="596.0" y="62.0" type="line"/>
      <point x="596.0" y="-310.0" type="line"/>
      <point x="748.0" y="-310.0" type="line"/>
      <point x="748.0" y="62.0" type="line"/>
    </contour>
    <contour>
      <point x="302.0" y="62.0" type="line"/>
      <point x="302.0" y="-94.0" type="line"/>
      <point x="748.0" y="-94.0" type="line"/>
      <point x="748.0" y="62.0" type="line"/>
    </contour>
  </outline>
</glyph>
<glyph name="uni00B9" format="2">
  <advance width="1024"/>
  <unicode hex="00B9"/>
  <outline>
    <contour>
      <point x="511.2" y="892" type="line"/>
      <point x="511.2" y="1230" type="line"/>
      <point x="620.8" y="1230" type="line"/>
      <point x="620.8" y="892" type="line"/>
    </contour>
    <contour>
      <point x="514" y="1266" type="line"/>
      <point x="514" y="1548" type="line"/>
      <point x="624.4" y="1548" type="line"/>
      <point x="624.4" y="1266" type="line"/>
    </contour>
  </outline>
</glyph>
<glyph name="ordmasculine" format="2">
	<unicode hex="00BA"/>
	<advance width="1024"/>
	<outline>
		<contour>
			<point x="96" y="1542" type="line"/>
			<point x="96" y="519" type="line"/>
			<point x="296" y="519" type="line"/>
			<point x="296" y="1542" type="line"/>
		</contour>
		<contour>
			<point x="714" y="1542" type="line"/>
			<point x="714" y="519" type="line"/>
			<point x="914" y="519" type="line"/>
			<point x="914" y="1542" type="line"/>
		</contour>
		<contour>
			<point x="157" y="1542" type="line"/>
			<point x="157" y="1342" type="line"/>
			<point x="858" y="1342" type="line"/>
			<point x="858" y="1542" type="line"/>
		</contour>
		<contour>
			<point x="142" y="719" type="line"/>
			<point x="142" y="519" type="line"/>
			<point x="861" y="519" type="line"/>
			<point x="861" y="719" type="line"/>
		</contour>
		<contour>
			<point x="100" y="406" type="line"/>
			<point x="100" y="239" type="line"/>
			<point x="922" y="239" type="line"/>
			<point x="922" y="406" type="line"/>
		</contour>
	</outline>
</glyph>
<glyph name="guillemotright" format="2">
  <advance width="1024"/>
  <unicode hex="00BB"/>
  <outline>
    <contour>
      <point x="920.0" y="609.0" type="line"/>
      <point x="551.0" y="784.0" type="line"/>
      <point x="551.0" y="631.0" type="line"/>
      <point x="920.0" y="454.0" type="line"/>
    </contour>
    <contour>
      <point x="920.0" y="609.0" type="line"/>
      <point x="552.0" y="268.0" type="line"/>
      <point x="552.0" y="122.0" type="line"/>
      <point x="920.0" y="454.0" type="line"/>
    </contour>
    <contour>
      <point x="505.0" y="609.0" type="line"/>
      <point x="136.0" y="784.0" type="line"/>
      <point x="136.0" y="631.0" type="line"/>
      <point x="505.0" y="454.0" type="line"/>
    </contour>
    <contour>
      <point x="505.0" y="609.0" type="line"/>
      <point x="137.0" y="268.0" type="line"/>
      <point x="137.0" y="122.0" type="line"/>
      <point x="505.0" y="454.0" type="line"/>
    </contour>
  </outline>
</glyph>
<glyph name="onequarter" format="2">
  <advance width="1024"/>
  <unicode hex="00BC"/>
  <outline>
    <contour>
      <point x="666" y="1480" type="line"/>
      <point x="79" y="10" type="line"/>
      <point x="182" y="10" type="line"/>
      <point x="769" y="1480" type="line"/>
    </contour>
    <contour>
      <point x="307" y="1045" type="line"/>
      <point x="361" y="1045" type="line"/>
      <point x="361" y="1548" type="line"/>
      <point x="307" y="1548" type="line"/>
    </contour>
    <contour>
      <point x="312" y="1548" type="line"/>
      <point x="202" y="1428" type="line"/>
      <point x="222" y="1391" type="line"/>
      <point x="341" y="1537" type="line"/>
    </contour>
    <contour>
      <point x="568" y="379" type="line"/>
      <point x="873" y="379" type="line"/>
      <point x="873" y="7" type="line"/>
      <point x="932" y="7" type="line"/>
      <point x="932" y="768" type="line"/>
      <point x="872" y="768" type="line"/>
      <point x="872" y="445" type="line"/>
      <point x="627" y="445" type="line"/>
      <point x="627" y="770" type="line"/>
      <point x="568" y="770" type="line"/>
    </contour>
  </outline>
</glyph>
<glyph name="onehalf" format="2">
  <advance width="1024"/>
  <unicode hex="00BD"/>
  <outline>
    <contour>
      <point x="703.0" y="1483.0" type="line"/>
      <point x="133.0" y="6.0" type="line"/>
      <point x="310.0" y="-30.0" type="line"/>
      <point x="880.0" y="1447.0" type="line"/>
    </contour>
    <contour>
      <point x="298.0" y="863.0" type="line"/>
      <point x="381.0" y="863.0" type="line"/>
      <point x="381.0" y="1548.0" type="line"/>
      <point x="298.0" y="1548.0" type="line"/>
    </contour>
    <contour>
      <point x="300.0" y="1548.0" type="line"/>
      <point x="218.0" y="1419.0" type="line"/>
      <point x="280.0" y="1374.0" type="line"/>
      <point x="362.0" y="1506.0" type="line"/>
    </contour>
    <contour>
      <point x="654.0" y="603.0" type="line"/>
      <point x="853.0" y="603.0" type="line"/>
      <point x="853.0" y="407.0" type="line"/>
      <point x="656.0" y="407.0" type="line"/>
      <point x="656.0" y="0.0" type="line"/>
      <point x="913.0" y="0.0" type="line"/>
      <point x="913.0" y="90.0" type="line"/>
      <point x="722.0" y="90.0" type="line"/>
      <point x="722.0" y="317.0" type="line"/>
      <point x="918.0" y="317.0" type="line"/>
      <point x="918.0" y="693.0" type="line"/>
      <point x="654.0" y="693.0" type="line"/>
    </contour>
  </outline>
</glyph>
<glyph name="questiondown" format="2">
	<unicode hex="00BF"/>
	<advance width="1024"/>
	<outline>
		<contour>
			<point x="655" y="1273" type="line"/>
			<point x="655" y="1519" type="line"/>
			<point x="405" y="1519" type="line"/>
			<point x="405" y="1272" type="line"/>
		</contour>
		<contour>
			<point x="832" y="0" type="line"/>
			<point x="832" y="186" type="line"/>
			<point x="195" y="186" type="line"/>
			<point x="195" y="0" type="line"/>
		</contour>
		<contour>
			<point x="385" y="5" type="line"/>
			<point x="385" y="553" type="line"/>
			<point x="191" y="553" type="line"/>
			<point x="191" y="5" type="line"/>
		</contour>
		<contour>
			<point x="655" y="504" type="line"/>
			<point x="655" y="703" type="line"/>
			<point x="191" y="703" type="line"/>
			<point x="191" y="504" type="line"/>
		</contour>
		<contour>
			<point x="655" y="508" type="line"/>
			<point x="655" y="1127" type="line"/>
			<point x="407" y="1127" type="line"/>
			<point x="407" y="508" type="line"/>
		</contour>
	</outline>
</glyph>
<glyph name="AE" format="2">
  <advance width="1024"/>
  <unicode hex="00C6"/>
  <outline>
    <contour>
      <point x="646.0" y="185.0" type="line"/>
      <point x="646.0" y="0.0" type="line"/>
      <point x="996.0" y="0.0" type="line"/>
      <point x="996.0" y="185.0" type="line"/>
    </contour>
    <contour>
      <point x="125.0" y="0.0" type="line"/>
      <point x="324.0" y="0.0" type="line"/>
      <point x="324.0" y="1548.0" type="line"/>
      <point x="125.0" y="1548.0" type="line"/>
    </contour>
    <contour>
      <point x="186.0" y="1332.0" type="line"/>
      <point x="974.0" y="1332.0" type="line"/>
      <point x="974.0" y="1548.0" type="line"/>
      <point x="186.0" y="1548.0" type="line"/>
    </contour>
    <contour>
      <point x="204.0" y="1023.0" type="line"/>
      <point x="204.0" y="849.0" type="line"/>
      <point x="922.0" y="849.0" type="line"/>
      <point x="922.0" y="1023.0" type="line"/>
    </contour>
    <contour>
      <point x="551.0" y="0.0" type="line"/>
      <point x="751.0" y="0.0" type="line"/>
      <point x="751.0" y="1548.0" type="line"/>
      <point x="551.0" y="1548.0" type="line"/>
    </contour>
  </outline>
</glyph>
<glyph name="Eth" format="2">
  <advance width="1024"/>
  <unicode hex="00D0"/>
  <outline>
    <contour>
      <point x="0" y="935" type="line"/>
      <point x="0" y="730" type="line"/>
      <point x="476" y="730" type="line"/>
      <point x="476" y="935" type="line"/>
    </contour>
    <contour>
      <point x="107" y="1548" type="line"/>
      <point x="107" y="0" type="line"/>
      <point x="309" y="0" type="line"/>
      <point x="309" y="1548" type="line"/>
    </contour>
    <contour>
      <point x="433" y="1548" type="line"/>
      <point x="433" y="1350" type="line"/>
      <point x="916" y="767" type="line"/>
      <point x="916" y="1023" type="line"/>
    </contour>
    <contour>
      <point x="441" y="201" type="line"/>
      <point x="441" y="0" type="line"/>
      <point x="913" y="769" type="line"/>
      <point x="913" y="1023" type="line"/>
    </contour>
    <contour>
      <point x="271" y="1548" type="line"/>
      <point x="271" y="1349" type="line"/>
      <point x="433" y="1349" type="line"/>
      <point x="433" y="1548" type="line"/>
    </contour>
    <contour>
      <point x="279" y="200" type="line"/>
      <point x="279" y="0" type="line"/>
      <point x="441" y="0" type="line"/>
      <point x="441" y="200" type="line"/>
    </contour>
  </outline>
</glyph>
<glyph name="multiply" format="2">
  <advance width="1024"/>
  <unicode hex="00D7"/>
  <outline>
    <contour>
      <point x="91.0" y="302.0" type="line"/>
      <point x="292.0" y="302.0" type="line"/>
      <point x="927.0" y="1323.0" type="line"/>
      <point x="728.0" y="1323.0" type="line"/>
    </contour>
    <contour>
      <point x="93.0" y="1325.0" type="line"/>
      <point x="735.0" y="298.0" type="line"/>
      <point x="934.0" y="298.0" type="line"/>
      <point x="295.0" y="1325.0" type="line"/>
    </contour>
  </outline>
</glyph>
<glyph name="Oslash" format="2">
  <advance width="1024"/>
  <unicode hex="00D8"/>
  <anchor x="510" y="1666" name="top"/>
  <anchor x="498" y="-122" name="base"/>
  <outline>
    <contour>
      <point x="788" y="1667" type="line"/>
      <point x="35" y="-45" type="line"/>
      <point x="223" y="-118" type="line"/>
      <point x="976" y="1594" type="line"/>
    </contour>
    <contour>
      <point x="110" y="1537" type="line"/>
      <point x="110" y="0" type="line"/>
      <point x="311" y="0" type="line"/>
      <point x="311" y="1537" type="line"/>
    </contour>
    <contour>
      <point x="707" y="1537" type="line"/>
      <point x="707" y="0" type="line"/>
      <point x="910" y="0" type="line"/>
      <point x="910" y="1537" type="line"/>
    </contour>
    <contour>
      <point x="174" y="1537" type="line"/>
      <point x="174" y="1337" type="line"/>
      <point x="817" y="1337" type="line"/>
      <point x="817" y="1537" type="line"/>
    </contour>
    <contour>
      <point x="150" y="204" type="line"/>
      <point x="150" y="0" type="line"/>
      <point x="823" y="0" type="line"/>
      <point x="823" y="204" type="line"/>
    </contour>
  </outline>
</glyph>
<glyph name="Thorn" format="2">
  <advance width="1024"/>
  <unicode hex="00DE"/>
  <outline>
    <contour>
      <point x="112.0" y="1542.0" type="line"/>
      <point x="112.0" y="9.0" type="line"/>
      <point x="302.0" y="9.0" type="line"/>
      <point x="302.0" y="1542.0" type="line"/>
    </contour>
    <contour>
      <point x="191.0" y="1234.0" type="line"/>
      <point x="191.0" y="1035.0" type="line"/>
      <point x="847.0" y="1035.0" type="line"/>
      <point x="847.0" y="1234.0" type="line"/>
    </contour>
    <contour>
      <point x="667.0" y="1233.0" type="line"/>
      <point x="667.0" y="569.0" type="line"/>
      <point x="867.0" y="569.0" type="line"/>
      <point x="867.0" y="1233.0" type="line"/>
    </contour>
    <contour>
      <point x="179.0" y="684.0" type="line"/>
      <point x="179.0" y="484.0" type="line"/>
      <point x="866.0" y="484.0" type="line"/>
      <point x="866.0" y="684.0" type="line"/>
    </contour>
  </outline>
</glyph>
<glyph name="germandbls" format="2">
  <advance width="1024"/>
  <unicode hex="00DF"/>
  <outline>
    <contour>
      <point x="18.0" y="1221.0" type="line"/>
      <point x="18.0" y="1023.0" type="line"/>
      <point x="269.0" y="1023.0" type="line"/>
      <point x="269.0" y="1221.0" type="line"/>
    </contour>
    <contour>
      <point x="204.0" y="1548.0" type="line"/>
      <point x="204.0" y="0.0" type="line"/>
      <point x="410.0" y="0.0" type="line"/>
      <point x="410.0" y="1548.0" type="line"/>
    </contour>
    <contour>
      <point x="410.0" y="1548.0" type="line"/>
      <point x="410.0" y="1328.0" type="line"/>
      <point x="805.0" y="1328.0" type="line"/>
      <point x="805.0" y="1548.0" type="line"/>
    </contour>
    <contour>
      <point x="690.0" y="1548.0" type="line"/>
      <point x="690.0" y="1023.0" type="line"/>
      <point x="889.0" y="1023.0" type="line"/>
      <point x="889.0" y="1548.0" type="line"/>
    </contour>
    <contour>
      <point x="690.0" y="1062.0" type="line"/>
      <point x="490.0" y="1062.0" type="line"/>
      <point x="490.0" y="826.0" type="line"/>
      <point x="690.0" y="826.0" type="line"/>
    </contour>
    <contour>
      <point x="690.0" y="848.0" type="line"/>
      <point x="690.0" y="175.0" type="line"/>
      <point x="890.0" y="175.0" type="line"/>
      <point x="890.0" y="848.0" type="line"/>
    </contour>
    <contour>
      <point x="547.0" y="251.0" type="line"/>
      <point x="547.0" y="40.0" type="line"/>
      <point x="890.0" y="40.0" type="line"/>
      <point x="890.0" y="251.0" type="line"/>
    </contour>
  </outline>
</glyph>
<glyph name="ae" format="2">
  <advance width="1024"/>
  <unicode hex="00E6"/>
  <outline>
    <contour>
      <point x="48.0" y="1023.0" type="line"/>
      <point x="48.0" y="824.0" type="line"/>
      <point x="867.0" y="824.0" type="line"/>
      <point x="867.0" y="1023.0" type="line"/>
    </contour>
    <contour>
      <point x="449.0" y="1023.0" type="line"/>
      <point x="449.0" y="0.0" type="line"/>
      <point x="643.0" y="0.0" type="line"/>
      <point x="643.0" y="1023.0" type="line"/>
    </contour>
    <contour>
      <point x="71.0" y="599.0" type="line"/>
      <point x="71.0" y="400.0" type="line"/>
      <point x="868.0" y="400.0" type="line"/>
      <point x="868.0" y="599.0" type="line"/>
    </contour>
    <contour>
      <point x="71.0" y="575.0" type="line"/>
      <point x="71.0" y="0.0" type="line"/>
      <point x="272.0" y="0.0" type="line"/>
      <point x="272.0" y="575.0" type="line"/>
    </contour>
    <contour>
      <point x="69.0" y="201.0" type="line"/>
      <point x="69.0" y="0.0" type="line"/>
      <point x="989.0" y="0.0" type="line"/>
      <point x="989.0" y="201.0" type="line"/>
    </contour>
    <contour>
      <point x="773.0" y="1023.0" type="line"/>
      <point x="773.0" y="400.0" type="line"/>
      <point x="968.0" y="400.0" type="line"/>
      <point x="968.0" y="1023.0" type="line"/>
    </contour>
  </outline>
</glyph>
<glyph name="eth" format="2">
	<unicode hex="00F0"/>
	<advance width="1024"/>
	<outline>
		<contour>
			<point x="241" y="1548" type="line"/>
			<point x="692" y="0" type="line"/>
			<point x="893" y="0" type="line"/>
			<point x="442" y="1548" type="line"/>
		</contour>
		<contour>
			<point x="228" y="1023" type="line"/>
			<point x="228" y="822" type="line"/>
			<point x="569" y="822" type="line"/>
			<point x="569" y="1023" type="line"/>
		</contour>
		<contour>
			<point x="132" y="1023" type="line"/>
			<point x="132" y="0" type="line"/>
			<point x="333" y="0" type="line"/>
			<point x="333" y="1023" type="line"/>
		</contour>
		<contour>
			<point x="228" y="195" type="line"/>
			<point x="228" y="0" type="line"/>
			<point x="845" y="0" type="line"/>
			<point x="845" y="195" type="line"/>
		</contour>
		<contour>
			<point x="161" y="1416" type="line"/>
			<point x="161" y="1229" type="line"/>
			<point x="693" y="1229" type="line"/>
			<point x="693" y="1416" type="line"/>
		</contour>
	</outline>
</glyph>
<glyph name="divide" format="2">
  <advance width="1024"/>
  <unicode hex="00F7"/>
  <outline>
    <contour>
      <point x="399.5" y="430" type="line"/>
      <point x="399.5" y="201" type="line"/>
      <point x="647.5" y="201" type="line"/>
      <point x="647.5" y="430" type="line"/>
    </contour>
    <contour>
      <point x="376.5" y="1294" type="line"/>
      <point x="376.5" y="1047" type="line"/>
      <point x="641.5" y="1047" type="line"/>
      <point x="641.5" y="1294" type="line"/>
    </contour>
    <contour>
      <point x="99" y="808" type="line"/>
      <point x="99" y="600" type="line"/>
      <point x="925" y="600" type="line"/>
      <point x="925" y="808" type="line"/>
    </contour>
  </outline>
</glyph>
<glyph name="oslash" format="2">
  <advance width="1024"/>
  <unicode hex="00F8"/>
  <outline>
    <contour>
      <point x="837.0" y="1164.0" type="line"/>
      <point x="9.0" y="-5.0" type="line"/>
      <point x="171.0" y="-103.0" type="line"/>
      <point x="1000.0" y="1066.0" type="line"/>
    </contour>
    <contour>
      <point x="104.0" y="1023.0" type="line"/>
      <point x="104.0" y="0.0" type="line"/>
      <point x="304.0" y="0.0" type="line"/>
      <point x="304.0" y="1023.0" type="line"/>
    </contour>
    <contour>
      <point x="719.0" y="1023.0" type="line"/>
      <point x="719.0" y="0.0" type="line"/>
      <point x="921.0" y="0.0" type="line"/>
      <point x="921.0" y="1023.0" type="line"/>
    </contour>
    <contour>
      <point x="227.0" y="1023.0" type="line"/>
      <point x="227.0" y="822.0" type="line"/>
      <point x="813.0" y="822.0" type="line"/>
      <point x="813.0" y="1023.0" type="line"/>
    </contour>
    <contour>
      <point x="231.0" y="200.0" type="line"/>
      <point x="231.0" y="0.0" type="line"/>
      <point x="803.0" y="0.0" type="line"/>
      <point x="803.0" y="200.0" type="line"/>
    </contour>
  </outline>
</glyph>
<glyph name="thorn" format="2">
	<unicode hex="00FE"/>
	<advance width="1024"/>
	<outline>
		<contour>
			<point x="173" y="1630" type="line"/>
			<point x="173" y="-406" type="line"/>
			<point x="373" y="-406" type="line"/>
			<point x="373" y="1630" type="line"/>
		</contour>
		<contour>
			<point x="360" y="1012" type="line"/>
			<point x="360" y="813" type="line"/>
			<point x="916" y="813" type="line"/>
			<point x="916" y="1012" type="line"/>
		</contour>
		<contour>
			<point x="368" y="204" type="line"/>
			<point x="368" y="3" type="line"/>
			<point x="914" y="3" type="line"/>
			<point x="914" y="204" type="line"/>
		</contour>
		<contour>
			<point x="716" y="942" type="line"/>
			<point x="716" y="94" type="line"/>
			<point x="914" y="94" type="line"/>
			<point x="914" y="942" type="line"/>
		</contour>
	</outline>
	<anchor name="base" x="265" y="-491"/>
</glyph>
<glyph name="dcaron" format="2">
  <advance width="1024"/>
  <unicode hex="010F"/>
  <outline>
    <contour>
      <point x="613.0" y="1527.0" type="line"/>
      <point x="613.0" y="0.0" type="line"/>
      <point x="814.0" y="0.0" type="line"/>
      <point x="814.0" y="1527.0" type="line"/>
    </contour>
    <contour>
      <point x="149.0" y="1023.0" type="line"/>
      <point x="149.0" y="822.0" type="line"/>
      <point x="702.0" y="822.0" type="line"/>
      <point x="702.0" y="1023.0" type="line"/>
    </contour>
    <contour>
      <point x="53.0" y="1023.0" type="line"/>
      <point x="53.0" y="0.0" type="line"/>
      <point x="254.0" y="0.0" type="line"/>
      <point x="254.0" y="1023.0" type="line"/>
    </contour>
    <contour>
      <point x="149.0" y="195.0" type="line"/>
      <point x="149.0" y="0.0" type="line"/>
      <point x="766.0" y="0.0" type="line"/>
      <point x="766.0" y="195.0" type="line"/>
    </contour>
    <contour>
      <point x="860.0" y="1496.0" type="line"/>
      <point x="860.0" y="1264.0" type="line"/>
      <point x="990.0" y="1264.0" type="line"/>
      <point x="990.0" y="1496.0" type="line"/>
    </contour>
  </outline>
</glyph>
<glyph name="Dcroat" format="2">
	<unicode hex="0110"/>
	<advance width="1024"/>
	<outline>
		<contour>
			<point x="0" y="935" type="line"/>
			<point x="0" y="730" type="line"/>
			<point x="476" y="730" type="line"/>
			<point x="476" y="935" type="line"/>
		</contour>
		<contour>
			<point x="107" y="1548" type="line"/>
			<point x="107" y="0" type="line"/>
			<point x="309" y="0" type="line"/>
			<point x="309" y="1548" type="line"/>
		</contour>
		<contour>
			<point x="433" y="1548" type="line"/>
			<point x="433" y="1350" type="line"/>
			<point x="916" y="767" type="line"/>
			<point x="916" y="1023" type="line"/>
		</contour>
		<contour>
			<point x="441" y="201" type="line"/>
			<point x="441" y="0" type="line"/>
			<point x="913" y="769" type="line"/>
			<point x="913" y="1023" type="line"/>
		</contour>
		<contour>
			<point x="271" y="1548" type="line"/>
			<point x="271" y="1349" type="line"/>
			<point x="433" y="1349" type="line"/>
			<point x="433" y="1548" type="line"/>
		</contour>
		<contour>
			<point x="279" y="200" type="line"/>
			<point x="279" y="0" type="line"/>
			<point x="441" y="0" type="line"/>
			<point x="441" y="200" type="line"/>
		</contour>
	</outline>
	<anchor name="top" x="319" y="1641"/>
	<anchor name="base" x="300" y="-152"/>
</glyph>
<glyph name="dcroat" format="2">
  <advance width="1024"/>
  <unicode hex="0111"/>
  <outline>
    <contour>
      <point x="692.0" y="1527.0" type="line"/>
      <point x="692.0" y="0.0" type="line"/>
      <point x="893.0" y="0.0" type="line"/>
      <point x="893.0" y="1527.0" type="line"/>
    </contour>
    <contour>
      <point x="228.0" y="1023.0" type="line"/>
      <point x="228.0" y="822.0" type="line"/>
      <point x="781.0" y="822.0" type="line"/>
      <point x="781.0" y="1023.0" type="line"/>
    </contour>
    <contour>
      <point x="132.0" y="1023.0" type="line"/>
      <point x="132.0" y="0.0" type="line"/>
      <point x="333.0" y="0.0" type="line"/>
      <point x="333.0" y="1023.0" type="line"/>
    </contour>
    <contour>
      <point x="228.0" y="195.0" type="line"/>
      <point x="228.0" y="0.0" type="line"/>
      <point x="845.0" y="0.0" type="line"/>
      <point x="845.0" y="195.0" type="line"/>
    </contour>
    <contour>
      <point x="555.0" y="1403.0" type="line"/>
      <point x="555.0" y="1202.0" type="line"/>
      <point x="999.0" y="1202.0" type="line"/>
      <point x="999.0" y="1403.0" type="line"/>
    </contour>
  </outline>
</glyph>
<glyph name="Hbar" format="2">
  <advance width="1024"/>
  <unicode hex="0126"/>
  <outline>
    <contour>
      <point x="89" y="1540" type="line"/>
      <point x="89" y="1" type="line"/>
      <point x="289" y="1" type="line"/>
      <point x="289" y="1540" type="line"/>
    </contour>
    <contour>
      <point x="675" y="1540" type="line"/>
      <point x="675" y="1" type="line"/>
      <point x="885" y="1" type="line"/>
      <point x="885" y="1540" type="line"/>
    </contour>
    <contour>
      <point x="209" y="1020" type="line"/>
      <point x="209" y="818" type="line"/>
      <point x="755" y="818" type="line"/>
      <point x="755" y="1020" type="line"/>
    </contour>
    <contour>
      <point x="28" y="1434" type="line"/>
      <point x="28" y="1226" type="line"/>
      <point x="953" y="1226" type="line"/>
      <point x="953" y="1434" type="line"/>
    </contour>
  </outline>
</glyph>
<glyph name="hbar" format="2">
  <advance width="1024"/>
  <unicode hex="0127"/>
  <outline>
    <contour>
      <point x="174.0" y="1537.0" type="line"/>
      <point x="374.0" y="1537.0" type="line"/>
      <point x="374.0" y="6.0" type="line"/>
      <point x="174.0" y="6.0" type="line"/>
    </contour>
    <contour>
      <point x="311.0" y="1023.0" type="line"/>
      <point x="842.0" y="1023.0" type="line"/>
      <point x="842.0" y="826.0" type="line"/>
      <point x="311.0" y="826.0" type="line"/>
    </contour>
    <contour>
      <point x="651.0" y="1023.0" type="line"/>
      <point x="850.0" y="1023.0" type="line"/>
      <point x="850.0" y="0.0" type="line"/>
      <point x="651.0" y="0.0" type="line"/>
    </contour>
    <contour>
      <point x="38.0" y="1429.0" type="line"/>
      <point x="494.0" y="1429.0" type="line"/>
      <point x="494.0" y="1221.0" type="line"/>
      <point x="38.0" y="1221.0" type="line"/>
    </contour>
  </outline>
</glyph>
<glyph name="dotlessi" format="2">
	<unicode hex="0131"/>
	<advance width="1024"/>
	<outline>
		<contour>
			<point x="411" y="1018" type="line"/>
			<point x="411" y="139" type="line"/>
			<point x="613" y="139" type="line"/>
			<point x="613" y="1018" type="line"/>
		</contour>
		<contour>
			<point x="141" y="204" type="line"/>
			<point x="141" y="6" type="line"/>
			<point x="883" y="6" type="line"/>
			<point x="883" y="204" type="line"/>
		</contour>
		<contour>
			<point x="191" y="1018" type="line"/>
			<point x="191" y="818" type="line"/>
			<point x="567" y="818" type="line"/>
			<point x="567" y="1018" type="line"/>
		</contour>
	</outline>
	<anchor name="top" x="492" y="1191"/>
	<anchor name="base" x="546" y="-101"/>
</glyph>
<glyph name="kgreenlandic" format="2">
	<unicode hex="0138"/>
	<advance width="1024"/>
	<outline>
		<contour>
			<point x="42" y="1022" type="line"/>
			<point x="42" y="5" type="line"/>
			<point x="242" y="5" type="line"/>
			<point x="242" y="1022" type="line"/>
		</contour>
		<contour>
			<point x="91" y="516" type="line"/>
			<point x="140" y="298" type="line"/>
			<point x="1012" y="1023" type="line"/>
			<point x="795" y="1023" type="line"/>
		</contour>
		<contour>
			<point x="424" y="631" type="line"/>
			<point x="196" y="483" type="line"/>
			<point x="765" y="0" type="line"/>
			<point x="1003" y="0" type="line"/>
		</contour>
	</outline>
	<anchor name="base" x="486" y="-119"/>
	<anchor name="top" x="140" y="1110"/>
</glyph>
<glyph name="Lcaron" format="2">
  <advance width="1024"/>
  <unicode hex="013D"/>
  <outline>
    <contour>
      <point x="53.0" y="1542.0" type="line"/>
      <point x="53.0" y="0.0" type="line"/>
      <point x="251.0" y="0.0" type="line"/>
      <point x="251.0" y="1542.0" type="line"/>
    </contour>
    <contour>
      <point x="162.0" y="202.0" type="line"/>
      <point x="162.0" y="0.0" type="line"/>
      <point x="888.0" y="0.0" type="line"/>
      <point x="888.0" y="202.0" type="line"/>
    </contour>
    <contour>
      <point x="447.0" y="1496.0" type="line"/>
      <point x="447.0" y="1264.0" type="line"/>
      <point x="577.0" y="1264.0" type="line"/>
      <point x="577.0" y="1496.0" type="line"/>
    </contour>
  </outline>
</glyph>
<glyph name="lcaron" format="2">
  <advance width="1024"/>
  <unicode hex="013E"/>
  <outline>
    <contour>
      <point x="133.0" y="209.0" type="line"/>
      <point x="133.0" y="9.0" type="line"/>
      <point x="767.0" y="9.0" type="line"/>
      <point x="767.0" y="209.0" type="line"/>
    </contour>
    <contour>
      <point x="350.0" y="1548.0" type="line"/>
      <point x="350.0" y="86.0" type="line"/>
      <point x="550.0" y="86.0" type="line"/>
      <point x="550.0" y="1548.0" type="line"/>
    </contour>
    <contour>
      <point x="194.0" y="1548.0" type="line"/>
      <point x="194.0" y="1349.0" type="line"/>
      <point x="429.0" y="1349.0" type="line"/>
      <point x="429.0" y="1548.0" type="line"/>
    </contour>
    <contour>
      <point x="630.0" y="1496.0" type="line"/>
      <point x="630.0" y="1264.0" type="line"/>
      <point x="760.0" y="1264.0" type="line"/>
      <point x="760.0" y="1496.0" type="line"/>
    </contour>
  </outline>
</glyph>
<glyph name="Lslash" format="2">
  <advance width="1024"/>
  <unicode hex="0141"/>
  <outline>
    <contour>
      <point x="171.0" y="1542.0" type="line"/>
      <point x="171.0" y="0.0" type="line"/>
      <point x="369.0" y="0.0" type="line"/>
      <point x="369.0" y="1542.0" type="line"/>
    </contour>
    <contour>
      <point x="280.0" y="202.0" type="line"/>
      <point x="280.0" y="0.0" type="line"/>
      <point x="1006.0" y="0.0" type="line"/>
      <point x="1006.0" y="202.0" type="line"/>
    </contour>
    <contour>
      <point x="16.0" y="902.0" type="line"/>
      <point x="96.0" y="730.0" type="line"/>
      <point x="530.0" y="932.0" type="line"/>
      <point x="450.0" y="1104.0" type="line"/>
    </contour>
  </outline>
</glyph>
<glyph name="lslash" format="2">
  <advance width="1024"/>
  <unicode hex="0142"/>
  <outline>
    <contour>
      <point x="195.0" y="209.0" type="line"/>
      <point x="195.0" y="9.0" type="line"/>
      <point x="829.0" y="9.0" type="line"/>
      <point x="829.0" y="209.0" type="line"/>
    </contour>
    <contour>
      <point x="412.0" y="1548.0" type="line"/>
      <point x="412.0" y="86.0" type="line"/>
      <point x="612.0" y="86.0" type="line"/>
      <point x="612.0" y="1548.0" type="line"/>
    </contour>
    <contour>
      <point x="256.0" y="1548.0" type="line"/>
      <point x="256.0" y="1349.0" type="line"/>
      <point x="491.0" y="1349.0" type="line"/>
      <point x="491.0" y="1548.0" type="line"/>
    </contour>
    <contour>
      <point x="815.0" y="1213.0" type="line"/>
      <point x="112.0" y="830.0" type="line"/>
      <point x="214.0" y="656.0" type="line"/>
      <point x="917.0" y="1039.0" type="line"/>
    </contour>
  </outline>
</glyph>
<glyph name="Eng" format="2">
	<unicode hex="014A"/>
	<advance width="1024"/>
	<outline>
		<contour>
			<point x="524" y="-211" type="line"/>
			<point x="524" y="-406" type="line"/>
			<point x="911" y="-406" type="line"/>
			<point x="911" y="-211" type="line"/>
		</contour>
		<contour>
			<point x="112" y="1490" type="line"/>
			<point x="112" y="0" type="line"/>
			<point x="313" y="0" type="line"/>
			<point x="313" y="1490" type="line"/>
		</contour>
		<contour>
			<point x="711" y="1476" type="line"/>
			<point x="711" y="-406" type="line"/>
			<point x="912" y="-406" type="line"/>
			<point x="912" y="1476" type="line"/>
		</contour>
		<contour>
			<point x="112" y="1548" type="line"/>
			<point x="112" y="1353" type="line"/>
			<point x="911" y="1353" type="line"/>
			<point x="911" y="1548" type="line"/>
		</contour>
	</outline>
	<anchor name="top" x="528" y="1660"/>
	<anchor name="base" x="450" y="-482"/>
</glyph>
<glyph name="eng" format="2">
  <advance width="1024"/>
  <unicode hex="014B"/>
  <outline>
    <contour>
      <point x="456" y="-211" type="line"/>
      <point x="456" y="-408" type="line"/>
      <point x="843" y="-408" type="line"/>
      <point x="843" y="-211" type="line"/>
    </contour>
    <contour>
      <point x="244" y="990" type="line"/>
      <point x="244" y="0" type="line"/>
      <point x="445" y="0" type="line"/>
      <point x="445" y="990" type="line"/>
    </contour>
    <contour>
      <point x="643" y="976" type="line"/>
      <point x="643" y="-408" type="line"/>
      <point x="844" y="-408" type="line"/>
      <point x="844" y="976" type="line"/>
    </contour>
    <contour>
      <point x="65" y="1023" type="line"/>
      <point x="65" y="826" type="line"/>
      <point x="843" y="826" type="line"/>
      <point x="843" y="1023" type="line"/>
    </contour>
  </outline>
</glyph>
<glyph name="OE" format="2">
  <advance width="1024"/>
  <unicode hex="0152"/>
  <outline>
    <contour>
      <point x="111.0" y="1548.0" type="line"/>
      <point x="111.0" y="0.0" type="line"/>
      <point x="312.0" y="0.0" type="line"/>
      <point x="312.0" y="1548.0" type="line"/>
    </contour>
    <contour>
      <point x="503.0" y="1548.0" type="line"/>
      <point x="503.0" y="0.0" type="line"/>
      <point x="704.0" y="0.0" type="line"/>
      <point x="704.0" y="1548.0" type="line"/>
    </contour>
    <contour>
      <point x="148.0" y="1548.0" type="line"/>
      <point x="148.0" y="1349.0" type="line"/>
      <point x="880.0" y="1349.0" type="line"/>
      <point x="880.0" y="1548.0" type="line"/>
    </contour>
    <contour>
      <point x="150.0" y="200.0" type="line"/>
      <point x="150.0" y="0.0" type="line"/>
      <point x="888.0" y="0.0" type="line"/>
      <point x="888.0" y="200.0" type="line"/>
    </contour>
    <contour>
      <point x="606.0" y="859.0" type="line"/>
      <point x="606.0" y="659.0" type="line"/>
      <point x="850.0" y="659.0" type="line"/>
      <point x="850.0" y="859.0" type="line"/>
    </contour>
  </outline>
</glyph>
<glyph name="oe" format="2">
  <advance width="1024"/>
  <unicode hex="0153"/>
  <anchor x="534" y="1132" name="top"/>
  <anchor x="558" y="-80" name="base"/>
  <outline>
    <contour>
      <point x="597" y="645" type="line"/>
      <point x="597" y="446" type="line"/>
      <point x="824" y="446" type="line"/>
      <point x="824" y="645" type="line"/>
    </contour>
    <contour>
      <point x="799" y="1023" type="line"/>
      <point x="799" y="445" type="line"/>
      <point x="999" y="445" type="line"/>
      <point x="999" y="1023" type="line"/>
    </contour>
    <contour>
      <point x="103" y="1023" type="line"/>
      <point x="103" y="0" type="line"/>
      <point x="303" y="0" type="line"/>
      <point x="303" y="1023" type="line"/>
    </contour>
    <contour>
      <point x="451" y="1023" type="line"/>
      <point x="451" y="0" type="line"/>
      <point x="651" y="0" type="line"/>
      <point x="651" y="1023" type="line"/>
    </contour>
    <contour>
      <point x="158" y="1023" type="line"/>
      <point x="158" y="823" type="line"/>
      <point x="859" y="823" type="line"/>
      <point x="859" y="1023" type="line"/>
    </contour>
    <contour>
      <point x="149" y="200" type="line"/>
      <point x="149" y="0" type="line"/>
      <point x="999" y="0" type="line"/>
      <point x="999" y="200" type="line"/>
    </contour>
  </outline>
</glyph>
<glyph name="tcaron" format="2">
  <advance width="1024"/>
  <unicode hex="0165"/>
  <outline>
    <contour>
      <point x="342.0" y="1529.0" type="line"/>
      <point x="342.0" y="0.0" type="line"/>
      <point x="543.0" y="0.0" type="line"/>
      <point x="543.0" y="1529.0" type="line"/>
    </contour>
    <contour>
      <point x="495.0" y="199.0" type="line"/>
      <point x="495.0" y="0.0" type="line"/>
      <point x="886.0" y="0.0" type="line"/>
      <point x="886.0" y="199.0" type="line"/>
    </contour>
    <contour>
      <point x="70.0" y="1023.0" type="line"/>
      <point x="70.0" y="824.0" type="line"/>
      <point x="849.0" y="824.0" type="line"/>
      <point x="849.0" y="1023.0" type="line"/>
    </contour>
    <contour>
      <point x="672.0" y="1496.0" type="line"/>
      <point x="672.0" y="1291.0" type="line"/>
      <point x="802.0" y="1291.0" type="line"/>
      <point x="802.0" y="1496.0" type="line"/>
    </contour>
  </outline>
</glyph>
<glyph name="uni0180" format="2">
  <advance width="1024"/>
  <unicode hex="0180"/>
  <outline>
    <contour>
      <point x="135" y="1537" type="line"/>
      <point x="334" y="1537" type="line"/>
      <point x="334" y="0" type="line"/>
      <point x="135" y="0" type="line"/>
    </contour>
    <contour>
      <point x="232" y="1033" type="line"/>
      <point x="750" y="1033" type="line"/>
      <point x="750" y="834" type="line"/>
      <point x="232" y="834" type="line"/>
    </contour>
    <contour>
      <point x="690" y="1033" type="line"/>
      <point x="889" y="1033" type="line"/>
      <point x="889" y="0" type="line"/>
      <point x="690" y="0" type="line"/>
    </contour>
    <contour>
      <point x="260" y="207" type="line"/>
      <point x="810" y="207" type="line"/>
      <point x="810" y="0" type="line"/>
      <point x="260" y="0" type="line"/>
    </contour>
    <contour>
      <point x="-15" y="1414" type="line"/>
      <point x="811" y="1414" type="line"/>
      <point x="811" y="1206" type="line"/>
      <point x="-15" y="1206" type="line"/>
    </contour>
  </outline>
</glyph>
<glyph name="uni0182" format="2">
  <advance width="1024"/>
  <unicode hex="0182"/>
  <anchor x="262" y="1657" name="top"/>
  <anchor x="250" y="-67" name="base"/>
  <outline>
    <contour>
      <point x="110" y="0" type="line"/>
      <point x="318" y="0" type="line"/>
      <point x="318" y="1537" type="line"/>
      <point x="110" y="1537" type="line"/>
    </contour>
    <contour>
      <point x="375" y="201" type="line"/>
      <point x="375" y="0" type="line"/>
      <point x="929" y="364" type="line"/>
      <point x="929" y="588" type="line"/>
    </contour>
    <contour>
      <point x="442" y="567" type="line"/>
      <point x="929" y="364" type="line"/>
      <point x="929" y="586" type="line"/>
      <point x="442" y="766" type="line"/>
    </contour>
    <contour>
      <point x="270" y="766" type="line"/>
      <point x="270" y="567" type="line"/>
      <point x="442" y="567" type="line"/>
      <point x="442" y="766" type="line"/>
    </contour>
    <contour>
      <point x="208" y="200" type="line"/>
      <point x="208" y="0" type="line"/>
      <point x="375" y="0" type="line"/>
      <point x="375" y="200" type="line"/>
    </contour>
    <contour>
      <point x="270" y="1537" type="line"/>
      <point x="270" y="1331" type="line"/>
      <point x="911" y="1331" type="line"/>
      <point x="911" y="1537" type="line"/>
    </contour>
  </outline>
</glyph>
<glyph name="uni0186" format="2">
  <advance width="1024"/>
  <unicode hex="0186"/>
  <anchor x="564" y="-114" name="Anchor-1"/>
  <anchor x="456" y="1646" name="Anchor-0"/>
  <outline>
    <contour>
      <point x="953" y="0" type="line"/>
      <point x="753" y="0" type="line"/>
      <point x="753" y="1537" type="line"/>
      <point x="953" y="1537" type="line"/>
    </contour>
    <contour>
      <point x="854" y="0" type="line"/>
      <point x="71" y="0" type="line"/>
      <point x="71" y="199" type="line"/>
      <point x="854" y="199" type="line"/>
    </contour>
    <contour>
      <point x="868" y="1338" type="line"/>
      <point x="73" y="1338" type="line"/>
      <point x="73" y="1537" type="line"/>
      <point x="868" y="1537" type="line"/>
    </contour>
  </outline>
</glyph>
<glyph name="uni0187" format="2">
  <advance width="1024"/>
  <unicode hex="0187"/>
  <outline>
    <contour>
      <point x="62" y="1550" type="line"/>
      <point x="262" y="1550" type="line"/>
      <point x="262" y="13" type="line"/>
      <point x="62" y="13" type="line"/>
    </contour>
    <contour>
      <point x="161" y="1550" type="line"/>
      <point x="944" y="1550" type="line"/>
      <point x="944" y="1351" type="line"/>
      <point x="161" y="1351" type="line"/>
    </contour>
    <contour>
      <point x="147" y="212" type="line"/>
      <point x="942" y="212" type="line"/>
      <point x="942" y="13" type="line"/>
      <point x="147" y="13" type="line"/>
    </contour>
    <contour>
      <point x="898" y="1865" type="line"/>
      <point x="898" y="1636" type="line"/>
      <point x="650" y="1636" type="line"/>
      <point x="650" y="1865" type="line"/>
    </contour>
    <contour>
      <point x="819" y="1767" type="line"/>
      <point x="1018" y="1424" type="line"/>
      <point x="834" y="1345" type="line"/>
      <point x="651" y="1635" type="line"/>
    </contour>
  </outline>
</glyph>
<glyph name="uni0188" format="2">
  <advance width="1024"/>
  <unicode hex="0188"/>
  <outline>
    <contour>
      <point x="164" y="1023" type="line"/>
      <point x="860" y="1023" type="line"/>
      <point x="860" y="826" type="line"/>
      <point x="164" y="826" type="line"/>
    </contour>
    <contour>
      <point x="166" y="984" type="line"/>
      <point x="368" y="984" type="line"/>
      <point x="368" y="0" type="line"/>
      <point x="166" y="0" type="line"/>
    </contour>
    <contour>
      <point x="272" y="201" type="line"/>
      <point x="854" y="201" type="line"/>
      <point x="854" y="0" type="line"/>
      <point x="272" y="0" type="line"/>
    </contour>
    <contour>
      <point x="1090" y="1337" type="line"/>
      <point x="927" y="1176" type="line"/>
      <point x="752" y="1353" type="line"/>
      <point x="915" y="1514" type="line"/>
    </contour>
    <contour>
      <point x="964" y="1325" type="line"/>
      <point x="861" y="942" type="line"/>
      <point x="675" y="1017" type="line"/>
      <point x="752" y="1351" type="line"/>
    </contour>
  </outline>
</glyph>
<glyph name="uni018A" format="2">
  <advance width="1024"/>
  <unicode hex="018A"/>
  <outline>
    <contour>
      <point x="107" y="1548" type="line"/>
      <point x="309" y="1548" type="line"/>
      <point x="309" y="0" type="line"/>
      <point x="107" y="0" type="line"/>
    </contour>
    <contour>
      <point x="433" y="1548" type="line"/>
      <point x="916" y="1023" type="line"/>
      <point x="916" y="767" type="line"/>
      <point x="433" y="1350" type="line"/>
    </contour>
    <contour>
      <point x="441" y="201" type="line"/>
      <point x="913" y="1023" type="line"/>
      <point x="913" y="769" type="line"/>
      <point x="441" y="0" type="line"/>
    </contour>
    <contour>
      <point x="271" y="1548" type="line"/>
      <point x="433" y="1548" type="line"/>
      <point x="433" y="1349" type="line"/>
      <point x="271" y="1349" type="line"/>
    </contour>
    <contour>
      <point x="279" y="200" type="line"/>
      <point x="441" y="200" type="line"/>
      <point x="441" y="0" type="line"/>
      <point x="279" y="0" type="line"/>
    </contour>
    <contour>
      <point x="-149" y="1336" type="line"/>
      <point x="-149" y="1584" type="line"/>
      <point x="80" y="1584" type="line"/>
      <point x="80" y="1336" type="line"/>
    </contour>
    <contour>
      <point x="-55" y="1436" type="line"/>
      <point x="80" y="1584" type="line"/>
      <point x="286" y="1462" type="line"/>
      <point x="226" y="1318" type="line"/>
    </contour>
  </outline>
</glyph>
<glyph name="uni018E" format="2">
  <advance width="1024"/>
  <unicode hex="018E"/>
  <anchor x="516" y="-81" name="Anchor-1"/>
  <anchor x="470" y="1641" name="Anchor-0"/>
  <outline>
    <contour>
      <point x="916" y="0" type="line"/>
      <point x="716" y="0" type="line"/>
      <point x="716" y="1537" type="line"/>
      <point x="916" y="1537" type="line"/>
    </contour>
    <contour>
      <point x="838" y="0" type="line"/>
      <point x="119" y="0" type="line"/>
      <point x="119" y="204" type="line"/>
      <point x="838" y="204" type="line"/>
    </contour>
    <contour>
      <point x="849" y="1334" type="line"/>
      <point x="103" y="1334" type="line"/>
      <point x="103" y="1537" type="line"/>
      <point x="849" y="1537" type="line"/>
    </contour>
    <contour>
      <point x="849" y="649" type="line"/>
      <point x="350" y="649" type="line"/>
      <point x="350" y="849" type="line"/>
      <point x="849" y="849" type="line"/>
    </contour>
  </outline>
</glyph>
<glyph name="uni018F" format="2">
  <advance width="1024"/>
  <unicode hex="018F"/>
  <outline>
    <contour>
      <point x="804.0" y="0.0" type="line"/>
      <point x="804.0" y="211.0" type="line"/>
      <point x="265.0" y="211.0" type="line"/>
      <point x="265.0" y="0.0" type="line"/>
    </contour>
    <contour>
      <point x="854.0" y="0.0" type="line"/>
      <point x="854.0" y="1543.0" type="line"/>
      <point x="652.0" y="1543.0" type="line"/>
      <point x="652.0" y="0.0" type="line"/>
    </contour>
    <contour>
      <point x="752.0" y="1342.0" type="line"/>
      <point x="752.0" y="1543.0" type="line"/>
      <point x="170.0" y="1543.0" type="line"/>
      <point x="170.0" y="1342.0" type="line"/>
    </contour>
    <contour>
      <point x="784.0" y="689.0" type="line"/>
      <point x="784.0" y="868.0" type="line"/>
      <point x="130.0" y="868.0" type="line"/>
      <point x="130.0" y="689.0" type="line"/>
    </contour>
    <contour>
      <point x="462.0" y="30.0" type="line"/>
      <point x="302.0" y="869.0" type="line"/>
      <point x="107.0" y="869.0" type="line"/>
      <point x="267.0" y="30.0" type="line"/>
    </contour>
  </outline>
</glyph>
<glyph name="Eopen" format="2">
  <advance width="1024"/>
  <unicode hex="0190"/>
  <outline>
    <contour>
      <point x="103" y="1542" type="line"/>
      <point x="171" y="930" type="line"/>
      <point x="371" y="929" type="line"/>
      <point x="303" y="1541" type="line"/>
    </contour>
    <contour>
      <point x="181" y="1541" type="line"/>
      <point x="181" y="1337" type="line"/>
      <point x="900" y="1337" type="line"/>
      <point x="900" y="1541" type="line"/>
    </contour>
    <contour>
      <point x="170" y="203" type="line"/>
      <point x="170" y="0" type="line"/>
      <point x="916" y="0" type="line"/>
      <point x="916" y="203" type="line"/>
    </contour>
    <contour>
      <point x="363" y="931" type="line"/>
      <point x="363" y="731" type="line"/>
      <point x="669" y="731" type="line"/>
      <point x="669" y="931" type="line"/>
    </contour>
    <contour>
      <point x="178" y="734" type="line"/>
      <point x="96" y="2" type="line"/>
      <point x="296" y="1" type="line"/>
      <point x="378" y="733" type="line"/>
    </contour>
  </outline>
</glyph>
<glyph name="uni0191" format="2">
  <advance width="1024"/>
  <unicode hex="0191"/>
  <outline>
    <contour>
      <point x="141" y="1548" type="line"/>
      <point x="341" y="1548" type="line"/>
      <point x="341" y="0" type="line"/>
      <point x="141" y="0" type="line"/>
    </contour>
    <contour>
      <point x="243" y="1548" type="line"/>
      <point x="877" y="1548" type="line"/>
      <point x="877" y="1347" type="line"/>
      <point x="243" y="1347" type="line"/>
    </contour>
    <contour>
      <point x="231" y="875" type="line"/>
      <point x="780" y="875" type="line"/>
      <point x="780" y="672" type="line"/>
      <point x="231" y="672" type="line"/>
    </contour>
    <contour>
      <point x="28" y="-296" type="line"/>
      <point x="141" y="-97" type="line"/>
      <point x="357" y="-220" type="line"/>
      <point x="243" y="-419" type="line"/>
    </contour>
    <contour>
      <point x="145" y="-250" type="line"/>
      <point x="143" y="147" type="line"/>
      <point x="342" y="124" type="line"/>
      <point x="356" y="-219" type="line"/>
    </contour>
  </outline>
</glyph>
<glyph name="uni0193" format="2">
  <advance width="1024"/>
  <unicode hex="0193"/>
  <outline>
    <contour>
      <point x="110" y="1548" type="line"/>
      <point x="312" y="1548" type="line"/>
      <point x="312" y="0" type="line"/>
      <point x="110" y="0" type="line"/>
    </contour>
    <contour>
      <point x="168" y="1548" type="line"/>
      <point x="868" y="1548" type="line"/>
      <point x="868" y="1347" type="line"/>
      <point x="168" y="1347" type="line"/>
    </contour>
    <contour>
      <point x="141" y="202" type="line"/>
      <point x="904" y="202" type="line"/>
      <point x="904" y="0" type="line"/>
      <point x="141" y="0" type="line"/>
    </contour>
    <contour>
      <point x="705" y="561" type="line"/>
      <point x="904" y="561" type="line"/>
      <point x="904" y="18" type="line"/>
      <point x="705" y="18" type="line"/>
    </contour>
    <contour>
      <point x="972" y="1791" type="line"/>
      <point x="862" y="1590" type="line"/>
      <point x="645" y="1710" type="line"/>
      <point x="755" y="1910" type="line"/>
    </contour>
    <contour>
      <point x="856" y="1743" type="line"/>
      <point x="865" y="1346" type="line"/>
      <point x="666" y="1366" type="line"/>
      <point x="645" y="1708" type="line"/>
    </contour>
  </outline>
</glyph>
<glyph name="Gamma_latin" format="2">
  <advance width="1024"/>
  <unicode hex="0194"/>
  <outline>
    <contour>
      <point x="81" y="1543" type="line"/>
      <point x="556" y="-158" type="line"/>
      <point x="756" y="-158" type="line"/>
      <point x="281" y="1543" type="line"/>
    </contour>
    <contour>
      <point x="730" y="1543" type="line"/>
      <point x="218" y="-158" type="line"/>
      <point x="417" y="-158" type="line"/>
      <point x="930" y="1543" type="line"/>
    </contour>
    <contour>
      <point x="219" y="-360" type="line"/>
      <point x="757" y="-361" type="line"/>
      <point x="757" y="-158" type="line"/>
      <point x="219" y="-158" type="line"/>
    </contour>
  </outline>
</glyph>
<glyph name="uni0196" format="2">
  <advance width="1024"/>
  <unicode hex="0196"/>
  <anchor x="470" y="1641" name="top"/>
  <anchor x="504" y="-66" name="base"/>
  <outline>
    <contour>
      <point x="447" y="1538" type="line"/>
      <point x="447" y="234" type="line"/>
      <point x="649" y="234" type="line"/>
      <point x="649" y="1538" type="line"/>
    </contour>
    <contour>
      <point x="447" y="299" type="line"/>
      <point x="447" y="101" type="line"/>
      <point x="918" y="20" type="line"/>
      <point x="918" y="218" type="line"/>
    </contour>
  </outline>
</glyph>
<glyph name="uni0196" format="2">
  <advance width="1024"/>
  <unicode hex="0196"/>
  <anchor x="504" y="-66" name="Anchor-1"/>
  <anchor x="470" y="1641" name="Anchor-0"/>
  <outline>
    <contour>
      <point x="447" y="1538" type="line"/>
      <point x="649" y="1538" type="line"/>
      <point x="649" y="234" type="line"/>
      <point x="447" y="234" type="line"/>
    </contour>
    <contour>
      <point x="447" y="299" type="line"/>
      <point x="918" y="218" type="line"/>
      <point x="918" y="20" type="line"/>
      <point x="447" y="101" type="line"/>
    </contour>
  </outline>
</glyph>
<glyph name="Khook" format="2">
  <advance width="1024"/>
  <unicode hex="0198"/>
  <outline>
    <contour>
      <point x="118" y="1537" type="line"/>
      <point x="118" y="5" type="line"/>
      <point x="319" y="5" type="line"/>
      <point x="319" y="1537" type="line"/>
    </contour>
    <contour>
      <point x="163" y="999" type="line"/>
      <point x="282" y="835" type="line"/>
      <point x="939" y="1529" type="line"/>
      <point x="672" y="1529" type="line"/>
    </contour>
    <contour>
      <point x="293" y="798" type="line"/>
      <point x="156" y="643" type="line"/>
      <point x="711" y="0" type="line"/>
      <point x="992" y="0" type="line"/>
    </contour>
    <contour>
      <point x="1261" y="1729" type="line"/>
      <point x="1138" y="1944" type="line"/>
      <point x="939" y="1830" type="line"/>
      <point x="1063" y="1615" type="line"/>
    </contour>
    <contour>
      <point x="1032" y="1712" type="line"/>
      <point x="940" y="1828" type="line"/>
      <point x="668" y="1523" type="line"/>
      <point x="938" y="1529" type="line"/>
    </contour>
  </outline>
</glyph>
<glyph name="uni0199" format="2">
  <advance width="1024"/>
  <unicode hex="0199"/>
  <outline>
    <contour>
      <point x="118" y="1537" type="line"/>
      <point x="318" y="1537" type="line"/>
      <point x="318" y="5" type="line"/>
      <point x="118" y="5" type="line"/>
    </contour>
    <contour>
      <point x="167" y="516" type="line"/>
      <point x="686" y="1023" type="line"/>
      <point x="903" y="1023" type="line"/>
      <point x="216" y="298" type="line"/>
    </contour>
    <contour>
      <point x="424" y="631" type="line"/>
      <point x="960" y="0" type="line"/>
      <point x="722" y="0" type="line"/>
      <point x="272" y="483" type="line"/>
    </contour>
    <contour>
      <point x="428" y="1827" type="line"/>
      <point x="314" y="1628" type="line"/>
      <point x="99" y="1752" type="line"/>
      <point x="214" y="1951" type="line"/>
    </contour>
    <contour>
      <point x="311" y="1781" type="line"/>
      <point x="312" y="1385" type="line"/>
      <point x="113" y="1408" type="line"/>
      <point x="99" y="1751" type="line"/>
    </contour>
  </outline>
</glyph>
<glyph name="uni019C" format="2">
  <advance width="1024"/>
  <unicode hex="019C"/>
  <anchor x="498" y="-112" name="Anchor-1"/>
  <anchor x="437" y="1679" name="Anchor-0"/>
  <outline>
    <contour>
      <point x="863" y="30" type="line"/>
      <point x="663" y="30" type="line"/>
      <point x="663" y="1546" type="line"/>
      <point x="863" y="1546" type="line"/>
    </contour>
    <contour>
      <point x="548" y="51" type="line"/>
      <point x="348" y="51" type="line"/>
      <point x="348" y="1546" type="line"/>
      <point x="548" y="1546" type="line"/>
    </contour>
    <contour>
      <point x="233" y="47" type="line"/>
      <point x="33" y="47" type="line"/>
      <point x="33" y="1546" type="line"/>
      <point x="233" y="1546" type="line"/>
    </contour>
    <contour>
      <point x="940" y="0" type="line"/>
      <point x="34" y="0" type="line"/>
      <point x="34" y="197" type="line"/>
      <point x="940" y="197" type="line"/>
    </contour>
  </outline>
</glyph>
<glyph name="uni019D" format="2">
  <advance width="1024"/>
  <unicode hex="019D"/>
  <anchor x="515" y="1658" name="Anchor-0"/>
  <outline>
    <contour>
      <point x="95" y="1548" type="line"/>
      <point x="300" y="1548" type="line"/>
      <point x="300" y="0" type="line"/>
      <point x="95" y="0" type="line"/>
    </contour>
    <contour>
      <point x="722" y="1548" type="line"/>
      <point x="924" y="1548" type="line"/>
      <point x="924" y="0" type="line"/>
      <point x="722" y="0" type="line"/>
    </contour>
    <contour>
      <point x="96" y="1548" type="line"/>
      <point x="301" y="1548" type="line"/>
      <point x="924" y="0" type="line"/>
      <point x="723" y="0" type="line"/>
    </contour>
    <contour>
      <point x="-22" y="-296" type="line"/>
      <point x="92" y="-97" type="line"/>
      <point x="307" y="-221" type="line"/>
      <point x="192" y="-420" type="line"/>
    </contour>
    <contour>
      <point x="95" y="-250" type="line"/>
      <point x="94" y="146" type="line"/>
      <point x="293" y="123" type="line"/>
      <point x="307" y="-220" type="line"/>
    </contour>
  </outline>
</glyph>
<glyph name="uni019F" format="2">
	<unicode hex="019F"/>
	<advance width="1024"/>
	<outline>
		<contour>
			<point x="110" y="1537" type="line"/>
			<point x="110" y="0" type="line"/>
			<point x="311" y="0" type="line"/>
			<point x="311" y="1537" type="line"/>
		</contour>
		<contour>
			<point x="707" y="1537" type="line"/>
			<point x="707" y="0" type="line"/>
			<point x="910" y="0" type="line"/>
			<point x="910" y="1537" type="line"/>
		</contour>
		<contour>
			<point x="174" y="1537" type="line"/>
			<point x="174" y="1337" type="line"/>
			<point x="817" y="1337" type="line"/>
			<point x="817" y="1537" type="line"/>
		</contour>
		<contour>
			<point x="150" y="204" type="line"/>
			<point x="150" y="0" type="line"/>
			<point x="823" y="0" type="line"/>
			<point x="823" y="204" type="line"/>
		</contour>
		<contour>
			<point x="134.927" y="875" type="line"/>
			<point x="134.927" y="667" type="line"/>
			<point x="910.255" y="667" type="line"/>
			<point x="910.255" y="875" type="line"/>
		</contour>
	</outline>
	<anchor name="top" x="539" y="1698"/>
	<anchor name="base" x="564" y="-114"/>
</glyph>
<glyph name="uni019F" format="2">
  <advance width="1024"/>
  <unicode hex="019F"/>
  <anchor x="564" y="-114" name="Anchor-1"/>
  <anchor x="539" y="1698" name="Anchor-0"/>
  <outline>
    <contour>
      <point x="110" y="1537" type="line"/>
      <point x="311" y="1537" type="line"/>
      <point x="311" y="0" type="line"/>
      <point x="110" y="0" type="line"/>
    </contour>
    <contour>
      <point x="707" y="1537" type="line"/>
      <point x="910" y="1537" type="line"/>
      <point x="910" y="0" type="line"/>
      <point x="707" y="0" type="line"/>
    </contour>
    <contour>
      <point x="174" y="1537" type="line"/>
      <point x="817" y="1537" type="line"/>
      <point x="817" y="1337" type="line"/>
      <point x="174" y="1337" type="line"/>
    </contour>
    <contour>
      <point x="150" y="204" type="line"/>
      <point x="823" y="204" type="line"/>
      <point x="823" y="0" type="line"/>
      <point x="150" y="0" type="line"/>
    </contour>
    <contour>
      <point x="135" y="875" type="line"/>
      <point x="910" y="875" type="line"/>
      <point x="910" y="667" type="line"/>
      <point x="135" y="667" type="line"/>
    </contour>
  </outline>
</glyph>
<glyph name="uni01A4" format="2">
  <advance width="1024"/>
  <unicode hex="01A4"/>
  <anchor x="367" y="-35" name="base"/>
  <anchor x="589" y="1642" name="top"/>
  <outline>
    <contour>
      <point x="253" y="1548" type="line"/>
      <point x="253" y="9" type="line"/>
      <point x="443" y="9" type="line"/>
      <point x="443" y="1548" type="line"/>
    </contour>
    <contour>
      <point x="332" y="1548" type="line"/>
      <point x="332" y="1346" type="line"/>
      <point x="988" y="1346" type="line"/>
      <point x="988" y="1548" type="line"/>
    </contour>
    <contour>
      <point x="808" y="1548" type="line"/>
      <point x="808" y="881" type="line"/>
      <point x="1008" y="881" type="line"/>
      <point x="1008" y="1548" type="line"/>
    </contour>
    <contour>
      <point x="316" y="1068" type="line"/>
      <point x="316" y="868" type="line"/>
      <point x="1003" y="868" type="line"/>
      <point x="1003" y="1068" type="line"/>
    </contour>
    <contour>
      <point x="50.6901" y="1216.12" type="line"/>
      <point x="247.77" y="1332.74" type="line"/>
      <point x="121.472" y="1546.17" type="line"/>
      <point x="-75.6077" y="1429.55" type="line"/>
    </contour>
    <contour>
      <point x="88.5643" y="1352.41" type="line"/>
      <point x="390.489" y="1393.96" type="line"/>
      <point x="368.791" y="1548.44" type="line"/>
      <point x="129.375" y="1548.53" type="line"/>
    </contour>
  </outline>
</glyph>
<glyph name="uni01A4" format="2">
  <advance width="1024"/>
  <unicode hex="01A4"/>
  <anchor x="367" y="-35" name="Anchor-1"/>
  <anchor x="589" y="1642" name="Anchor-0"/>
  <outline>
    <contour>
      <point x="253" y="1548" type="line"/>
      <point x="443" y="1548" type="line"/>
      <point x="443" y="9" type="line"/>
      <point x="253" y="9" type="line"/>
    </contour>
    <contour>
      <point x="332" y="1548" type="line"/>
      <point x="988" y="1548" type="line"/>
      <point x="988" y="1346" type="line"/>
      <point x="332" y="1346" type="line"/>
    </contour>
    <contour>
      <point x="808" y="1548" type="line"/>
      <point x="1008" y="1548" type="line"/>
      <point x="1008" y="881" type="line"/>
      <point x="808" y="881" type="line"/>
    </contour>
    <contour>
      <point x="316" y="1068" type="line"/>
      <point x="1003" y="1068" type="line"/>
      <point x="1003" y="868" type="line"/>
      <point x="316" y="868" type="line"/>
    </contour>
    <contour>
      <point x="51" y="1216" type="line"/>
      <point x="-76" y="1430" type="line"/>
      <point x="121" y="1546" type="line"/>
      <point x="248" y="1333" type="line"/>
    </contour>
    <contour>
      <point x="89" y="1352" type="line"/>
      <point x="129" y="1549" type="line"/>
      <point x="369" y="1548" type="line"/>
      <point x="390" y="1394" type="line"/>
    </contour>
  </outline>
</glyph>
<glyph name="uni01A5" format="2">
  <advance width="1024"/>
  <unicode hex="01A5"/>
  <outline>
    <contour>
      <point x="173" y="1203" type="line"/>
      <point x="373" y="1203" type="line"/>
      <point x="373" y="-406" type="line"/>
      <point x="173" y="-406" type="line"/>
    </contour>
    <contour>
      <point x="271" y="1023" type="line"/>
      <point x="810" y="1023" type="line"/>
      <point x="810" y="821" type="line"/>
      <point x="271" y="821" type="line"/>
    </contour>
    <contour>
      <point x="275" y="202" type="line"/>
      <point x="815" y="202" type="line"/>
      <point x="815" y="0" type="line"/>
      <point x="275" y="0" type="line"/>
    </contour>
    <contour>
      <point x="613" y="876" type="line"/>
      <point x="811" y="876" type="line"/>
      <point x="811" y="175" type="line"/>
      <point x="613" y="175" type="line"/>
    </contour>
    <contour>
      <point x="477" y="1578" type="line"/>
      <point x="370" y="1376" type="line"/>
      <point x="151" y="1492" type="line"/>
      <point x="258" y="1694" type="line"/>
    </contour>
    <contour>
      <point x="362" y="1528" type="line"/>
      <point x="377" y="1132" type="line"/>
      <point x="177" y="1148" type="line"/>
      <point x="151" y="1490" type="line"/>
    </contour>
  </outline>
</glyph>
<glyph name="uni01A9" format="2">
  <advance width="1024"/>
  <unicode hex="01A9"/>
  <outline>
    <contour>
      <point x="704" y="928" type="line"/>
      <point x="704" y="725" type="line"/>
      <point x="110" y="-14" type="line"/>
      <point x="110" y="210" type="line"/>
    </contour>
    <contour>
      <point x="706" y="921" type="line"/>
      <point x="706" y="722" type="line"/>
      <point x="129" y="1338" type="line"/>
      <point x="128" y="1539" type="line"/>
    </contour>
    <contour>
      <point x="850" y="1337" type="line"/>
      <point x="128" y="1337" type="line"/>
      <point x="128" y="1537" type="line"/>
      <point x="850" y="1537" type="line"/>
    </contour>
    <contour>
      <point x="788" y="0" type="line"/>
      <point x="125" y="0" type="line"/>
      <point x="125" y="206" type="line"/>
      <point x="788" y="206" type="line"/>
    </contour>
  </outline>
</glyph>
<glyph name="Thook" format="2">
  <advance width="1024"/>
  <unicode hex="01AC"/>
  <anchor x="624" y="1638" name="top"/>
  <anchor x="600" y="-54" name="base"/>
  <outline>
    <contour>
      <point x="233" y="1548" type="line"/>
      <point x="233" y="1348" type="line"/>
      <point x="1007" y="1348" type="line"/>
      <point x="1007" y="1548" type="line"/>
    </contour>
    <contour>
      <point x="520" y="1436" type="line"/>
      <point x="520" y="6" type="line"/>
      <point x="720" y="6" type="line"/>
      <point x="720" y="1436" type="line"/>
    </contour>
    <contour>
      <point x="555.2770780000001" y="1550.55351976" type="line"/>
      <point x="-3.7089470000000233" y="1546.56241628" type="line"/>
      <point x="-2.2810029999999983" y="1346.56741628" type="line"/>
      <point x="554.705072" y="1350.54424032" type="line"/>
    </contour>
    <contour>
      <point x="-3.7089470000000233" y="1546.56241628" type="line"/>
      <point x="-1.0958094799999856" y="1180.5715662799998" type="line"/>
      <point x="198.89919052000002" y="1181.9995102799999" type="line"/>
      <point x="196.28605299999998" y="1547.99036028" type="line"/>
    </contour>
  </outline>
</glyph>
<glyph name="uni01AC" format="2">
  <advance width="1024"/>
  <unicode hex="01AC"/>
  <anchor x="600" y="-54" name="Anchor-1"/>
  <anchor x="624" y="1638" name="Anchor-0"/>
  <outline>
    <contour>
      <point x="233" y="1548" type="line"/>
      <point x="1007" y="1548" type="line"/>
      <point x="1007" y="1348" type="line"/>
      <point x="233" y="1348" type="line"/>
    </contour>
    <contour>
      <point x="520" y="1436" type="line"/>
      <point x="720" y="1436" type="line"/>
      <point x="720" y="6" type="line"/>
      <point x="520" y="6" type="line"/>
    </contour>
    <contour>
      <point x="555" y="1551" type="line"/>
      <point x="555" y="1351" type="line"/>
      <point x="-2" y="1347" type="line"/>
      <point x="-4" y="1547" type="line"/>
    </contour>
    <contour>
      <point x="-4" y="1547" type="line"/>
      <point x="196" y="1548" type="line"/>
      <point x="199" y="1182" type="line"/>
      <point x="-1" y="1181" type="line"/>
    </contour>
  </outline>
</glyph>
<glyph name="thook" format="2">
  <advance width="1024"/>
  <unicode hex="01AD"/>
  <anchor x="500" y="1642" name="top"/>
  <anchor x="500" y="-82" name="base"/>
  <outline>
    <contour>
      <point x="410" y="1548" type="line"/>
      <point x="410" y="0" type="line"/>
      <point x="610" y="0" type="line"/>
      <point x="610" y="1548" type="line"/>
    </contour>
    <contour>
      <point x="418" y="199" type="line"/>
      <point x="418" y="0" type="line"/>
      <point x="809" y="0" type="line"/>
      <point x="809" y="199" type="line"/>
    </contour>
    <contour>
      <point x="174" y="1023" type="line"/>
      <point x="174" y="824" type="line"/>
      <point x="848" y="824" type="line"/>
      <point x="848" y="1023" type="line"/>
    </contour>
    <contour>
      <point x="965.739" y="1579.41" type="line"/>
      <point x="406.781" y="1572.51" type="line"/>
      <point x="409.25" y="1372.53" type="line"/>
      <point x="966.207" y="1379.4" type="line"/>
    </contour>
    <contour>
      <point x="406.781" y="1572.51" type="line"/>
      <point x="411.298" y="1206.54" type="line"/>
      <point x="611.283" y="1209.01" type="line"/>
      <point x="606.766" y="1574.98" type="line"/>
    </contour>
  </outline>
</glyph>
<glyph name="uni01AD" format="2">
  <advance width="1024"/>
  <unicode hex="01AD"/>
  <anchor x="500" y="-82" name="Anchor-1"/>
  <anchor x="500" y="1642" name="Anchor-0"/>
  <outline>
    <contour>
      <point x="410" y="1548" type="line"/>
      <point x="610" y="1548" type="line"/>
      <point x="610" y="0" type="line"/>
      <point x="410" y="0" type="line"/>
    </contour>
    <contour>
      <point x="418" y="199" type="line"/>
      <point x="809" y="199" type="line"/>
      <point x="809" y="0" type="line"/>
      <point x="418" y="0" type="line"/>
    </contour>
    <contour>
      <point x="174" y="1023" type="line"/>
      <point x="848" y="1023" type="line"/>
      <point x="848" y="824" type="line"/>
      <point x="174" y="824" type="line"/>
    </contour>
    <contour>
      <point x="966" y="1579" type="line"/>
      <point x="966" y="1379" type="line"/>
      <point x="409" y="1373" type="line"/>
      <point x="407" y="1573" type="line"/>
    </contour>
    <contour>
      <point x="407" y="1573" type="line"/>
      <point x="607" y="1575" type="line"/>
      <point x="611" y="1209" type="line"/>
      <point x="411" y="1207" type="line"/>
    </contour>
  </outline>
</glyph>
<glyph name="uni01AE" format="2">
	<unicode hex="01AE"/>
	<advance width="1024"/>
	<outline>
		<contour>
			<point x="125" y="1548" type="line"/>
			<point x="125" y="1348" type="line"/>
			<point x="899" y="1348" type="line"/>
			<point x="899" y="1548" type="line"/>
		</contour>
		<contour>
			<point x="412" y="1436" type="line"/>
			<point x="412" y="6" type="line"/>
			<point x="612" y="6" type="line"/>
			<point x="612" y="1436" type="line"/>
		</contour>
		<contour>
			<point x="415" y="219" type="line"/>
			<point x="415" y="-340" type="line"/>
			<point x="615" y="-340" type="line"/>
			<point x="615" y="217" type="line"/>
		</contour>
		<contour>
			<point x="415" y="-340" type="line"/>
			<point x="781" y="-340" type="line"/>
			<point x="781" y="-140" type="line"/>
			<point x="415" y="-140" type="line"/>
		</contour>
	</outline>
	<anchor name="top" x="516" y="1638"/>
	<anchor name="base" x="492" y="-54"/>
</glyph>
<glyph name="uni01B1" format="2">
  <advance width="1024"/>
  <unicode hex="01B1"/>
  <anchor x="568" y="1642" name="Anchor-0"/>
  <outline>
    <contour>
      <point x="300" y="1455" type="line"/>
      <point x="501" y="1455" type="line"/>
      <point x="340" y="0" type="line"/>
      <point x="139" y="0" type="line"/>
    </contour>
    <contour>
      <point x="599" y="1455" type="line"/>
      <point x="799" y="1455" type="line"/>
      <point x="917" y="0" type="line"/>
      <point x="717" y="0" type="line"/>
    </contour>
    <contour>
      <point x="186" y="196" type="line"/>
      <point x="867" y="203" type="line"/>
      <point x="867" y="0" type="line"/>
      <point x="186" y="0" type="line"/>
    </contour>
    <contour>
      <point x="708" y="1455" type="line"/>
      <point x="1006" y="1455" type="line"/>
      <point x="1010" y="1255" type="line"/>
      <point x="712" y="1255" type="line"/>
    </contour>
    <contour>
      <point x="89" y="1455" type="line"/>
      <point x="387" y="1455" type="line"/>
      <point x="386" y="1255" type="line"/>
      <point x="88" y="1255" type="line"/>
    </contour>
  </outline>
</glyph>
<glyph name="uni01B2" format="2">
	<unicode hex="01B2"/>
	<advance width="1024"/>
	<outline>
		<contour>
			<point x="104" y="1529" type="line"/>
			<point x="104" y="0" type="line"/>
			<point x="304" y="0" type="line"/>
			<point x="304" y="1529" type="line"/>
		</contour>
		<contour>
			<point x="719" y="1529" type="line"/>
			<point x="719" y="0" type="line"/>
			<point x="921" y="0" type="line"/>
			<point x="921" y="1529" type="line"/>
		</contour>
		<contour>
			<point x="586" y="1529" type="line"/>
			<point x="586" y="1328" type="line"/>
			<point x="813" y="1328" type="line"/>
			<point x="813" y="1529" type="line"/>
		</contour>
		<contour>
			<point x="231" y="200" type="line"/>
			<point x="231" y="0" type="line"/>
			<point x="803" y="0" type="line"/>
			<point x="803" y="200" type="line"/>
		</contour>
	</outline>
	<anchor name="top" x="525" y="1613"/>
	<anchor name="base" x="536" y="-38"/>
</glyph>
<glyph name="uni01B3" format="2">
  <advance width="1024"/>
  <unicode hex="01B3"/>
  <outline>
    <contour>
      <point x="411" y="897" type="line"/>
      <point x="613" y="897" type="line"/>
      <point x="613" y="0" type="line"/>
      <point x="411" y="0" type="line"/>
    </contour>
    <contour>
      <point x="160" y="1548" type="line"/>
      <point x="360" y="1548" type="line"/>
      <point x="360" y="859" type="line"/>
      <point x="160" y="859" type="line"/>
    </contour>
    <contour>
      <point x="665" y="1548" type="line"/>
      <point x="864" y="1548" type="line"/>
      <point x="864" y="859" type="line"/>
      <point x="665" y="859" type="line"/>
    </contour>
    <contour>
      <point x="228" y="1023" type="line"/>
      <point x="774" y="1023" type="line"/>
      <point x="774" y="859" type="line"/>
      <point x="228" y="859" type="line"/>
    </contour>
    <contour>
      <point x="984" y="1880" type="line"/>
      <point x="870" y="1681" type="line"/>
      <point x="655" y="1805" type="line"/>
      <point x="770" y="2004" type="line"/>
    </contour>
    <contour>
      <point x="867" y="1834" type="line"/>
      <point x="868" y="1438" type="line"/>
      <point x="669" y="1461" type="line"/>
      <point x="655" y="1804" type="line"/>
    </contour>
  </outline>
</glyph>
<glyph name="uni01B4" format="2">
  <advance width="1024"/>
  <unicode hex="01B4"/>
  <outline>
    <contour>
      <point x="680" y="1023" type="line"/>
      <point x="880" y="1023" type="line"/>
      <point x="880" y="-406" type="line"/>
      <point x="680" y="-406" type="line"/>
    </contour>
    <contour>
      <point x="147" y="-211" type="line"/>
      <point x="864" y="-211" type="line"/>
      <point x="864" y="-406" type="line"/>
      <point x="147" y="-406" type="line"/>
    </contour>
    <contour>
      <point x="147" y="1023" type="line"/>
      <point x="347" y="1023" type="line"/>
      <point x="347" y="264" type="line"/>
      <point x="147" y="264" type="line"/>
    </contour>
    <contour>
      <point x="147" y="464" type="line"/>
      <point x="765" y="464" type="line"/>
      <point x="765" y="264" type="line"/>
      <point x="147" y="264" type="line"/>
    </contour>
    <contour>
      <point x="995" y="1320" type="line"/>
      <point x="881" y="1121" type="line"/>
      <point x="666" y="1245" type="line"/>
      <point x="781" y="1444" type="line"/>
    </contour>
    <contour>
      <point x="878" y="1274" type="line"/>
      <point x="879" y="878" type="line"/>
      <point x="680" y="901" type="line"/>
      <point x="666" y="1244" type="line"/>
    </contour>
  </outline>
</glyph>
<glyph name="uni01B7" format="2">
  <advance width="1024"/>
  <unicode hex="01B7"/>
  <outline>
    <contour>
      <point x="860" y="0" type="line"/>
      <point x="860" y="197" type="line"/>
      <point x="164" y="197" type="line"/>
      <point x="164" y="0" type="line"/>
    </contour>
    <contour>
      <point x="858" y="39" type="line"/>
      <point x="862" y="889" type="line"/>
      <point x="660" y="889" type="line"/>
      <point x="656" y="39" type="line"/>
    </contour>
    <contour>
      <point x="756" y="688" type="line"/>
      <point x="756" y="889" type="line"/>
      <point x="174" y="889" type="line"/>
      <point x="174" y="688" type="line"/>
    </contour>
    <contour>
      <point x="121" y="1544" type="line"/>
      <point x="121" y="1347" type="line"/>
      <point x="949" y="1347" type="line"/>
      <point x="949" y="1544" type="line"/>
    </contour>
    <contour>
      <point x="657" y="1347" type="line"/>
      <point x="169" y="889" type="line"/>
      <point x="475" y="889" type="line"/>
      <point x="949" y="1347" type="line"/>
    </contour>
  </outline>
</glyph>
<glyph name="Ezhreversed" format="2">
  <advance width="1024"/>
  <unicode hex="01B8"/>
  <outline>
    <contour>
      <point x="210" y="0" type="line"/>
      <point x="906" y="0" type="line"/>
      <point x="906" y="197" type="line"/>
      <point x="210" y="197" type="line"/>
    </contour>
    <contour>
      <point x="212" y="39" type="line"/>
      <point x="414" y="39" type="line"/>
      <point x="410" y="889" type="line"/>
      <point x="208" y="889" type="line"/>
    </contour>
    <contour>
      <point x="314" y="688" type="line"/>
      <point x="896" y="688" type="line"/>
      <point x="896" y="889" type="line"/>
      <point x="314" y="889" type="line"/>
    </contour>
    <contour>
      <point x="949" y="1544" type="line"/>
      <point x="121" y="1544" type="line"/>
      <point x="121" y="1347" type="line"/>
      <point x="949" y="1347" type="line"/>
    </contour>
    <contour>
      <point x="413" y="1347" type="line"/>
      <point x="121" y="1347" type="line"/>
      <point x="595" y="889" type="line"/>
      <point x="901" y="889" type="line"/>
    </contour>
  </outline>
</glyph>
<glyph name="ezhreversed" format="2">
  <advance width="1024"/>
  <unicode hex="01B9"/>
  <outline>
    <contour>
      <point x="210" y="0" type="line"/>
      <point x="906" y="0" type="line"/>
      <point x="906" y="197" type="line"/>
      <point x="210" y="197" type="line"/>
    </contour>
    <contour>
      <point x="212" y="39" type="line"/>
      <point x="414" y="39" type="line"/>
      <point x="410" y="619" type="line"/>
      <point x="208" y="619" type="line"/>
    </contour>
    <contour>
      <point x="314" y="418" type="line"/>
      <point x="896" y="418" type="line"/>
      <point x="896" y="619" type="line"/>
      <point x="314" y="619" type="line"/>
    </contour>
    <contour>
      <point x="949" y="1274" type="line"/>
      <point x="121" y="1274" type="line"/>
      <point x="121" y="1077" type="line"/>
      <point x="949" y="1077" type="line"/>
    </contour>
    <contour>
      <point x="413" y="1077" type="line"/>
      <point x="121" y="1077" type="line"/>
      <point x="595" y="619" type="line"/>
      <point x="901" y="619" type="line"/>
    </contour>
  </outline>
</glyph>
<glyph name="uni021D" format="2">
	<unicode hex="021D"/>
	<advance width="1024"/>
	<outline>
		<contour>
			<point x="101" y="93" type="line"/>
			<point x="759" y="327" type="line"/>
			<point x="759" y="-137" type="line"/>
			<point x="59" y="-371" type="line"/>
			<point x="59" y="-571" type="line"/>
			<point x="963" y="-337" type="line"/>
			<point x="963" y="1100" type="line"/>
			<point x="89" y="915" type="line"/>
			<point x="89" y="715" type="line"/>
			<point x="757" y="900" type="line"/>
			<point x="757" y="527" type="line"/>
			<point x="101" y="293" type="line"/>
		</contour>
	</outline>
</glyph>
<glyph name="dcurl" format="2">
  <advance width="1024"/>
  <unicode hex="0221"/>
  <anchor x="506" y="-56" name="base"/>
  <anchor x="824" y="1642" name="top"/>
  <outline>
    <contour>
      <point x="361" y="1551" type="line"/>
      <point x="361" y="24" type="line"/>
      <point x="562" y="24" type="line"/>
      <point x="562" y="1551" type="line"/>
    </contour>
    <contour>
      <point x="102" y="1023" type="line"/>
      <point x="102" y="822" type="line"/>
      <point x="473" y="822" type="line"/>
      <point x="473" y="1023" type="line"/>
    </contour>
    <contour>
      <point x="6" y="1023" type="line"/>
      <point x="6" y="0" type="line"/>
      <point x="207" y="0" type="line"/>
      <point x="207" y="1023" type="line"/>
    </contour>
    <contour>
      <point x="102" y="195" type="line"/>
      <point x="102" y="0" type="line"/>
      <point x="961" y="0" type="line"/>
      <point x="961" y="195" type="line"/>
    </contour>
    <contour>
      <point x="487" y="-143" type="line"/>
      <point x="607" y="-145" type="line"/>
      <point x="871" y="312" type="line"/>
      <point x="870" y="507" type="line"/>
    </contour>
    <contour>
      <point x="870" y="507" type="line"/>
      <point x="872" y="0" type="line"/>
      <point x="987" y="-1" type="line"/>
      <point x="985" y="511" type="line"/>
    </contour>
  </outline>
</glyph>
<glyph name="uni0222" format="2">
  <advance width="1024"/>
  <unicode hex="0222"/>
  <outline>
    <contour>
      <point x="105" y="1546" type="line"/>
      <point x="105" y="911" type="line"/>
      <point x="305" y="911" type="line"/>
      <point x="305" y="1546" type="line"/>
    </contour>
    <contour>
      <point x="717" y="1533" type="line"/>
      <point x="714" y="915" type="line"/>
      <point x="914" y="915" type="line"/>
      <point x="917" y="1533" type="line"/>
    </contour>
    <contour>
      <point x="92" y="779" type="line"/>
      <point x="90" y="581" type="line"/>
      <point x="934" y="578" type="line"/>
      <point x="932" y="783" type="line"/>
    </contour>
    <contour>
      <point x="92" y="779" type="line"/>
      <point x="85" y="24" type="line"/>
      <point x="289" y="24" type="line"/>
      <point x="289" y="779" type="line"/>
    </contour>
    <contour>
      <point x="733" y="780" type="line"/>
      <point x="739" y="0" type="line"/>
      <point x="941" y="3" type="line"/>
      <point x="932" y="783" type="line"/>
    </contour>
    <contour>
      <point x="84" y="200" type="line"/>
      <point x="82" y="0" type="line"/>
      <point x="932" y="0" type="line"/>
      <point x="932" y="200" type="line"/>
    </contour>
    <contour>
      <point x="932" y="783" type="line"/>
      <point x="103" y="1143" type="line"/>
      <point x="107" y="910" type="line"/>
      <point x="934" y="578" type="line"/>
    </contour>
    <contour>
      <point x="91" y="581" type="line"/>
      <point x="914" y="915" type="line"/>
      <point x="909" y="1139" type="line"/>
      <point x="92" y="780" type="line"/>
    </contour>
    <contour>
      <point x="429" y="1548" type="line"/>
      <point x="106" y="1546" type="line"/>
      <point x="105" y="1348" type="line"/>
      <point x="431" y="1347" type="line"/>
    </contour>
    <contour>
      <point x="592" y="1348" type="line"/>
      <point x="919" y="1346" type="line"/>
      <point x="917" y="1550" type="line"/>
      <point x="590" y="1548" type="line"/>
    </contour>
  </outline>
</glyph>
<glyph name="ou" format="2">
  <advance width="1024"/>
  <unicode hex="0223"/>
  <outline>
    <contour>
      <point x="115" y="1552" type="line"/>
      <point x="115" y="911" type="line"/>
      <point x="315" y="911" type="line"/>
      <point x="315" y="1552" type="line"/>
    </contour>
    <contour>
      <point x="727" y="1552" type="line"/>
      <point x="724" y="915" type="line"/>
      <point x="924" y="915" type="line"/>
      <point x="927" y="1552" type="line"/>
    </contour>
    <contour>
      <point x="102" y="779" type="line"/>
      <point x="100" y="581" type="line"/>
      <point x="944" y="578" type="line"/>
      <point x="942" y="783" type="line"/>
    </contour>
    <contour>
      <point x="102" y="779" type="line"/>
      <point x="95" y="24" type="line"/>
      <point x="299" y="24" type="line"/>
      <point x="299" y="779" type="line"/>
    </contour>
    <contour>
      <point x="743" y="780" type="line"/>
      <point x="749" y="0" type="line"/>
      <point x="951" y="3" type="line"/>
      <point x="942" y="783" type="line"/>
    </contour>
    <contour>
      <point x="94" y="200" type="line"/>
      <point x="92" y="0" type="line"/>
      <point x="942" y="0" type="line"/>
      <point x="942" y="200" type="line"/>
    </contour>
    <contour>
      <point x="942" y="783" type="line"/>
      <point x="113" y="1143" type="line"/>
      <point x="117" y="910" type="line"/>
      <point x="944" y="578" type="line"/>
    </contour>
    <contour>
      <point x="101" y="581" type="line"/>
      <point x="924" y="915" type="line"/>
      <point x="919" y="1139" type="line"/>
      <point x="102" y="780" type="line"/>
    </contour>
  </outline>
</glyph>
<glyph name="uni0234" format="2">
	<unicode hex="0234"/>
	<advance width="1024"/>
	<outline>
		<contour>
			<point x="610" y="285" type="line"/>
			<point x="610" y="85" type="line"/>
			<point x="842" y="349" type="line"/>
			<point x="842" y="549" type="line"/>
		</contour>
		<contour>
			<point x="412" y="1548" type="line"/>
			<point x="412" y="86" type="line"/>
			<point x="616" y="84" type="line"/>
			<point x="616" y="1546" type="line"/>
		</contour>
		<contour>
			<point x="256" y="1548" type="line"/>
			<point x="256" y="1349" type="line"/>
			<point x="491" y="1349" type="line"/>
			<point x="491" y="1548" type="line"/>
		</contour>
		<contour>
			<point x="177" y="499" type="line"/>
			<point x="177" y="299" type="line"/>
			<point x="846" y="361" type="line"/>
			<point x="846" y="561" type="line"/>
		</contour>
	</outline>
	<anchor name="base" x="538" y="-68"/>
	<anchor name="top" x="520" y="1654"/>
</glyph>
<glyph name="uni0234" format="2">
  <advance width="1024"/>
  <unicode hex="0234"/>
  <anchor x="538" y="-68" name="Anchor-1"/>
  <anchor x="520" y="1654" name="Anchor-0"/>
  <outline>
    <contour>
      <point x="610" y="285" type="line"/>
      <point x="842" y="549" type="line"/>
      <point x="842" y="349" type="line"/>
      <point x="610" y="85" type="line"/>
    </contour>
    <contour>
      <point x="412" y="1548" type="line"/>
      <point x="616" y="1546" type="line"/>
      <point x="616" y="84" type="line"/>
      <point x="412" y="86" type="line"/>
    </contour>
    <contour>
      <point x="256" y="1548" type="line"/>
      <point x="491" y="1548" type="line"/>
      <point x="491" y="1349" type="line"/>
      <point x="256" y="1349" type="line"/>
    </contour>
    <contour>
      <point x="177" y="499" type="line"/>
      <point x="846" y="561" type="line"/>
      <point x="846" y="361" type="line"/>
      <point x="177" y="299" type="line"/>
    </contour>
  </outline>
</glyph>
<glyph name="uni0235" format="2">
	<unicode hex="0235"/>
	<advance width="1024"/>
	<outline>
		<contour>
			<point x="78" y="990" type="line"/>
			<point x="78" y="0" type="line"/>
			<point x="279" y="0" type="line"/>
			<point x="279" y="990" type="line"/>
		</contour>
		<contour>
			<point x="468" y="976" type="line"/>
			<point x="468" y="0" type="line"/>
			<point x="669" y="0" type="line"/>
			<point x="669" y="976" type="line"/>
		</contour>
		<contour>
			<point x="13" y="1023" type="line"/>
			<point x="13" y="826" type="line"/>
			<point x="668" y="826" type="line"/>
			<point x="668" y="1023" type="line"/>
		</contour>
		<contour>
			<point x="351" y="209" type="line"/>
			<point x="351" y="12" type="line"/>
			<point x="821" y="298" type="line"/>
			<point x="821" y="495" type="line"/>
		</contour>
		<contour>
			<point x="661" y="188" type="line"/>
			<point x="661" y="0" type="line"/>
			<point x="850" y="0" type="line"/>
			<point x="850" y="188" type="line"/>
		</contour>
		<contour>
			<point x="821" y="495" type="line"/>
			<point x="821" y="0" type="line"/>
			<point x="1022" y="0" type="line"/>
			<point x="1022" y="495" type="line"/>
		</contour>
	</outline>
	<anchor name="base" x="530" y="-64"/>
	<anchor name="top" x="492" y="1158"/>
</glyph>
<glyph name="uni0236" format="2">
  <advance width="1024"/>
  <unicode hex="0236"/>
  <anchor x="500" y="1642" name="top"/>
  <anchor x="500" y="-82" name="base"/>
  <outline>
    <contour>
      <point x="410" y="1548" type="line"/>
      <point x="410" y="0" type="line"/>
      <point x="610" y="0" type="line"/>
      <point x="610" y="1548" type="line"/>
    </contour>
    <contour>
      <point x="418" y="199" type="line"/>
      <point x="418" y="0" type="line"/>
      <point x="809" y="0" type="line"/>
      <point x="809" y="199" type="line"/>
    </contour>
    <contour>
      <point x="174" y="1023" type="line"/>
      <point x="174" y="824" type="line"/>
      <point x="848" y="824" type="line"/>
      <point x="848" y="1023" type="line"/>
    </contour>
    <contour>
      <point x="161" y="208" type="line"/>
      <point x="161" y="9" type="line"/>
      <point x="806" y="348" type="line"/>
      <point x="805" y="547" type="line"/>
    </contour>
    <contour>
      <point x="809" y="-1" type="line"/>
      <point x="1010" y="0" type="line"/>
      <point x="1004" y="551" type="line"/>
      <point x="804" y="547" type="line"/>
    </contour>
  </outline>
</glyph>
<glyph name="uni0248" format="2">
  <advance width="1024"/>
  <unicode hex="0248"/>
  <outline>
    <contour>
      <point x="572" y="1527" type="line"/>
      <point x="772" y="1527" type="line"/>
      <point x="772" y="0" type="line"/>
      <point x="572" y="0" type="line"/>
    </contour>
    <contour>
      <point x="-2" y="208" type="line"/>
      <point x="613" y="208" type="line"/>
      <point x="613" y="0" type="line"/>
      <point x="-2" y="0" type="line"/>
    </contour>
    <contour>
      <point x="-3" y="503" type="line"/>
      <point x="195" y="503" type="line"/>
      <point x="195" y="52" type="line"/>
      <point x="-3" y="52" type="line"/>
    </contour>
    <contour>
      <point x="357" y="863" type="line"/>
      <point x="1018" y="863" type="line"/>
      <point x="1018" y="655" type="line"/>
      <point x="357" y="655" type="line"/>
    </contour>
  </outline>
</glyph>
<glyph name="uni0249" format="2">
  <advance width="1024"/>
  <unicode hex="0249"/>
  <outline>
    <contour>
      <point x="497" y="1027" type="line"/>
      <point x="695" y="1027" type="line"/>
      <point x="695" y="-407" type="line"/>
      <point x="497" y="-407" type="line"/>
    </contour>
    <contour>
      <point x="67" y="-205" type="line"/>
      <point x="597" y="-205" type="line"/>
      <point x="597" y="-402" type="line"/>
      <point x="67" y="-402" type="line"/>
    </contour>
    <contour>
      <point x="67" y="-2" type="line"/>
      <point x="267" y="-2" type="line"/>
      <point x="267" y="-347" type="line"/>
      <point x="67" y="-347" type="line"/>
    </contour>
    <contour>
      <point x="489" y="1417" type="line"/>
      <point x="689" y="1417" type="line"/>
      <point x="689" y="1218" type="line"/>
      <point x="489" y="1218" type="line"/>
    </contour>
    <contour>
      <point x="183" y="639" type="line"/>
      <point x="1009" y="639" type="line"/>
      <point x="1009" y="431" type="line"/>
      <point x="183" y="431" type="line"/>
    </contour>
  </outline>
</glyph>
<glyph name="uni024C" format="2">
  <advance width="1024"/>
  <unicode hex="024C"/>
  <outline>
    <contour>
      <point x="112" y="1537" type="line"/>
      <point x="313" y="1537" type="line"/>
      <point x="313" y="0" type="line"/>
      <point x="112" y="0" type="line"/>
    </contour>
    <contour>
      <point x="191" y="1537" type="line"/>
      <point x="847" y="1537" type="line"/>
      <point x="847" y="1335" type="line"/>
      <point x="191" y="1335" type="line"/>
    </contour>
    <contour>
      <point x="674" y="1537" type="line"/>
      <point x="874" y="1537" type="line"/>
      <point x="874" y="872" type="line"/>
      <point x="674" y="872" type="line"/>
    </contour>
    <contour>
      <point x="175" y="1079" type="line"/>
      <point x="862" y="1079" type="line"/>
      <point x="862" y="868" type="line"/>
      <point x="175" y="868" type="line"/>
    </contour>
    <contour>
      <point x="314" y="874" type="line"/>
      <point x="541" y="872" type="line"/>
      <point x="956" y="0" type="line"/>
      <point x="716" y="0" type="line"/>
    </contour>
    <contour>
      <point x="10" y="866" type="line"/>
      <point x="10" y="1074" type="line"/>
      <point x="270" y="1074" type="line"/>
      <point x="270" y="866" type="line"/>
    </contour>
  </outline>
</glyph>
<glyph name="uni024D" format="2">
  <advance width="1024"/>
  <unicode hex="024D"/>
  <outline>
    <contour>
      <point x="165" y="1023" type="line"/>
      <point x="898" y="1023" type="line"/>
      <point x="898" y="821" type="line"/>
      <point x="165" y="821" type="line"/>
    </contour>
    <contour>
      <point x="380" y="954" type="line"/>
      <point x="580" y="954" type="line"/>
      <point x="580" y="0" type="line"/>
      <point x="380" y="0" type="line"/>
    </contour>
    <contour>
      <point x="698" y="976" type="line"/>
      <point x="898" y="976" type="line"/>
      <point x="898" y="650" type="line"/>
      <point x="698" y="650" type="line"/>
    </contour>
    <contour>
      <point x="99" y="563" type="line"/>
      <point x="925" y="563" type="line"/>
      <point x="925" y="355" type="line"/>
      <point x="99" y="355" type="line"/>
    </contour>
  </outline>
</glyph>
<glyph name="uni0250" format="2">
	<unicode hex="0250"/>
	<advance width="1024"/>
	<outline>
		<contour>
			<point x="856" y="0" type="line"/>
			<point x="856" y="199" type="line"/>
			<point x="250" y="199" type="line"/>
			<point x="250" y="0" type="line"/>
		</contour>
		<contour>
			<point x="363" y="0" type="line"/>
			<point x="363" y="1097" type="line"/>
			<point x="169" y="1097" type="line"/>
			<point x="169" y="0" type="line"/>
		</contour>
		<contour>
			<point x="852" y="424" type="line"/>
			<point x="852" y="623" type="line"/>
			<point x="228" y="623" type="line"/>
			<point x="228" y="424" type="line"/>
		</contour>
		<contour>
			<point x="852" y="448" type="line"/>
			<point x="852" y="1023" type="line"/>
			<point x="651" y="1023" type="line"/>
			<point x="651" y="448" type="line"/>
		</contour>
		<contour>
			<point x="852" y="822" type="line"/>
			<point x="852" y="1023" type="line"/>
			<point x="168" y="1023" type="line"/>
			<point x="168" y="822" type="line"/>
		</contour>
	</outline>
	<anchor name="top" x="524" y="-111"/>
	<anchor name="base" x="500" y="1097"/>
</glyph>
<glyph name="uni0253" format="2">
  <advance width="1024"/>
  <unicode hex="0253"/>
  <outline>
    <contour>
      <point x="135" y="1537" type="line"/>
      <point x="334" y="1537" type="line"/>
      <point x="334" y="0" type="line"/>
      <point x="135" y="0" type="line"/>
    </contour>
    <contour>
      <point x="232" y="1033" type="line"/>
      <point x="750" y="1033" type="line"/>
      <point x="750" y="834" type="line"/>
      <point x="232" y="834" type="line"/>
    </contour>
    <contour>
      <point x="690" y="1033" type="line"/>
      <point x="889" y="1033" type="line"/>
      <point x="889" y="0" type="line"/>
      <point x="690" y="0" type="line"/>
    </contour>
    <contour>
      <point x="260" y="207" type="line"/>
      <point x="810" y="207" type="line"/>
      <point x="810" y="0" type="line"/>
      <point x="260" y="0" type="line"/>
    </contour>
    <contour>
      <point x="716" y="1412" type="line"/>
      <point x="487" y="1412" type="line"/>
      <point x="487" y="1660" type="line"/>
      <point x="716" y="1660" type="line"/>
    </contour>
    <contour>
      <point x="618" y="1491" type="line"/>
      <point x="275" y="1292" type="line"/>
      <point x="196" y="1476" type="line"/>
      <point x="486" y="1659" type="line"/>
    </contour>
  </outline>
</glyph>
<glyph name="uni0254" format="2">
	<unicode hex="0254"/>
	<advance width="1024"/>
	<outline>
		<contour>
			<point x="860" y="0" type="line"/>
			<point x="860" y="197" type="line"/>
			<point x="164" y="197" type="line"/>
			<point x="164" y="0" type="line"/>
		</contour>
		<contour>
			<point x="858" y="39" type="line"/>
			<point x="858" y="1023" type="line"/>
			<point x="656" y="1023" type="line"/>
			<point x="656" y="39" type="line"/>
		</contour>
		<contour>
			<point x="752" y="822" type="line"/>
			<point x="752" y="1023" type="line"/>
			<point x="170" y="1023" type="line"/>
			<point x="170" y="822" type="line"/>
		</contour>
	</outline>
	<anchor name="base" x="522" y="-40"/>
	<anchor name="top" x="492" y="1162"/>
</glyph>
<glyph name="uni0256" format="2">
  <advance width="1024"/>
  <unicode hex="0256"/>
  <outline>
    <contour>
      <point x="692" y="1527" type="line"/>
      <point x="893" y="1527" type="line"/>
      <point x="893" y="0" type="line"/>
      <point x="692" y="0" type="line"/>
    </contour>
    <contour>
      <point x="228" y="1023" type="line"/>
      <point x="781" y="1023" type="line"/>
      <point x="781" y="822" type="line"/>
      <point x="228" y="822" type="line"/>
    </contour>
    <contour>
      <point x="132" y="1023" type="line"/>
      <point x="333" y="1023" type="line"/>
      <point x="333" y="0" type="line"/>
      <point x="132" y="0" type="line"/>
    </contour>
    <contour>
      <point x="228" y="195" type="line"/>
      <point x="845" y="195" type="line"/>
      <point x="845" y="0" type="line"/>
      <point x="228" y="0" type="line"/>
    </contour>
    <contour>
      <point x="1030" y="-328" type="line"/>
      <point x="804" y="-430" type="line"/>
      <point x="710" y="-222" type="line"/>
      <point x="936" y="-120" type="line"/>
    </contour>
    <contour>
      <point x="899" y="-276" type="line"/>
      <point x="710" y="-222" type="line"/>
      <point x="735" y="24" type="line"/>
      <point x="891" y="29" type="line"/>
    </contour>
  </outline>
</glyph>
<glyph name="uni0257" format="2">
  <advance width="1024"/>
  <unicode hex="0257"/>
  <outline>
    <contour>
      <point x="616" y="1513" type="line"/>
      <point x="817" y="1513" type="line"/>
      <point x="817" y="-14" type="line"/>
      <point x="616" y="-14" type="line"/>
    </contour>
    <contour>
      <point x="152" y="1009" type="line"/>
      <point x="705" y="1009" type="line"/>
      <point x="705" y="808" type="line"/>
      <point x="152" y="808" type="line"/>
    </contour>
    <contour>
      <point x="56" y="1009" type="line"/>
      <point x="257" y="1009" type="line"/>
      <point x="257" y="-14" type="line"/>
      <point x="56" y="-14" type="line"/>
    </contour>
    <contour>
      <point x="152" y="181" type="line"/>
      <point x="769" y="181" type="line"/>
      <point x="769" y="-14" type="line"/>
      <point x="152" y="-14" type="line"/>
    </contour>
    <contour>
      <point x="1254" y="1445" type="line"/>
      <point x="1025" y="1445" type="line"/>
      <point x="1025" y="1693" type="line"/>
      <point x="1254" y="1693" type="line"/>
    </contour>
    <contour>
      <point x="1156" y="1524" type="line"/>
      <point x="813" y="1325" type="line"/>
      <point x="734" y="1509" type="line"/>
      <point x="1024" y="1692" type="line"/>
    </contour>
  </outline>
</glyph>
<glyph name="uni0259" format="2">
  <advance width="1024"/>
  <unicode hex="0259"/>
  <anchor x="500" y="1134" name="top"/>
  <outline>
    <contour>
      <point x="804" y="0" type="line"/>
      <point x="804" y="200" type="line"/>
      <point x="240" y="267" type="line"/>
      <point x="240" y="67" type="line"/>
    </contour>
    <contour>
      <point x="854" y="0" type="line"/>
      <point x="854" y="1023" type="line"/>
      <point x="652" y="1023" type="line"/>
      <point x="652" y="0" type="line"/>
    </contour>
    <contour>
      <point x="752" y="822" type="line"/>
      <point x="752" y="1023" type="line"/>
      <point x="170" y="1023" type="line"/>
      <point x="170" y="822" type="line"/>
    </contour>
    <contour>
      <point x="784" y="398" type="line"/>
      <point x="784" y="577" type="line"/>
      <point x="194" y="577" type="line"/>
      <point x="194" y="398" type="line"/>
    </contour>
    <contour>
      <point x="437" y="97" type="line"/>
      <point x="366" y="578" type="line"/>
      <point x="171" y="578" type="line"/>
      <point x="242" y="97" type="line"/>
    </contour>
  </outline>
</glyph>
<glyph name="eopen" format="2">
  <advance width="1024"/>
  <unicode hex="025B"/>
  <outline>
    <contour>
      <point x="103" y="1140" type="line"/>
      <point x="171" y="669" type="line"/>
      <point x="371" y="668" type="line"/>
      <point x="303" y="1139" type="line"/>
    </contour>
    <contour>
      <point x="181" y="1139" type="line"/>
      <point x="181" y="935" type="line"/>
      <point x="900" y="935" type="line"/>
      <point x="900" y="1139" type="line"/>
    </contour>
    <contour>
      <point x="170" y="203" type="line"/>
      <point x="170" y="0" type="line"/>
      <point x="916" y="0" type="line"/>
      <point x="916" y="203" type="line"/>
    </contour>
    <contour>
      <point x="363" y="670" type="line"/>
      <point x="363" y="470" type="line"/>
      <point x="669" y="470" type="line"/>
      <point x="669" y="670" type="line"/>
    </contour>
    <contour>
      <point x="178" y="473" type="line"/>
      <point x="96" y="2" type="line"/>
      <point x="296" y="1" type="line"/>
      <point x="378" y="472" type="line"/>
    </contour>
  </outline>
</glyph>
<glyph name="uni0260" format="2">
  <advance width="1024"/>
  <unicode hex="0260"/>
  <outline>
    <contour>
      <point x="297" y="1023" type="line"/>
      <point x="489" y="1023" type="line"/>
      <point x="489" y="0" type="line"/>
      <point x="297" y="0" type="line"/>
    </contour>
    <contour>
      <point x="337" y="1023" type="line"/>
      <point x="853" y="1023" type="line"/>
      <point x="853" y="823" type="line"/>
      <point x="337" y="823" type="line"/>
    </contour>
    <contour>
      <point x="681" y="1023" type="line"/>
      <point x="875" y="1023" type="line"/>
      <point x="875" y="-411" type="line"/>
      <point x="681" y="-411" type="line"/>
    </contour>
    <contour>
      <point x="360" y="198" type="line"/>
      <point x="817" y="198" type="line"/>
      <point x="817" y="0" type="line"/>
      <point x="360" y="0" type="line"/>
    </contour>
    <contour>
      <point x="291" y="-214" type="line"/>
      <point x="826" y="-214" type="line"/>
      <point x="826" y="-413" type="line"/>
      <point x="291" y="-413" type="line"/>
    </contour>
    <contour>
      <point x="990" y="1419" type="line"/>
      <point x="878" y="1220" type="line"/>
      <point x="669" y="1343" type="line"/>
      <point x="780" y="1542" type="line"/>
    </contour>
    <contour>
      <point x="875" y="1373" type="line"/>
      <point x="877" y="976" type="line"/>
      <point x="683" y="999" type="line"/>
      <point x="669" y="1341" type="line"/>
    </contour>
  </outline>
</glyph>
